<?xml version="1.0"?>
<svg xmlns="http://www.w3.org/2000/svg" xmlns:xlink="http://www.w3.org/1999/xlink" xmlns:ev="http://www.w3.org/2001/xml-events" version="1.1" baseProfile="full" viewBox="13.5 13.5 114 114">
	<g>
		<g>
			<path fill="none" d=" M73,114 L53,89" stroke="#000000" stroke-width="1.000000px" />
		</g>
		<g>
			<path fill="none" d=" M73,114 L51,121" stroke="#000000" stroke-width="1.000000px" />
		</g>
		<g>
			<path fill="none" d=" M73,114 L82,84" stroke="#000000" stroke-width="1.000000px" />
		</g>
		<g>
			<path fill="none" d=" M37,54 L20,31" stroke="#000000" stroke-width="1.000000px" />
		</g>
		<g>
			<path fill="none" d=" M37,54 L70,73" stroke="#000000" stroke-width="1.000000px" />
		</g>
		<g>
			<path fill="none" d=" M37,54 L64,62" stroke="#000000" stroke-width="1.000000px" />
		</g>
		<g>
			<path fill="none" d=" M37,54 L46,22" stroke="#000000" stroke-width="1.000000px" />
		</g>
		<g>
			<path fill="none" d=" M37,54 L27,80" stroke="#000000" stroke-width="1.000000px" />
		</g>
		<g>
			<path fill="none" d=" M37,54 L41,81" stroke="#000000" stroke-width="1.000000px" />
		</g>
		<g>
			<path fill="none" d=" M20,31 L48,49" stroke="#000000" stroke-width="1.000000px" />
		</g>
		<g>
			<path fill="none" d=" M20,31 L46,22" stroke="#000000" stroke-width="1.000000px" />
		</g>
		<g>
			<path fill="none" d=" M103,88 L96,63" stroke="#000000" stroke-width="1.000000px" />
		</g>
		<g>
			<path fill="none" d=" M103,88 L70,73" stroke="#000000" stroke-width="1.000000px" />
		</g>
		<g>
			<path fill="none" d=" M103,88 L86,70" stroke="#000000" stroke-width="1.000000px" />
		</g>
		<g>
			<path fill="none" d=" M102,27 L78,53" stroke="#000000" stroke-width="1.000000px" />
		</g>
		<g>
			<path fill="none" d=" M102,27 L83,41" stroke="#000000" stroke-width="1.000000px" />
		</g>
		<g>
			<path fill="none" d=" M37,33 L67,20" stroke="#000000" stroke-width="1.000000px" />
		</g>
		<g>
			<path fill="none" d=" M37,33 L49,64" stroke="#000000" stroke-width="1.000000px" />
		</g>
		<g>
			<path fill="none" d=" M37,33 L46,22" stroke="#000000" stroke-width="1.000000px" />
		</g>
		<g>
			<path fill="none" d=" M41,113 L65,92" stroke="#000000" stroke-width="1.000000px" />
		</g>
		<g>
			<path fill="none" d=" M41,113 L20,106" stroke="#000000" stroke-width="1.000000px" />
		</g>
		<g>
			<path fill="none" d=" M41,113 L41,81" stroke="#000000" stroke-width="1.000000px" />
		</g>
		<g>
			<path fill="none" d=" M78,53 L65,92" stroke="#000000" stroke-width="1.000000px" />
		</g>
		<g>
			<path fill="none" d=" M78,53 L67,20" stroke="#000000" stroke-width="1.000000px" />
		</g>
		<g>
			<path fill="none" d=" M78,53 L70,73" stroke="#000000" stroke-width="1.000000px" />
		</g>
		<g>
			<path fill="none" d=" M78,53 L86,70" stroke="#000000" stroke-width="1.000000px" />
		</g>
		<g>
			<path fill="none" d=" M78,53 L83,41" stroke="#000000" stroke-width="1.000000px" />
		</g>
		<g>
			<path fill="none" d=" M78,53 L60,82" stroke="#000000" stroke-width="1.000000px" />
		</g>
		<g>
			<path fill="none" d=" M96,63 L82,84" stroke="#000000" stroke-width="1.000000px" />
		</g>
		<g>
			<path fill="none" d=" M96,63 L64,62" stroke="#000000" stroke-width="1.000000px" />
		</g>
		<g>
			<path fill="none" d=" M96,63 L90,93" stroke="#000000" stroke-width="1.000000px" />
		</g>
		<g>
			<path fill="none" d=" M96,63 L73,41" stroke="#000000" stroke-width="1.000000px" />
		</g>
		<g>
			<path fill="none" d=" M53,89 L48,49" stroke="#000000" stroke-width="1.000000px" />
		</g>
		<g>
			<path fill="none" d=" M53,89 L20,106" stroke="#000000" stroke-width="1.000000px" />
		</g>
		<g>
			<path fill="none" d=" M53,89 L86,70" stroke="#000000" stroke-width="1.000000px" />
		</g>
		<g>
			<path fill="none" d=" M53,89 L51,121" stroke="#000000" stroke-width="1.000000px" />
		</g>
		<g>
			<path fill="none" d=" M53,89 L64,62" stroke="#000000" stroke-width="1.000000px" />
		</g>
		<g>
			<path fill="none" d=" M53,89 L49,64" stroke="#000000" stroke-width="1.000000px" />
		</g>
		<g>
			<path fill="none" d=" M53,89 L27,80" stroke="#000000" stroke-width="1.000000px" />
		</g>
		<g>
			<path fill="none" d=" M65,92 L70,73" stroke="#000000" stroke-width="1.000000px" />
		</g>
		<g>
			<path fill="none" d=" M65,92 L86,70" stroke="#000000" stroke-width="1.000000px" />
		</g>
		<g>
			<path fill="none" d=" M65,92 L51,121" stroke="#000000" stroke-width="1.000000px" />
		</g>
		<g>
			<path fill="none" d=" M65,92 L82,84" stroke="#000000" stroke-width="1.000000px" />
		</g>
		<g>
			<path fill="none" d=" M48,49 L83,41" stroke="#000000" stroke-width="1.000000px" />
		</g>
		<g>
			<path fill="none" d=" M48,49 L46,22" stroke="#000000" stroke-width="1.000000px" />
		</g>
		<g>
			<path fill="none" d=" M20,106 L27,80" stroke="#000000" stroke-width="1.000000px" />
		</g>
		<g>
			<path fill="none" d=" M67,20 L83,41" stroke="#000000" stroke-width="1.000000px" />
		</g>
		<g>
			<path fill="none" d=" M67,20 L46,22" stroke="#000000" stroke-width="1.000000px" />
		</g>
		<g>
			<path fill="none" d=" M67,20 L73,41" stroke="#000000" stroke-width="1.000000px" />
		</g>
		<g>
			<path fill="none" d=" M70,73 L49,64" stroke="#000000" stroke-width="1.000000px" />
		</g>
		<g>
			<path fill="none" d=" M70,73 L90,93" stroke="#000000" stroke-width="1.000000px" />
		</g>
		<g>
			<path fill="none" d=" M70,73 L73,41" stroke="#000000" stroke-width="1.000000px" />
		</g>
		<g>
			<path fill="none" d=" M70,73 L41,81" stroke="#000000" stroke-width="1.000000px" />
		</g>
		<g>
			<path fill="none" d=" M86,70 L83,41" stroke="#000000" stroke-width="1.000000px" />
		</g>
		<g>
			<path fill="none" d=" M86,70 L82,84" stroke="#000000" stroke-width="1.000000px" />
		</g>
		<g>
			<path fill="none" d=" M86,70 L64,62" stroke="#000000" stroke-width="1.000000px" />
		</g>
		<g>
			<path fill="none" d=" M86,70 L58,55" stroke="#000000" stroke-width="1.000000px" />
		</g>
		<g>
			<path fill="none" d=" M86,70 L121,75" stroke="#000000" stroke-width="1.000000px" />
		</g>
		<g>
			<path fill="none" d=" M86,70 L109,61" stroke="#000000" stroke-width="1.000000px" />
		</g>
		<g>
			<path fill="none" d=" M86,70 L73,41" stroke="#000000" stroke-width="1.000000px" />
		</g>
		<g>
			<path fill="none" d=" M83,41 L64,62" stroke="#000000" stroke-width="1.000000px" />
		</g>
		<g>
			<path fill="none" d=" M83,41 L109,61" stroke="#000000" stroke-width="1.000000px" />
		</g>
		<g>
			<path fill="none" d=" M82,84 L49,64" stroke="#000000" stroke-width="1.000000px" />
		</g>
		<g>
			<path fill="none" d=" M82,84 L109,61" stroke="#000000" stroke-width="1.000000px" />
		</g>
		<g>
			<path fill="none" d=" M64,62 L41,81" stroke="#000000" stroke-width="1.000000px" />
		</g>
		<g>
			<path fill="none" d=" M49,64 L27,80" stroke="#000000" stroke-width="1.000000px" />
		</g>
		<g>
			<path fill="none" d=" M58,55 L41,81" stroke="#000000" stroke-width="1.000000px" />
		</g>
		<g>
			<path fill="none" d=" M46,22 L73,41" stroke="#000000" stroke-width="1.000000px" />
		</g>
		<g>
			<path fill="none" d=" M27,80 L60,82" stroke="#000000" stroke-width="1.000000px" />
		</g>
		<g>
			<path fill="none" d=" M90,93 L60,82" stroke="#000000" stroke-width="1.000000px" />
		</g>
	</g>
	<g>
		<rect x="68" y="109" width="10" height="10" fill="#FFFFFF" stroke-width="1.000000px" stroke="#000000" />
		<text x="73" y="114" text-anchor="middle" dominant-baseline="middle" font-family="Arial" font-size="10" fill="#000000"></text>
	</g>
	<g>
		<rect x="32" y="49" width="10" height="10" fill="#FFFFFF" stroke-width="1.000000px" stroke="#000000" />
		<text x="37" y="54" text-anchor="middle" dominant-baseline="middle" font-family="Arial" font-size="10" fill="#000000"></text>
	</g>
	<g>
		<rect x="15" y="26" width="10" height="10" fill="#FFFFFF" stroke-width="1.000000px" stroke="#000000" />
		<text x="20" y="31" text-anchor="middle" dominant-baseline="middle" font-family="Arial" font-size="10" fill="#000000"></text>
	</g>
	<g>
		<rect x="98" y="83" width="10" height="10" fill="#FFFFFF" stroke-width="1.000000px" stroke="#000000" />
		<text x="103" y="88" text-anchor="middle" dominant-baseline="middle" font-family="Arial" font-size="10" fill="#000000"></text>
	</g>
	<g>
		<rect x="97" y="22" width="10" height="10" fill="#FFFFFF" stroke-width="1.000000px" stroke="#000000" />
		<text x="102" y="27" text-anchor="middle" dominant-baseline="middle" font-family="Arial" font-size="10" fill="#000000"></text>
	</g>
	<g>
		<rect x="32" y="28" width="10" height="10" fill="#FFFFFF" stroke-width="1.000000px" stroke="#000000" />
		<text x="37" y="33" text-anchor="middle" dominant-baseline="middle" font-family="Arial" font-size="10" fill="#000000"></text>
	</g>
	<g>
		<rect x="36" y="108" width="10" height="10" fill="#FFFFFF" stroke-width="1.000000px" stroke="#000000" />
		<text x="41" y="113" text-anchor="middle" dominant-baseline="middle" font-family="Arial" font-size="10" fill="#000000"></text>
	</g>
	<g>
		<rect x="73" y="48" width="10" height="10" fill="#FFFFFF" stroke-width="1.000000px" stroke="#000000" />
		<text x="78" y="53" text-anchor="middle" dominant-baseline="middle" font-family="Arial" font-size="10" fill="#000000"></text>
	</g>
	<g>
		<rect x="91" y="58" width="10" height="10" fill="#FFFFFF" stroke-width="1.000000px" stroke="#000000" />
		<text x="96" y="63" text-anchor="middle" dominant-baseline="middle" font-family="Arial" font-size="10" fill="#000000"></text>
	</g>
	<g>
		<rect x="48" y="84" width="10" height="10" fill="#FFFFFF" stroke-width="1.000000px" stroke="#000000" />
		<text x="53" y="89" text-anchor="middle" dominant-baseline="middle" font-family="Arial" font-size="10" fill="#000000"></text>
	</g>
	<g>
		<rect x="60" y="87" width="10" height="10" fill="#FFFFFF" stroke-width="1.000000px" stroke="#000000" />
		<text x="65" y="92" text-anchor="middle" dominant-baseline="middle" font-family="Arial" font-size="10" fill="#000000"></text>
	</g>
	<g>
		<rect x="43" y="44" width="10" height="10" fill="#FFFFFF" stroke-width="1.000000px" stroke="#000000" />
		<text x="48" y="49" text-anchor="middle" dominant-baseline="middle" font-family="Arial" font-size="10" fill="#000000"></text>
	</g>
	<g>
		<rect x="15" y="101" width="10" height="10" fill="#FFFFFF" stroke-width="1.000000px" stroke="#000000" />
		<text x="20" y="106" text-anchor="middle" dominant-baseline="middle" font-family="Arial" font-size="10" fill="#000000"></text>
	</g>
	<g>
		<rect x="62" y="15" width="10" height="10" fill="#FFFFFF" stroke-width="1.000000px" stroke="#000000" />
		<text x="67" y="20" text-anchor="middle" dominant-baseline="middle" font-family="Arial" font-size="10" fill="#000000"></text>
	</g>
	<g>
		<rect x="65" y="68" width="10" height="10" fill="#FFFFFF" stroke-width="1.000000px" stroke="#000000" />
		<text x="70" y="73" text-anchor="middle" dominant-baseline="middle" font-family="Arial" font-size="10" fill="#000000"></text>
	</g>
	<g>
		<rect x="81" y="65" width="10" height="10" fill="#FFFFFF" stroke-width="1.000000px" stroke="#000000" />
		<text x="86" y="70" text-anchor="middle" dominant-baseline="middle" font-family="Arial" font-size="10" fill="#000000"></text>
	</g>
	<g>
		<rect x="46" y="116" width="10" height="10" fill="#FFFFFF" stroke-width="1.000000px" stroke="#000000" />
		<text x="51" y="121" text-anchor="middle" dominant-baseline="middle" font-family="Arial" font-size="10" fill="#000000"></text>
	</g>
	<g>
		<rect x="78" y="36" width="10" height="10" fill="#FFFFFF" stroke-width="1.000000px" stroke="#000000" />
		<text x="83" y="41" text-anchor="middle" dominant-baseline="middle" font-family="Arial" font-size="10" fill="#000000"></text>
	</g>
	<g>
		<rect x="77" y="79" width="10" height="10" fill="#FFFFFF" stroke-width="1.000000px" stroke="#000000" />
		<text x="82" y="84" text-anchor="middle" dominant-baseline="middle" font-family="Arial" font-size="10" fill="#000000"></text>
	</g>
	<g>
		<rect x="59" y="57" width="10" height="10" fill="#FFFFFF" stroke-width="1.000000px" stroke="#000000" />
		<text x="64" y="62" text-anchor="middle" dominant-baseline="middle" font-family="Arial" font-size="10" fill="#000000"></text>
	</g>
	<g>
		<rect x="44" y="59" width="10" height="10" fill="#FFFFFF" stroke-width="1.000000px" stroke="#000000" />
		<text x="49" y="64" text-anchor="middle" dominant-baseline="middle" font-family="Arial" font-size="10" fill="#000000"></text>
	</g>
	<g>
		<rect x="53" y="50" width="10" height="10" fill="#FFFFFF" stroke-width="1.000000px" stroke="#000000" />
		<text x="58" y="55" text-anchor="middle" dominant-baseline="middle" font-family="Arial" font-size="10" fill="#000000"></text>
	</g>
	<g>
		<rect x="41" y="17" width="10" height="10" fill="#FFFFFF" stroke-width="1.000000px" stroke="#000000" />
		<text x="46" y="22" text-anchor="middle" dominant-baseline="middle" font-family="Arial" font-size="10" fill="#000000"></text>
	</g>
	<g>
		<rect x="116" y="70" width="10" height="10" fill="#FFFFFF" stroke-width="1.000000px" stroke="#000000" />
		<text x="121" y="75" text-anchor="middle" dominant-baseline="middle" font-family="Arial" font-size="10" fill="#000000"></text>
	</g>
	<g>
		<rect x="22" y="75" width="10" height="10" fill="#FFFFFF" stroke-width="1.000000px" stroke="#000000" />
		<text x="27" y="80" text-anchor="middle" dominant-baseline="middle" font-family="Arial" font-size="10" fill="#000000"></text>
	</g>
	<g>
		<rect x="104" y="56" width="10" height="10" fill="#FFFFFF" stroke-width="1.000000px" stroke="#000000" />
		<text x="109" y="61" text-anchor="middle" dominant-baseline="middle" font-family="Arial" font-size="10" fill="#000000"></text>
	</g>
	<g>
		<rect x="85" y="88" width="10" height="10" fill="#FFFFFF" stroke-width="1.000000px" stroke="#000000" />
		<text x="90" y="93" text-anchor="middle" dominant-baseline="middle" font-family="Arial" font-size="10" fill="#000000"></text>
	</g>
	<g>
		<rect x="68" y="36" width="10" height="10" fill="#FFFFFF" stroke-width="1.000000px" stroke="#000000" />
		<text x="73" y="41" text-anchor="middle" dominant-baseline="middle" font-family="Arial" font-size="10" fill="#000000"></text>
	</g>
	<g>
		<rect x="36" y="76" width="10" height="10" fill="#FFFFFF" stroke-width="1.000000px" stroke="#000000" />
		<text x="41" y="81" text-anchor="middle" dominant-baseline="middle" font-family="Arial" font-size="10" fill="#000000"></text>
	</g>
	<g>
		<rect x="55" y="77" width="10" height="10" fill="#FFFFFF" stroke-width="1.000000px" stroke="#000000" />
		<text x="60" y="82" text-anchor="middle" dominant-baseline="middle" font-family="Arial" font-size="10" fill="#000000"></text>
	</g>
</svg>
