<?xml version="1.0"?>
<svg xmlns="http://www.w3.org/2000/svg" xmlns:xlink="http://www.w3.org/1999/xlink" xmlns:ev="http://www.w3.org/2001/xml-events" version="1.1" baseProfile="full" viewBox="13.5 13.5 118 113">
	<g>
		<g>
			<path fill="none" d=" M100,52 L74,32" stroke="#000000" stroke-width="1.000000px" />
		</g>
		<g>
			<path fill="none" d=" M100,52 L88,84" stroke="#000000" stroke-width="1.000000px" />
		</g>
		<g>
			<path fill="none" d=" M100,52 L120,27" stroke="#000000" stroke-width="1.000000px" />
		</g>
		<g>
			<path fill="none" d=" M100,52 L105,86" stroke="#000000" stroke-width="1.000000px" />
		</g>
		<g>
			<path fill="none" d=" M100,52 L92,30" stroke="#000000" stroke-width="1.000000px" />
		</g>
		<g>
			<path fill="none" d=" M100,52 L83,41" stroke="#000000" stroke-width="1.000000px" />
		</g>
		<g>
			<path fill="none" d=" M103,59 L108,78" stroke="#000000" stroke-width="1.000000px" />
		</g>
		<g>
			<path fill="none" d=" M103,59 L88,84" stroke="#000000" stroke-width="1.000000px" />
		</g>
		<g>
			<path fill="none" d=" M103,59 L105,86" stroke="#000000" stroke-width="1.000000px" />
		</g>
		<g>
			<path fill="none" d=" M103,59 L79,62" stroke="#000000" stroke-width="1.000000px" />
		</g>
		<g>
			<path fill="none" d=" M103,59 L123,74" stroke="#000000" stroke-width="1.000000px" />
		</g>
		<g>
			<path fill="none" d=" M103,59 L72,58" stroke="#000000" stroke-width="1.000000px" />
		</g>
		<g>
			<path fill="none" d=" M43,120 L68,101" stroke="#000000" stroke-width="1.000000px" />
		</g>
		<g>
			<path fill="none" d=" M43,120 L50,89" stroke="#000000" stroke-width="1.000000px" />
		</g>
		<g>
			<path fill="none" d=" M63,49 L85,74" stroke="#000000" stroke-width="1.000000px" />
		</g>
		<g>
			<path fill="none" d=" M63,49 L54,83" stroke="#000000" stroke-width="1.000000px" />
		</g>
		<g>
			<path fill="none" d=" M63,49 L66,71" stroke="#000000" stroke-width="1.000000px" />
		</g>
		<g>
			<path fill="none" d=" M63,49 L92,30" stroke="#000000" stroke-width="1.000000px" />
		</g>
		<g>
			<path fill="none" d=" M63,49 L72,58" stroke="#000000" stroke-width="1.000000px" />
		</g>
		<g>
			<path fill="none" d=" M24,98 L48,76" stroke="#000000" stroke-width="1.000000px" />
		</g>
		<g>
			<path fill="none" d=" M24,98 L20,74" stroke="#000000" stroke-width="1.000000px" />
		</g>
		<g>
			<path fill="none" d=" M24,98 L50,89" stroke="#000000" stroke-width="1.000000px" />
		</g>
		<g>
			<path fill="none" d=" M74,32 L92,30" stroke="#000000" stroke-width="1.000000px" />
		</g>
		<g>
			<path fill="none" d=" M74,32 L79,62" stroke="#000000" stroke-width="1.000000px" />
		</g>
		<g>
			<path fill="none" d=" M74,32 L72,58" stroke="#000000" stroke-width="1.000000px" />
		</g>
		<g>
			<path fill="none" d=" M85,74 L54,83" stroke="#000000" stroke-width="1.000000px" />
		</g>
		<g>
			<path fill="none" d=" M85,74 L68,101" stroke="#000000" stroke-width="1.000000px" />
		</g>
		<g>
			<path fill="none" d=" M85,74 L66,71" stroke="#000000" stroke-width="1.000000px" />
		</g>
		<g>
			<path fill="none" d=" M85,74 L105,86" stroke="#000000" stroke-width="1.000000px" />
		</g>
		<g>
			<path fill="none" d=" M85,74 L123,74" stroke="#000000" stroke-width="1.000000px" />
		</g>
		<g>
			<path fill="none" d=" M54,83 L68,101" stroke="#000000" stroke-width="1.000000px" />
		</g>
		<g>
			<path fill="none" d=" M54,83 L66,71" stroke="#000000" stroke-width="1.000000px" />
		</g>
		<g>
			<path fill="none" d=" M54,83 L88,84" stroke="#000000" stroke-width="1.000000px" />
		</g>
		<g>
			<path fill="none" d=" M54,83 L20,74" stroke="#000000" stroke-width="1.000000px" />
		</g>
		<g>
			<path fill="none" d=" M54,83 L70,116" stroke="#000000" stroke-width="1.000000px" />
		</g>
		<g>
			<path fill="none" d=" M54,83 L22,88" stroke="#000000" stroke-width="1.000000px" />
		</g>
		<g>
			<path fill="none" d=" M48,76 L68,101" stroke="#000000" stroke-width="1.000000px" />
		</g>
		<g>
			<path fill="none" d=" M48,76 L79,62" stroke="#000000" stroke-width="1.000000px" />
		</g>
		<g>
			<path fill="none" d=" M48,76 L72,58" stroke="#000000" stroke-width="1.000000px" />
		</g>
		<g>
			<path fill="none" d=" M108,78 L102,106" stroke="#000000" stroke-width="1.000000px" />
		</g>
		<g>
			<path fill="none" d=" M108,78 L125,89" stroke="#000000" stroke-width="1.000000px" />
		</g>
		<g>
			<path fill="none" d=" M108,78 L79,62" stroke="#000000" stroke-width="1.000000px" />
		</g>
		<g>
			<path fill="none" d=" M102,106 L125,89" stroke="#000000" stroke-width="1.000000px" />
		</g>
		<g>
			<path fill="none" d=" M102,106 L68,101" stroke="#000000" stroke-width="1.000000px" />
		</g>
		<g>
			<path fill="none" d=" M102,106 L88,84" stroke="#000000" stroke-width="1.000000px" />
		</g>
		<g>
			<path fill="none" d=" M125,89 L114,52" stroke="#000000" stroke-width="1.000000px" />
		</g>
		<g>
			<path fill="none" d=" M125,89 L102,114" stroke="#000000" stroke-width="1.000000px" />
		</g>
		<g>
			<path fill="none" d=" M68,101 L66,71" stroke="#000000" stroke-width="1.000000px" />
		</g>
		<g>
			<path fill="none" d=" M68,101 L88,84" stroke="#000000" stroke-width="1.000000px" />
		</g>
		<g>
			<path fill="none" d=" M68,101 L50,89" stroke="#000000" stroke-width="1.000000px" />
		</g>
		<g>
			<path fill="none" d=" M66,71 L78,99" stroke="#000000" stroke-width="1.000000px" />
		</g>
		<g>
			<path fill="none" d=" M66,71 L50,89" stroke="#000000" stroke-width="1.000000px" />
		</g>
		<g>
			<path fill="none" d=" M66,71 L83,41" stroke="#000000" stroke-width="1.000000px" />
		</g>
		<g>
			<path fill="none" d=" M88,84 L79,62" stroke="#000000" stroke-width="1.000000px" />
		</g>
		<g>
			<path fill="none" d=" M88,84 L102,114" stroke="#000000" stroke-width="1.000000px" />
		</g>
		<g>
			<path fill="none" d=" M88,84 L72,58" stroke="#000000" stroke-width="1.000000px" />
		</g>
		<g>
			<path fill="none" d=" M120,27 L92,30" stroke="#000000" stroke-width="1.000000px" />
		</g>
		<g>
			<path fill="none" d=" M120,27 L114,52" stroke="#000000" stroke-width="1.000000px" />
		</g>
		<g>
			<path fill="none" d=" M78,99 L105,86" stroke="#000000" stroke-width="1.000000px" />
		</g>
		<g>
			<path fill="none" d=" M78,99 L50,89" stroke="#000000" stroke-width="1.000000px" />
		</g>
		<g>
			<path fill="none" d=" M105,86 L123,74" stroke="#000000" stroke-width="1.000000px" />
		</g>
		<g>
			<path fill="none" d=" M92,30 L79,62" stroke="#000000" stroke-width="1.000000px" />
		</g>
		<g>
			<path fill="none" d=" M92,30 L122,20" stroke="#000000" stroke-width="1.000000px" />
		</g>
		<g>
			<path fill="none" d=" M79,62 L50,89" stroke="#000000" stroke-width="1.000000px" />
		</g>
		<g>
			<path fill="none" d=" M79,62 L114,52" stroke="#000000" stroke-width="1.000000px" />
		</g>
		<g>
			<path fill="none" d=" M50,89 L22,88" stroke="#000000" stroke-width="1.000000px" />
		</g>
		<g>
			<path fill="none" d=" M114,52 L123,74" stroke="#000000" stroke-width="1.000000px" />
		</g>
		<g>
			<path fill="none" d=" M114,52 L83,41" stroke="#000000" stroke-width="1.000000px" />
		</g>
		<g>
			<path fill="none" d=" M114,52 L122,20" stroke="#000000" stroke-width="1.000000px" />
		</g>
		<g>
			<path fill="none" d=" M102,114 L70,116" stroke="#000000" stroke-width="1.000000px" />
		</g>
	</g>
	<g>
		<rect x="95" y="47" width="10" height="10" fill="#FFFFFF" stroke-width="1.000000px" stroke="#000000" />
		<text x="100" y="52" text-anchor="middle" dominant-baseline="middle" font-family="Arial" font-size="10" fill="#000000"></text>
	</g>
	<g>
		<rect x="98" y="54" width="10" height="10" fill="#FFFFFF" stroke-width="1.000000px" stroke="#000000" />
		<text x="103" y="59" text-anchor="middle" dominant-baseline="middle" font-family="Arial" font-size="10" fill="#000000"></text>
	</g>
	<g>
		<rect x="38" y="115" width="10" height="10" fill="#FFFFFF" stroke-width="1.000000px" stroke="#000000" />
		<text x="43" y="120" text-anchor="middle" dominant-baseline="middle" font-family="Arial" font-size="10" fill="#000000"></text>
	</g>
	<g>
		<rect x="58" y="44" width="10" height="10" fill="#FFFFFF" stroke-width="1.000000px" stroke="#000000" />
		<text x="63" y="49" text-anchor="middle" dominant-baseline="middle" font-family="Arial" font-size="10" fill="#000000"></text>
	</g>
	<g>
		<rect x="19" y="93" width="10" height="10" fill="#FFFFFF" stroke-width="1.000000px" stroke="#000000" />
		<text x="24" y="98" text-anchor="middle" dominant-baseline="middle" font-family="Arial" font-size="10" fill="#000000"></text>
	</g>
	<g>
		<rect x="69" y="27" width="10" height="10" fill="#FFFFFF" stroke-width="1.000000px" stroke="#000000" />
		<text x="74" y="32" text-anchor="middle" dominant-baseline="middle" font-family="Arial" font-size="10" fill="#000000"></text>
	</g>
	<g>
		<rect x="80" y="69" width="10" height="10" fill="#FFFFFF" stroke-width="1.000000px" stroke="#000000" />
		<text x="85" y="74" text-anchor="middle" dominant-baseline="middle" font-family="Arial" font-size="10" fill="#000000"></text>
	</g>
	<g>
		<rect x="49" y="78" width="10" height="10" fill="#FFFFFF" stroke-width="1.000000px" stroke="#000000" />
		<text x="54" y="83" text-anchor="middle" dominant-baseline="middle" font-family="Arial" font-size="10" fill="#000000"></text>
	</g>
	<g>
		<rect x="43" y="71" width="10" height="10" fill="#FFFFFF" stroke-width="1.000000px" stroke="#000000" />
		<text x="48" y="76" text-anchor="middle" dominant-baseline="middle" font-family="Arial" font-size="10" fill="#000000"></text>
	</g>
	<g>
		<rect x="103" y="73" width="10" height="10" fill="#FFFFFF" stroke-width="1.000000px" stroke="#000000" />
		<text x="108" y="78" text-anchor="middle" dominant-baseline="middle" font-family="Arial" font-size="10" fill="#000000"></text>
	</g>
	<g>
		<rect x="97" y="101" width="10" height="10" fill="#FFFFFF" stroke-width="1.000000px" stroke="#000000" />
		<text x="102" y="106" text-anchor="middle" dominant-baseline="middle" font-family="Arial" font-size="10" fill="#000000"></text>
	</g>
	<g>
		<rect x="120" y="84" width="10" height="10" fill="#FFFFFF" stroke-width="1.000000px" stroke="#000000" />
		<text x="125" y="89" text-anchor="middle" dominant-baseline="middle" font-family="Arial" font-size="10" fill="#000000"></text>
	</g>
	<g>
		<rect x="63" y="96" width="10" height="10" fill="#FFFFFF" stroke-width="1.000000px" stroke="#000000" />
		<text x="68" y="101" text-anchor="middle" dominant-baseline="middle" font-family="Arial" font-size="10" fill="#000000"></text>
	</g>
	<g>
		<rect x="61" y="66" width="10" height="10" fill="#FFFFFF" stroke-width="1.000000px" stroke="#000000" />
		<text x="66" y="71" text-anchor="middle" dominant-baseline="middle" font-family="Arial" font-size="10" fill="#000000"></text>
	</g>
	<g>
		<rect x="83" y="79" width="10" height="10" fill="#FFFFFF" stroke-width="1.000000px" stroke="#000000" />
		<text x="88" y="84" text-anchor="middle" dominant-baseline="middle" font-family="Arial" font-size="10" fill="#000000"></text>
	</g>
	<g>
		<rect x="115" y="22" width="10" height="10" fill="#FFFFFF" stroke-width="1.000000px" stroke="#000000" />
		<text x="120" y="27" text-anchor="middle" dominant-baseline="middle" font-family="Arial" font-size="10" fill="#000000"></text>
	</g>
	<g>
		<rect x="73" y="94" width="10" height="10" fill="#FFFFFF" stroke-width="1.000000px" stroke="#000000" />
		<text x="78" y="99" text-anchor="middle" dominant-baseline="middle" font-family="Arial" font-size="10" fill="#000000"></text>
	</g>
	<g>
		<rect x="100" y="81" width="10" height="10" fill="#FFFFFF" stroke-width="1.000000px" stroke="#000000" />
		<text x="105" y="86" text-anchor="middle" dominant-baseline="middle" font-family="Arial" font-size="10" fill="#000000"></text>
	</g>
	<g>
		<rect x="15" y="69" width="10" height="10" fill="#FFFFFF" stroke-width="1.000000px" stroke="#000000" />
		<text x="20" y="74" text-anchor="middle" dominant-baseline="middle" font-family="Arial" font-size="10" fill="#000000"></text>
	</g>
	<g>
		<rect x="87" y="25" width="10" height="10" fill="#FFFFFF" stroke-width="1.000000px" stroke="#000000" />
		<text x="92" y="30" text-anchor="middle" dominant-baseline="middle" font-family="Arial" font-size="10" fill="#000000"></text>
	</g>
	<g>
		<rect x="74" y="57" width="10" height="10" fill="#FFFFFF" stroke-width="1.000000px" stroke="#000000" />
		<text x="79" y="62" text-anchor="middle" dominant-baseline="middle" font-family="Arial" font-size="10" fill="#000000"></text>
	</g>
	<g>
		<rect x="45" y="84" width="10" height="10" fill="#FFFFFF" stroke-width="1.000000px" stroke="#000000" />
		<text x="50" y="89" text-anchor="middle" dominant-baseline="middle" font-family="Arial" font-size="10" fill="#000000"></text>
	</g>
	<g>
		<rect x="109" y="47" width="10" height="10" fill="#FFFFFF" stroke-width="1.000000px" stroke="#000000" />
		<text x="114" y="52" text-anchor="middle" dominant-baseline="middle" font-family="Arial" font-size="10" fill="#000000"></text>
	</g>
	<g>
		<rect x="97" y="109" width="10" height="10" fill="#FFFFFF" stroke-width="1.000000px" stroke="#000000" />
		<text x="102" y="114" text-anchor="middle" dominant-baseline="middle" font-family="Arial" font-size="10" fill="#000000"></text>
	</g>
	<g>
		<rect x="118" y="69" width="10" height="10" fill="#FFFFFF" stroke-width="1.000000px" stroke="#000000" />
		<text x="123" y="74" text-anchor="middle" dominant-baseline="middle" font-family="Arial" font-size="10" fill="#000000"></text>
	</g>
	<g>
		<rect x="67" y="53" width="10" height="10" fill="#FFFFFF" stroke-width="1.000000px" stroke="#000000" />
		<text x="72" y="58" text-anchor="middle" dominant-baseline="middle" font-family="Arial" font-size="10" fill="#000000"></text>
	</g>
	<g>
		<rect x="78" y="36" width="10" height="10" fill="#FFFFFF" stroke-width="1.000000px" stroke="#000000" />
		<text x="83" y="41" text-anchor="middle" dominant-baseline="middle" font-family="Arial" font-size="10" fill="#000000"></text>
	</g>
	<g>
		<rect x="65" y="111" width="10" height="10" fill="#FFFFFF" stroke-width="1.000000px" stroke="#000000" />
		<text x="70" y="116" text-anchor="middle" dominant-baseline="middle" font-family="Arial" font-size="10" fill="#000000"></text>
	</g>
	<g>
		<rect x="17" y="83" width="10" height="10" fill="#FFFFFF" stroke-width="1.000000px" stroke="#000000" />
		<text x="22" y="88" text-anchor="middle" dominant-baseline="middle" font-family="Arial" font-size="10" fill="#000000"></text>
	</g>
	<g>
		<rect x="117" y="15" width="10" height="10" fill="#FFFFFF" stroke-width="1.000000px" stroke="#000000" />
		<text x="122" y="20" text-anchor="middle" dominant-baseline="middle" font-family="Arial" font-size="10" fill="#000000"></text>
	</g>
</svg>
