<?xml version="1.0"?>
<svg xmlns="http://www.w3.org/2000/svg" xmlns:xlink="http://www.w3.org/1999/xlink" xmlns:ev="http://www.w3.org/2001/xml-events" version="1.1" baseProfile="full" viewBox="28.5 28.5 4603 2903">
	<g>
		<g>
			<path fill="none" d=" M3910,40 L3990,360 M3990,360 L3990,680 M3990,680 L2330,1320" stroke="#000000" stroke-width="1.000000px" />
		</g>
		<g>
			<path fill="none" d=" M3910,40 L4030,360 M4030,360 L3050,1000" stroke="#000000" stroke-width="1.000000px" />
		</g>
		<g>
			<path fill="none" d=" M3910,40 L4270,360 M4270,360 L4270,680 M4270,680 L2470,1320" stroke="#000000" stroke-width="1.000000px" />
		</g>
		<g>
			<path fill="none" d=" M3910,40 L4310,360 M4310,360 L4310,1000 M4310,1000 L3690,1640" stroke="#000000" stroke-width="1.000000px" />
		</g>
		<g>
			<path fill="none" d=" M3910,40 L4470,360 M4470,360 L4470,1000 M4470,1000 L3910,1320 M3910,1320 L2990,1960" stroke="#000000" stroke-width="1.000000px" />
		</g>
		<g>
			<path fill="none" d=" M3910,40 L4550,360 M4550,360 L4550,1000 M4550,1000 L3990,1320 M3990,1320 L3380,1960" stroke="#000000" stroke-width="1.000000px" />
		</g>
		<g>
			<path fill="none" d=" M3910,40 L4590,360 M4590,360 L4590,1000 M4590,1000 L4030,1320 M4030,1320 L4030,1640 M4030,1640 L3480,1960 M3480,1960 L1110,2600" stroke="#000000" stroke-width="1.000000px" />
		</g>
		<g>
			<path fill="none" d=" M3910,40 L2870,680" stroke="#000000" stroke-width="1.000000px" />
		</g>
		<g>
			<path fill="none" d=" M3910,40 L3910,680" stroke="#000000" stroke-width="1.000000px" />
		</g>
		<g>
			<path fill="none" d=" M3910,40 L4410,680" stroke="#000000" stroke-width="1.000000px" />
		</g>
		<g>
			<path fill="none" d=" M3910,40 L4630,360 M4630,360 L4630,1000 M4630,1000 L4070,1320 M4070,1320 L4070,1640 M4070,1640 L1130,2280" stroke="#000000" stroke-width="1.000000px" />
		</g>
		<g>
			<path fill="none" d=" M3910,40 L2030,360 M2030,360 L2030,1000 M2030,1000 L2330,1640" stroke="#000000" stroke-width="1.000000px" />
		</g>
		<g>
			<path fill="none" d=" M3910,40 L3550,360 M3550,360 L3550,1000 M3550,1000 L2070,1320 M2070,1320 L70,1640 M70,1640 L70,1960 M70,1960 L1230,2600" stroke="#000000" stroke-width="1.000000px" />
		</g>
		<g>
			<path fill="none" d=" M3910,40 L3590,360 M3590,360 L2950,1000" stroke="#000000" stroke-width="1.000000px" />
		</g>
		<g>
			<path fill="none" d=" M3910,40 L3630,360 M3630,360 L3630,680 M3630,680 L3150,1000 M3150,1000 L2110,1320 M2110,1320 L110,1640 M110,1640 L110,2280 M110,2280 L390,2920" stroke="#000000" stroke-width="1.000000px" />
		</g>
		<g>
			<path fill="none" d=" M3910,40 L3450,360" stroke="#000000" stroke-width="1.000000px" />
		</g>
		<g>
			<path fill="none" d=" M3910,40 L3670,360 M3670,360 L3670,680 M3670,680 L3190,1000 M3190,1000 L2150,1320 M2150,1320 L710,1640 M710,1640 L1330,2280" stroke="#000000" stroke-width="1.000000px" />
		</g>
		<g>
			<path fill="none" d=" M3910,40 L3710,360 M3710,360 L3710,680 M3710,680 L3230,1000 M3230,1000 L2190,1320 M2190,1320 L790,1640 M790,1640 L2930,2280" stroke="#000000" stroke-width="1.000000px" />
		</g>
		<g>
			<path fill="none" d=" M3910,40 L3830,360 M3830,360 L3830,680 M3830,680 L3270,1000 M3270,1000 L830,1640" stroke="#000000" stroke-width="1.000000px" />
		</g>
		<g>
			<path fill="none" d=" M2330,1320 L2990,1960" stroke="#000000" stroke-width="1.000000px" />
		</g>
		<g>
			<path fill="none" d=" M2330,1320 L3380,1960" stroke="#000000" stroke-width="1.000000px" />
		</g>
		<g>
			<path fill="none" d=" M2330,1320 L150,1640 M150,1640 L150,1960 M150,1960 L1110,2600" stroke="#000000" stroke-width="1.000000px" />
		</g>
		<g>
			<path fill="none" d=" M2330,1320 L590,1640 M590,1640 L1130,2280" stroke="#000000" stroke-width="1.000000px" />
		</g>
		<g>
			<path fill="none" d=" M2330,1320 L2330,1640" stroke="#000000" stroke-width="1.000000px" />
		</g>
		<g>
			<path fill="none" d=" M2330,1320 L630,1640 M630,1640 L630,1960 M630,1960 L190,2280 M190,2280 L390,2920" stroke="#000000" stroke-width="1.000000px" />
		</g>
		<g>
			<path fill="none" d=" M2330,1320 L670,1640 M670,1640 L1330,2280" stroke="#000000" stroke-width="1.000000px" />
		</g>
		<g>
			<path fill="none" d=" M2330,1320 L990,1640 M990,1640 L2930,2280" stroke="#000000" stroke-width="1.000000px" />
		</g>
		<g>
			<path fill="none" d=" M2330,1320 L830,1640" stroke="#000000" stroke-width="1.000000px" />
		</g>
		<g>
			<path fill="none" d=" M3050,1000 L2330,1320" stroke="#000000" stroke-width="1.000000px" />
		</g>
		<g>
			<path fill="none" d=" M3050,1000 L2470,1320" stroke="#000000" stroke-width="1.000000px" />
		</g>
		<g>
			<path fill="none" d=" M3050,1000 L1750,1320 M1750,1320 L2990,1960" stroke="#000000" stroke-width="1.000000px" />
		</g>
		<g>
			<path fill="none" d=" M3050,1000 L1790,1320 M1790,1320 L3380,1960" stroke="#000000" stroke-width="1.000000px" />
		</g>
		<g>
			<path fill="none" d=" M3050,1000 L1830,1320 M1830,1320 L1830,1640 M1830,1640 L1130,2280" stroke="#000000" stroke-width="1.000000px" />
		</g>
		<g>
			<path fill="none" d=" M3050,1000 L2330,1640" stroke="#000000" stroke-width="1.000000px" />
		</g>
		<g>
			<path fill="none" d=" M3050,1000 L1870,1320 M1870,1320 L1870,1640 M1870,1640 L1110,1960 M1110,1960 L1230,2600" stroke="#000000" stroke-width="1.000000px" />
		</g>
		<g>
			<path fill="none" d=" M3050,1000 L1910,1320 M1910,1320 L1910,1640 M1910,1640 L1150,1960 M1150,1960 L430,2280 M430,2280 L390,2920" stroke="#000000" stroke-width="1.000000px" />
		</g>
		<g>
			<path fill="none" d=" M3050,1000 L1950,1320 M1950,1320 L1950,1640 M1950,1640 L1330,2280" stroke="#000000" stroke-width="1.000000px" />
		</g>
		<g>
			<path fill="none" d=" M3050,1000 L1990,1320 M1990,1320 L1990,1640 M1990,1640 L2930,2280" stroke="#000000" stroke-width="1.000000px" />
		</g>
		<g>
			<path fill="none" d=" M2470,1320 L3690,1640" stroke="#000000" stroke-width="1.000000px" />
		</g>
		<g>
			<path fill="none" d=" M2470,1320 L2990,1960" stroke="#000000" stroke-width="1.000000px" />
		</g>
		<g>
			<path fill="none" d=" M2470,1320 L3380,1960" stroke="#000000" stroke-width="1.000000px" />
		</g>
		<g>
			<path fill="none" d=" M2470,1320 L1190,1640 M1190,1640 L1130,2280" stroke="#000000" stroke-width="1.000000px" />
		</g>
		<g>
			<path fill="none" d=" M2470,1320 L1230,1640 M1230,1640 L1230,1960 M1230,1960 L1230,2600" stroke="#000000" stroke-width="1.000000px" />
		</g>
		<g>
			<path fill="none" d=" M2470,1320 L1270,1640 M1270,1640 L1270,1960 M1270,1960 L510,2280 M510,2280 L390,2920" stroke="#000000" stroke-width="1.000000px" />
		</g>
		<g>
			<path fill="none" d=" M2470,1320 L1310,1640 M1310,1640 L1330,2280" stroke="#000000" stroke-width="1.000000px" />
		</g>
		<g>
			<path fill="none" d=" M2470,1320 L1390,1640 M1390,1640 L2930,2280" stroke="#000000" stroke-width="1.000000px" />
		</g>
		<g>
			<path fill="none" d=" M3690,1640 L2990,1960" stroke="#000000" stroke-width="1.000000px" />
		</g>
		<g>
			<path fill="none" d=" M3690,1640 L3380,1960" stroke="#000000" stroke-width="1.000000px" />
		</g>
		<g>
			<path fill="none" d=" M3690,1640 L550,1960 M550,1960 L1230,2600" stroke="#000000" stroke-width="1.000000px" />
		</g>
		<g>
			<path fill="none" d=" M3690,1640 L1330,2280" stroke="#000000" stroke-width="1.000000px" />
		</g>
		<g>
			<path fill="none" d=" M3690,1640 L2930,2280" stroke="#000000" stroke-width="1.000000px" />
		</g>
		<g>
			<path fill="none" d=" M3380,1960 L1130,2280" stroke="#000000" stroke-width="1.000000px" />
		</g>
		<g>
			<path fill="none" d=" M3380,1960 L1230,2600" stroke="#000000" stroke-width="1.000000px" />
		</g>
		<g>
			<path fill="none" d=" M3380,1960 L30,2280 M30,2280 L390,2920" stroke="#000000" stroke-width="1.000000px" />
		</g>
		<g>
			<path fill="none" d=" M3380,1960 L1330,2280" stroke="#000000" stroke-width="1.000000px" />
		</g>
		<g>
			<path fill="none" d=" M3380,1960 L2930,2280" stroke="#000000" stroke-width="1.000000px" />
		</g>
		<g>
			<path fill="none" d=" M3450,360 L4230,680 M4230,680 L2330,1320" stroke="#000000" stroke-width="1.000000px" />
		</g>
		<g>
			<path fill="none" d=" M3450,360 L3310,680 M3310,680 L3310,1000 M3310,1000 L2550,1320 M2550,1320 L3380,1960" stroke="#000000" stroke-width="1.000000px" />
		</g>
		<g>
			<path fill="none" d=" M3450,360 L2870,680" stroke="#000000" stroke-width="1.000000px" />
		</g>
		<g>
			<path fill="none" d=" M3450,360 L3910,680" stroke="#000000" stroke-width="1.000000px" />
		</g>
		<g>
			<path fill="none" d=" M3450,360 L4410,680" stroke="#000000" stroke-width="1.000000px" />
		</g>
		<g>
			<path fill="none" d=" M3450,360 L3350,680 M3350,680 L3350,1000 M3350,1000 L2590,1320 M2590,1320 L1550,1640 M1550,1640 L1130,2280" stroke="#000000" stroke-width="1.000000px" />
		</g>
		<g>
			<path fill="none" d=" M3450,360 L3390,680 M3390,680 L3390,1000 M3390,1000 L2630,1320 M2630,1320 L1590,1640 M1590,1640 L870,1960 M870,1960 L1230,2600" stroke="#000000" stroke-width="1.000000px" />
		</g>
		<g>
			<path fill="none" d=" M3450,360 L3430,680 M3430,680 L3430,1000 M3430,1000 L2670,1320 M2670,1320 L1630,1640 M1630,1640 L910,1960 M910,1960 L270,2280 M270,2280 L390,2920" stroke="#000000" stroke-width="1.000000px" />
		</g>
		<g>
			<path fill="none" d=" M3450,360 L3470,680 M3470,680 L3470,1000 M3470,1000 L2710,1320 M2710,1320 L1670,1640 M1670,1640 L1330,2280" stroke="#000000" stroke-width="1.000000px" />
		</g>
		<g>
			<path fill="none" d=" M3450,360 L3510,680 M3510,680 L3510,1000 M3510,1000 L2750,1320 M2750,1320 L1710,1640 M1710,1640 L2930,2280" stroke="#000000" stroke-width="1.000000px" />
		</g>
		<g>
			<path fill="none" d=" M2870,680 L2790,1000 M2790,1000 L2790,1320 M2790,1320 L3380,1960" stroke="#000000" stroke-width="1.000000px" />
		</g>
		<g>
			<path fill="none" d=" M2870,680 L2830,1000 M2830,1000 L2830,1960 M2830,1960 L1230,2600" stroke="#000000" stroke-width="1.000000px" />
		</g>
		<g>
			<path fill="none" d=" M2870,680 L2950,1000" stroke="#000000" stroke-width="1.000000px" />
		</g>
		<g>
			<path fill="none" d=" M2870,680 L2870,1000 M2870,1000 L2870,1640 M2870,1640 L1330,2280" stroke="#000000" stroke-width="1.000000px" />
		</g>
		<g>
			<path fill="none" d=" M2870,680 L2910,1000 M2910,1000 L2910,1640 M2910,1640 L2930,2280" stroke="#000000" stroke-width="1.000000px" />
		</g>
		<g>
			<path fill="none" d=" M3910,680 L2330,1320" stroke="#000000" stroke-width="1.000000px" />
		</g>
		<g>
			<path fill="none" d=" M3910,680 L3050,1000" stroke="#000000" stroke-width="1.000000px" />
		</g>
		<g>
			<path fill="none" d=" M3910,680 L3630,1000 M3630,1000 L3630,1320 M3630,1320 L2990,1960" stroke="#000000" stroke-width="1.000000px" />
		</g>
		<g>
			<path fill="none" d=" M3910,680 L3790,1000 M3790,1000 L3790,1320 M3790,1320 L3380,1960" stroke="#000000" stroke-width="1.000000px" />
		</g>
		<g>
			<path fill="none" d=" M3910,680 L3830,1000 M3830,1000 L3830,1960 M3830,1960 L1230,2600" stroke="#000000" stroke-width="1.000000px" />
		</g>
		<g>
			<path fill="none" d=" M3910,680 L4110,1000 M4110,1000 L4110,1640 M4110,1640 L1330,2280" stroke="#000000" stroke-width="1.000000px" />
		</g>
		<g>
			<path fill="none" d=" M3910,680 L4190,1000 M4190,1000 L4190,1640 M4190,1640 L2930,2280" stroke="#000000" stroke-width="1.000000px" />
		</g>
		<g>
			<path fill="none" d=" M1330,2280 L1230,2600" stroke="#000000" stroke-width="1.000000px" />
		</g>
		<g>
			<path fill="none" d=" M1330,2280 L390,2920" stroke="#000000" stroke-width="1.000000px" />
		</g>
		<g>
			<path fill="none" d=" M1110,2600 L390,2920" stroke="#000000" stroke-width="1.000000px" />
		</g>
		<g>
			<path fill="none" d=" M2930,2280 L1110,2600" stroke="#000000" stroke-width="1.000000px" />
		</g>
		<g>
			<path fill="none" d=" M2930,2280 L390,2920" stroke="#000000" stroke-width="1.000000px" />
		</g>
		<g>
			<path fill="none" d=" M4410,680 L4350,1000 M4350,1000 L4350,1320 M4350,1320 L3380,1960" stroke="#000000" stroke-width="1.000000px" />
		</g>
		<g>
			<path fill="none" d=" M4410,680 L4390,1000 M4390,1000 L4390,1960 M4390,1960 L1230,2600" stroke="#000000" stroke-width="1.000000px" />
		</g>
		<g>
			<path fill="none" d=" M4410,680 L4430,1000 M4430,1000 L4430,1640 M4430,1640 L1330,2280" stroke="#000000" stroke-width="1.000000px" />
		</g>
		<g>
			<path fill="none" d=" M4410,680 L4510,1000 M4510,1000 L4510,1640 M4510,1640 L2930,2280" stroke="#000000" stroke-width="1.000000px" />
		</g>
		<g>
			<path fill="none" d=" M830,1640 L310,1960 M310,1960 L1110,2600" stroke="#000000" stroke-width="1.000000px" />
		</g>
		<g>
			<path fill="none" d=" M830,1640 L350,1960 M350,1960 L350,2280 M350,2280 L390,2920" stroke="#000000" stroke-width="1.000000px" />
		</g>
	</g>
	<g>
		<rect x="3900" y="30" width="20" height="20" fill="#FFFFFF" stroke-width="1.000000px" stroke="#000000" />
		<text x="3910" y="40" text-anchor="middle" dominant-baseline="middle" font-family="Arial" font-size="10" fill="#000000"></text>
	</g>
	<g>
		<rect x="2320" y="1310" width="20" height="20" fill="#FFFFFF" stroke-width="1.000000px" stroke="#000000" />
		<text x="2330" y="1320" text-anchor="middle" dominant-baseline="middle" font-family="Arial" font-size="10" fill="#000000"></text>
	</g>
	<g>
		<rect x="3040" y="990" width="20" height="20" fill="#FFFFFF" stroke-width="1.000000px" stroke="#000000" />
		<text x="3050" y="1000" text-anchor="middle" dominant-baseline="middle" font-family="Arial" font-size="10" fill="#000000"></text>
	</g>
	<g>
		<rect x="2460" y="1310" width="20" height="20" fill="#FFFFFF" stroke-width="1.000000px" stroke="#000000" />
		<text x="2470" y="1320" text-anchor="middle" dominant-baseline="middle" font-family="Arial" font-size="10" fill="#000000"></text>
	</g>
	<g>
		<rect x="3680" y="1630" width="20" height="20" fill="#FFFFFF" stroke-width="1.000000px" stroke="#000000" />
		<text x="3690" y="1640" text-anchor="middle" dominant-baseline="middle" font-family="Arial" font-size="10" fill="#000000"></text>
	</g>
	<g>
		<rect x="2980" y="1950" width="20" height="20" fill="#FFFFFF" stroke-width="1.000000px" stroke="#000000" />
		<text x="2990" y="1960" text-anchor="middle" dominant-baseline="middle" font-family="Arial" font-size="10" fill="#000000"></text>
	</g>
	<g>
		<rect x="3370" y="1950" width="20" height="20" fill="#FFFFFF" stroke-width="1.000000px" stroke="#000000" />
		<text x="3380" y="1960" text-anchor="middle" dominant-baseline="middle" font-family="Arial" font-size="10" fill="#000000"></text>
	</g>
	<g>
		<rect x="1100" y="2590" width="20" height="20" fill="#FFFFFF" stroke-width="1.000000px" stroke="#000000" />
		<text x="1110" y="2600" text-anchor="middle" dominant-baseline="middle" font-family="Arial" font-size="10" fill="#000000"></text>
	</g>
	<g>
		<rect x="2860" y="670" width="20" height="20" fill="#FFFFFF" stroke-width="1.000000px" stroke="#000000" />
		<text x="2870" y="680" text-anchor="middle" dominant-baseline="middle" font-family="Arial" font-size="10" fill="#000000"></text>
	</g>
	<g>
		<rect x="3900" y="670" width="20" height="20" fill="#FFFFFF" stroke-width="1.000000px" stroke="#000000" />
		<text x="3910" y="680" text-anchor="middle" dominant-baseline="middle" font-family="Arial" font-size="10" fill="#000000"></text>
	</g>
	<g>
		<rect x="4400" y="670" width="20" height="20" fill="#FFFFFF" stroke-width="1.000000px" stroke="#000000" />
		<text x="4410" y="680" text-anchor="middle" dominant-baseline="middle" font-family="Arial" font-size="10" fill="#000000"></text>
	</g>
	<g>
		<rect x="1120" y="2270" width="20" height="20" fill="#FFFFFF" stroke-width="1.000000px" stroke="#000000" />
		<text x="1130" y="2280" text-anchor="middle" dominant-baseline="middle" font-family="Arial" font-size="10" fill="#000000"></text>
	</g>
	<g>
		<rect x="2320" y="1630" width="20" height="20" fill="#FFFFFF" stroke-width="1.000000px" stroke="#000000" />
		<text x="2330" y="1640" text-anchor="middle" dominant-baseline="middle" font-family="Arial" font-size="10" fill="#000000"></text>
	</g>
	<g>
		<rect x="1220" y="2590" width="20" height="20" fill="#FFFFFF" stroke-width="1.000000px" stroke="#000000" />
		<text x="1230" y="2600" text-anchor="middle" dominant-baseline="middle" font-family="Arial" font-size="10" fill="#000000"></text>
	</g>
	<g>
		<rect x="2940" y="990" width="20" height="20" fill="#FFFFFF" stroke-width="1.000000px" stroke="#000000" />
		<text x="2950" y="1000" text-anchor="middle" dominant-baseline="middle" font-family="Arial" font-size="10" fill="#000000"></text>
	</g>
	<g>
		<rect x="380" y="2910" width="20" height="20" fill="#FFFFFF" stroke-width="1.000000px" stroke="#000000" />
		<text x="390" y="2920" text-anchor="middle" dominant-baseline="middle" font-family="Arial" font-size="10" fill="#000000"></text>
	</g>
	<g>
		<rect x="3440" y="350" width="20" height="20" fill="#FFFFFF" stroke-width="1.000000px" stroke="#000000" />
		<text x="3450" y="360" text-anchor="middle" dominant-baseline="middle" font-family="Arial" font-size="10" fill="#000000"></text>
	</g>
	<g>
		<rect x="1320" y="2270" width="20" height="20" fill="#FFFFFF" stroke-width="1.000000px" stroke="#000000" />
		<text x="1330" y="2280" text-anchor="middle" dominant-baseline="middle" font-family="Arial" font-size="10" fill="#000000"></text>
	</g>
	<g>
		<rect x="2920" y="2270" width="20" height="20" fill="#FFFFFF" stroke-width="1.000000px" stroke="#000000" />
		<text x="2930" y="2280" text-anchor="middle" dominant-baseline="middle" font-family="Arial" font-size="10" fill="#000000"></text>
	</g>
	<g>
		<rect x="820" y="1630" width="20" height="20" fill="#FFFFFF" stroke-width="1.000000px" stroke="#000000" />
		<text x="830" y="1640" text-anchor="middle" dominant-baseline="middle" font-family="Arial" font-size="10" fill="#000000"></text>
	</g>
</svg>
