<?xml version="1.0"?>
<svg xmlns="http://www.w3.org/2000/svg" xmlns:xlink="http://www.w3.org/1999/xlink" xmlns:ev="http://www.w3.org/2001/xml-events" version="1.1" baseProfile="full" viewBox="28.5 28.5 2643 4326.33">
	<g>
		<g>
			<path fill="none" d=" M1930,90 L1930,140" stroke="#000000" stroke-width="1.000000px" />
		</g>
		<g>
			<path fill="none" d=" M1930,140 L2590,406.667" stroke="#000000" stroke-width="1.000000px" />
		</g>
		<g>
			<path fill="none" d=" M1930,140 L1710,406.667 M1710,406.667 L1710,940 M1710,940 L1270,1106.67 M1270,1106.67 L1150,1546.67" stroke="#000000" stroke-width="1.000000px" />
		</g>
		<g>
			<path fill="none" d=" M1930,140 L1790,406.667 M1790,406.667 L1790,500 M1790,500 L1770,940" stroke="#000000" stroke-width="1.000000px" />
		</g>
		<g>
			<path fill="none" d=" M1930,140 L1830,406.667 M1830,406.667 L1750,773.333" stroke="#000000" stroke-width="1.000000px" />
		</g>
		<g>
			<path fill="none" d=" M1930,140 L1870,406.667 M1870,406.667 L1870,940 M1870,940 L1430,1106.67 M1430,1106.67 L950,1420 M950,1420 L950,2186.67 M950,2186.67 L350,2506.67 M350,2506.67 L610,3146.67" stroke="#000000" stroke-width="1.000000px" />
		</g>
		<g>
			<path fill="none" d=" M1930,140 L1950,406.667 M1950,406.667 L1950,1106.67 M1950,1106.67 L1070,1420 M1070,1420 L1070,2186.67 M1070,2186.67 L470,2506.67 M470,2506.67 L470,2826.67 M470,2826.67 L610,3466.67" stroke="#000000" stroke-width="1.000000px" />
		</g>
		<g>
			<path fill="none" d=" M1930,140 L1990,406.667 M1990,406.667 L1990,2186.67 M1990,2186.67 L550,2506.67 M550,2506.67 L550,2826.67 M550,2826.67 L490,3466.67" stroke="#000000" stroke-width="1.000000px" />
		</g>
		<g>
			<path fill="none" d=" M1930,140 L2310,406.667 M2310,406.667 L2310,3146.67 M2310,3146.67 L520,3786.67" stroke="#000000" stroke-width="1.000000px" />
		</g>
		<g>
			<path fill="none" d=" M1930,140 L2670,406.667 M2670,406.667 L2670,2186.67 M2670,2186.67 L190,2506.67 M190,2506.67 L190,3466.67 M190,3466.67 L240,3883.33" stroke="#000000" stroke-width="1.000000px" />
		</g>
		<g>
			<path fill="none" d=" M1930,140 L1910,406.667 M1910,406.667 L1910,940 M1910,940 L1470,1106.67 M1470,1106.67 L990,1420 M990,1420 L990,1546.67 M990,1546.67 L910,1866.67 M910,1866.67 L910,2186.67 M910,2186.67 L230,2506.67 M230,2506.67 L230,3466.67 M230,3466.67 L460,3883.33" stroke="#000000" stroke-width="1.000000px" />
		</g>
		<g>
			<path fill="none" d=" M1930,140 L1670,406.667 M1670,406.667 L1670,940 M1670,940 L1230,1106.67 M1230,1106.67 L710,1420 M710,1420 L710,3786.67 M710,3786.67 L350,4023.33" stroke="#000000" stroke-width="1.000000px" />
		</g>
		<g>
			<path fill="none" d=" M1930,140 L2550,406.667 M2550,406.667 L2550,773.333 M2550,773.333 L2350,940 M2350,940 L2350,1866.67 M2350,1866.67 L2070,2186.67 M2070,2186.67 L2070,3883.33 M2070,3883.33 L350,4343.33" stroke="#000000" stroke-width="1.000000px" />
		</g>
		<g>
			<path fill="none" d=" M2590,406.667 L2370,500" stroke="#000000" stroke-width="1.000000px" />
		</g>
		<g>
			<path fill="none" d=" M2590,406.667 L2630,500 M2630,500 L2630,773.333 M2630,773.333 L2450,940 M2450,940 L2450,1420 M2450,1420 L2450,1866.67" stroke="#000000" stroke-width="1.000000px" />
		</g>
		<g>
			<path fill="none" d=" M2370,500 L1750,773.333" stroke="#000000" stroke-width="1.000000px" />
		</g>
		<g>
			<path fill="none" d=" M2370,500 L2510,773.333 M2510,773.333 L2510,1866.67 M2510,1866.67 L2150,2186.67 M2150,2186.67 L2150,2506.67 M2150,2506.67 L610,3146.67" stroke="#000000" stroke-width="1.000000px" />
		</g>
		<g>
			<path fill="none" d=" M2370,500 L1610,773.333" stroke="#000000" stroke-width="1.000000px" />
		</g>
		<g>
			<path fill="none" d=" M2370,500 L2590,773.333 M2590,773.333 L2590,1866.67 M2590,1866.67 L110,2506.67" stroke="#000000" stroke-width="1.000000px" />
		</g>
		<g>
			<path fill="none" d=" M1750,773.333 L1310,940 M1310,940 L1310,1106.67 M1310,1106.67 L870,1420 M870,1420 L870,2186.67 M870,2186.67 L150,2506.67 M150,2506.67 L610,3146.67" stroke="#000000" stroke-width="1.000000px" />
		</g>
		<g>
			<path fill="none" d=" M1750,773.333 L1510,940 M1510,940 L1510,1106.67 M1510,1106.67 L1030,1420 M1030,1420 L1030,2186.67 M1030,2186.67 L390,2506.67 M390,2506.67 L390,3146.67 M390,3146.67 L290,3786.67" stroke="#000000" stroke-width="1.000000px" />
		</g>
		<g>
			<path fill="none" d=" M610,3146.67 L610,3466.67" stroke="#000000" stroke-width="1.000000px" />
		</g>
		<g>
			<path fill="none" d=" M610,3146.67 L490,3466.67" stroke="#000000" stroke-width="1.000000px" />
		</g>
		<g>
			<path fill="none" d=" M610,3466.67 L290,3786.67" stroke="#000000" stroke-width="1.000000px" />
		</g>
		<g>
			<path fill="none" d=" M290,3786.67 L240,3883.33" stroke="#000000" stroke-width="1.000000px" />
		</g>
		<g>
			<path fill="none" d=" M240,3883.33 L350,4023.33" stroke="#000000" stroke-width="1.000000px" />
		</g>
		<g>
			<path fill="none" d=" M240,3883.33 L350,4343.33" stroke="#000000" stroke-width="1.000000px" />
		</g>
		<g>
			<path fill="none" d=" M350,4023.33 L350,4343.33" stroke="#000000" stroke-width="1.000000px" />
		</g>
		<g>
			<path fill="none" d=" M290,2826.67 L350,3146.67 M350,3146.67 L350,3786.67 M350,3786.67 L350,4023.33" stroke="#000000" stroke-width="1.000000px" />
		</g>
		<g>
			<path fill="none" d=" M50,2186.67 L110,2506.67" stroke="#000000" stroke-width="1.000000px" />
		</g>
		<g>
			<path fill="none" d=" M50,2186.67 L290,2506.67" stroke="#000000" stroke-width="1.000000px" />
		</g>
		<g>
			<path fill="none" d=" M50,2186.67 L110,2826.67" stroke="#000000" stroke-width="1.000000px" />
		</g>
		<g>
			<path fill="none" d=" M50,2186.67 L290,2826.67" stroke="#000000" stroke-width="1.000000px" />
		</g>
		<g>
			<path fill="none" d=" M110,2506.67 L110,2826.67" stroke="#000000" stroke-width="1.000000px" />
		</g>
		<g>
			<path fill="none" d=" M110,2826.67 L490,3466.67" stroke="#000000" stroke-width="1.000000px" />
		</g>
		<g>
			<path fill="none" d=" M490,3466.67 L520,3786.67" stroke="#000000" stroke-width="1.000000px" />
		</g>
		<g>
			<path fill="none" d=" M490,3466.67 L460,3883.33" stroke="#000000" stroke-width="1.000000px" />
		</g>
		<g>
			<path fill="none" d=" M520,3786.67 L460,3883.33" stroke="#000000" stroke-width="1.000000px" />
		</g>
		<g>
			<path fill="none" d=" M1570,1106.67 L790,1420 M790,1420 L790,2186.67 M790,2186.67 L70,2506.67 M70,2506.67 L70,3146.67 M70,3146.67 L520,3786.67" stroke="#000000" stroke-width="1.000000px" />
		</g>
		<g>
			<path fill="none" d=" M1770,940 L1350,1106.67" stroke="#000000" stroke-width="1.000000px" />
		</g>
		<g>
			<path fill="none" d=" M1770,940 L1570,1106.67" stroke="#000000" stroke-width="1.000000px" />
		</g>
		<g>
			<path fill="none" d=" M1770,940 L1370,1420" stroke="#000000" stroke-width="1.000000px" />
		</g>
		<g>
			<path fill="none" d=" M1350,1106.67 L1370,1420" stroke="#000000" stroke-width="1.000000px" />
		</g>
		<g>
			<path fill="none" d=" M1350,1106.67 L750,1420 M750,1420 L750,2186.67 M750,2186.67 L30,2506.67 M30,2506.67 L30,3146.67 M30,3146.67 L290,3786.67" stroke="#000000" stroke-width="1.000000px" />
		</g>
		<g>
			<path fill="none" d=" M1370,1420 L1150,1546.67" stroke="#000000" stroke-width="1.000000px" />
		</g>
		<g>
			<path fill="none" d=" M1370,1420 L1110,1546.67 M1110,1546.67 L1110,2186.67 M1110,2186.67 L610,2826.67" stroke="#000000" stroke-width="1.000000px" />
		</g>
		<g>
			<path fill="none" d=" M1150,1546.67 L2450,1866.67" stroke="#000000" stroke-width="1.000000px" />
		</g>
		<g>
			<path fill="none" d=" M1150,1546.67 L2390,1866.67 M2390,1866.67 L2110,2186.67 M2110,2186.67 L610,2826.67" stroke="#000000" stroke-width="1.000000px" />
		</g>
		<g>
			<path fill="none" d=" M2450,1866.67 L2190,2186.67 M2190,2186.67 L2190,2826.67 M2190,2826.67 L610,3466.67" stroke="#000000" stroke-width="1.000000px" />
		</g>
		<g>
			<path fill="none" d=" M2450,1866.67 L2270,2186.67 M2270,2186.67 L2270,2826.67 M2270,2826.67 L490,3466.67" stroke="#000000" stroke-width="1.000000px" />
		</g>
		<g>
			<path fill="none" d=" M2450,1866.67 L50,2186.67" stroke="#000000" stroke-width="1.000000px" />
		</g>
		<g>
			<path fill="none" d=" M1590,940 L1190,1106.67 M1190,1106.67 L1190,1420 M1190,1420 L2450,1866.67" stroke="#000000" stroke-width="1.000000px" />
		</g>
		<g>
			<path fill="none" d=" M1590,940 L1630,1106.67" stroke="#000000" stroke-width="1.000000px" />
		</g>
		<g>
			<path fill="none" d=" M1630,1106.67 L2030,1420 M2030,1420 L2030,2186.67 M2030,2186.67 L670,2506.67 M670,2506.67 L610,3146.67" stroke="#000000" stroke-width="1.000000px" />
		</g>
		<g>
			<path fill="none" d=" M1610,773.333 L1770,940" stroke="#000000" stroke-width="1.000000px" />
		</g>
		<g>
			<path fill="none" d=" M1610,773.333 L1570,1106.67" stroke="#000000" stroke-width="1.000000px" />
		</g>
		<g>
			<path fill="none" d=" M1610,773.333 L1590,940" stroke="#000000" stroke-width="1.000000px" />
		</g>
		<g>
			<path fill="none" d=" M1610,773.333 L1630,1106.67" stroke="#000000" stroke-width="1.000000px" />
		</g>
		<g>
			<path fill="none" d=" M610,2826.67 L610,3146.67" stroke="#000000" stroke-width="1.000000px" />
		</g>
		<g>
			<path fill="none" d=" M290,2506.67 L610,2826.67" stroke="#000000" stroke-width="1.000000px" />
		</g>
		<g>
			<path fill="none" d=" M290,2506.67 L290,2826.67" stroke="#000000" stroke-width="1.000000px" />
		</g>
		<g>
			<path fill="none" d=" M1930,40 L1930,90" stroke="#000000" stroke-width="1.000000px" />
		</g>
	</g>
	<g>
		<rect x="1920" y="30" width="20" height="20" fill="#FFFFFF" stroke-width="1.000000px" stroke="#000000" />
		<text x="1930" y="40" text-anchor="middle" dominant-baseline="middle" font-family="Arial" font-size="10" fill="#000000"></text>
	</g>
	<g>
		<rect x="1920" y="80" width="20" height="20" fill="#FFFFFF" stroke-width="1.000000px" stroke="#000000" />
		<text x="1930" y="90" text-anchor="middle" dominant-baseline="middle" font-family="Arial" font-size="10" fill="#000000"></text>
	</g>
	<g>
		<rect x="1920" y="130" width="20" height="20" fill="#FFFFFF" stroke-width="1.000000px" stroke="#000000" />
		<text x="1930" y="140" text-anchor="middle" dominant-baseline="middle" font-family="Arial" font-size="10" fill="#000000"></text>
	</g>
	<g>
		<rect x="2580" y="396.66666666666663" width="20" height="20" fill="#FFFFFF" stroke-width="1.000000px" stroke="#000000" />
		<text x="2590" y="406.66666666666663" text-anchor="middle" dominant-baseline="middle" font-family="Arial" font-size="10" fill="#000000"></text>
	</g>
	<g>
		<rect x="1140" y="1536.6666666666665" width="20" height="20" fill="#FFFFFF" stroke-width="1.000000px" stroke="#000000" />
		<text x="1150" y="1546.6666666666665" text-anchor="middle" dominant-baseline="middle" font-family="Arial" font-size="10" fill="#000000"></text>
	</g>
	<g>
		<rect x="1760" y="929.99999999999989" width="20" height="20" fill="#FFFFFF" stroke-width="1.000000px" stroke="#000000" />
		<text x="1770" y="939.99999999999989" text-anchor="middle" dominant-baseline="middle" font-family="Arial" font-size="10" fill="#000000"></text>
	</g>
	<g>
		<rect x="2360" y="489.99999999999994" width="20" height="20" fill="#FFFFFF" stroke-width="1.000000px" stroke="#000000" />
		<text x="2370" y="499.99999999999994" text-anchor="middle" dominant-baseline="middle" font-family="Arial" font-size="10" fill="#000000"></text>
	</g>
	<g>
		<rect x="2440" y="1856.6666666666665" width="20" height="20" fill="#FFFFFF" stroke-width="1.000000px" stroke="#000000" />
		<text x="2450" y="1866.6666666666665" text-anchor="middle" dominant-baseline="middle" font-family="Arial" font-size="10" fill="#000000"></text>
	</g>
	<g>
		<rect x="600" y="2816.6666666666665" width="20" height="20" fill="#FFFFFF" stroke-width="1.000000px" stroke="#000000" />
		<text x="610" y="2826.6666666666665" text-anchor="middle" dominant-baseline="middle" font-family="Arial" font-size="10" fill="#000000"></text>
	</g>
	<g>
		<rect x="1340" y="1096.6666666666665" width="20" height="20" fill="#FFFFFF" stroke-width="1.000000px" stroke="#000000" />
		<text x="1350" y="1106.6666666666665" text-anchor="middle" dominant-baseline="middle" font-family="Arial" font-size="10" fill="#000000"></text>
	</g>
	<g>
		<rect x="1560" y="1096.6666666666665" width="20" height="20" fill="#FFFFFF" stroke-width="1.000000px" stroke="#000000" />
		<text x="1570" y="1106.6666666666665" text-anchor="middle" dominant-baseline="middle" font-family="Arial" font-size="10" fill="#000000"></text>
	</g>
	<g>
		<rect x="1740" y="763.33333333333326" width="20" height="20" fill="#FFFFFF" stroke-width="1.000000px" stroke="#000000" />
		<text x="1750" y="773.33333333333326" text-anchor="middle" dominant-baseline="middle" font-family="Arial" font-size="10" fill="#000000"></text>
	</g>
	<g>
		<rect x="600" y="3136.6666666666665" width="20" height="20" fill="#FFFFFF" stroke-width="1.000000px" stroke="#000000" />
		<text x="610" y="3146.6666666666665" text-anchor="middle" dominant-baseline="middle" font-family="Arial" font-size="10" fill="#000000"></text>
	</g>
	<g>
		<rect x="1600" y="763.33333333333326" width="20" height="20" fill="#FFFFFF" stroke-width="1.000000px" stroke="#000000" />
		<text x="1610" y="773.33333333333326" text-anchor="middle" dominant-baseline="middle" font-family="Arial" font-size="10" fill="#000000"></text>
	</g>
	<g>
		<rect x="600" y="3456.6666666666665" width="20" height="20" fill="#FFFFFF" stroke-width="1.000000px" stroke="#000000" />
		<text x="610" y="3466.6666666666665" text-anchor="middle" dominant-baseline="middle" font-family="Arial" font-size="10" fill="#000000"></text>
	</g>
	<g>
		<rect x="480" y="3456.6666666666665" width="20" height="20" fill="#FFFFFF" stroke-width="1.000000px" stroke="#000000" />
		<text x="490" y="3466.6666666666665" text-anchor="middle" dominant-baseline="middle" font-family="Arial" font-size="10" fill="#000000"></text>
	</g>
	<g>
		<rect x="40" y="2176.6666666666665" width="20" height="20" fill="#FFFFFF" stroke-width="1.000000px" stroke="#000000" />
		<text x="50" y="2186.6666666666665" text-anchor="middle" dominant-baseline="middle" font-family="Arial" font-size="10" fill="#000000"></text>
	</g>
	<g>
		<rect x="1360" y="1409.9999999999998" width="20" height="20" fill="#FFFFFF" stroke-width="1.000000px" stroke="#000000" />
		<text x="1370" y="1419.9999999999998" text-anchor="middle" dominant-baseline="middle" font-family="Arial" font-size="10" fill="#000000"></text>
	</g>
	<g>
		<rect x="280" y="3776.6666666666665" width="20" height="20" fill="#FFFFFF" stroke-width="1.000000px" stroke="#000000" />
		<text x="290" y="3786.6666666666665" text-anchor="middle" dominant-baseline="middle" font-family="Arial" font-size="10" fill="#000000"></text>
	</g>
	<g>
		<rect x="510" y="3776.6666666666665" width="20" height="20" fill="#FFFFFF" stroke-width="1.000000px" stroke="#000000" />
		<text x="520" y="3786.6666666666665" text-anchor="middle" dominant-baseline="middle" font-family="Arial" font-size="10" fill="#000000"></text>
	</g>
	<g>
		<rect x="1580" y="929.99999999999989" width="20" height="20" fill="#FFFFFF" stroke-width="1.000000px" stroke="#000000" />
		<text x="1590" y="939.99999999999989" text-anchor="middle" dominant-baseline="middle" font-family="Arial" font-size="10" fill="#000000"></text>
	</g>
	<g>
		<rect x="100" y="2496.6666666666665" width="20" height="20" fill="#FFFFFF" stroke-width="1.000000px" stroke="#000000" />
		<text x="110" y="2506.6666666666665" text-anchor="middle" dominant-baseline="middle" font-family="Arial" font-size="10" fill="#000000"></text>
	</g>
	<g>
		<rect x="280" y="2496.6666666666665" width="20" height="20" fill="#FFFFFF" stroke-width="1.000000px" stroke="#000000" />
		<text x="290" y="2506.6666666666665" text-anchor="middle" dominant-baseline="middle" font-family="Arial" font-size="10" fill="#000000"></text>
	</g>
	<g>
		<rect x="230" y="3873.333333333333" width="20" height="20" fill="#FFFFFF" stroke-width="1.000000px" stroke="#000000" />
		<text x="240" y="3883.333333333333" text-anchor="middle" dominant-baseline="middle" font-family="Arial" font-size="10" fill="#000000"></text>
	</g>
	<g>
		<rect x="450" y="3873.333333333333" width="20" height="20" fill="#FFFFFF" stroke-width="1.000000px" stroke="#000000" />
		<text x="460" y="3883.333333333333" text-anchor="middle" dominant-baseline="middle" font-family="Arial" font-size="10" fill="#000000"></text>
	</g>
	<g>
		<rect x="1620" y="1096.6666666666665" width="20" height="20" fill="#FFFFFF" stroke-width="1.000000px" stroke="#000000" />
		<text x="1630" y="1106.6666666666665" text-anchor="middle" dominant-baseline="middle" font-family="Arial" font-size="10" fill="#000000"></text>
	</g>
	<g>
		<rect x="100" y="2816.6666666666665" width="20" height="20" fill="#FFFFFF" stroke-width="1.000000px" stroke="#000000" />
		<text x="110" y="2826.6666666666665" text-anchor="middle" dominant-baseline="middle" font-family="Arial" font-size="10" fill="#000000"></text>
	</g>
	<g>
		<rect x="280" y="2816.6666666666665" width="20" height="20" fill="#FFFFFF" stroke-width="1.000000px" stroke="#000000" />
		<text x="290" y="2826.6666666666665" text-anchor="middle" dominant-baseline="middle" font-family="Arial" font-size="10" fill="#000000"></text>
	</g>
	<g>
		<rect x="340" y="4013.333333333333" width="20" height="20" fill="#FFFFFF" stroke-width="1.000000px" stroke="#000000" />
		<text x="350" y="4023.333333333333" text-anchor="middle" dominant-baseline="middle" font-family="Arial" font-size="10" fill="#000000"></text>
	</g>
	<g>
		<rect x="340" y="4333.333333333333" width="20" height="20" fill="#FFFFFF" stroke-width="1.000000px" stroke="#000000" />
		<text x="350" y="4343.333333333333" text-anchor="middle" dominant-baseline="middle" font-family="Arial" font-size="10" fill="#000000"></text>
	</g>
</svg>
