<?xml version="1.0"?>
<svg xmlns="http://www.w3.org/2000/svg" xmlns:xlink="http://www.w3.org/1999/xlink" xmlns:ev="http://www.w3.org/2001/xml-events" version="1.1" baseProfile="full" viewBox="28.5 28.5 7923 4119.67">
	<g>
		<g>
			<path fill="none" d=" M5710,2280 L4290,2600 M4290,2600 L3150,2920 M3150,2920 L1230,3560" stroke="#000000" stroke-width="1.000000px" />
		</g>
		<g>
			<path fill="none" d=" M5710,2280 L4350,2600" stroke="#000000" stroke-width="1.000000px" />
		</g>
		<g>
			<path fill="none" d=" M5710,2280 L4330,2920" stroke="#000000" stroke-width="1.000000px" />
		</g>
		<g>
			<path fill="none" d=" M5710,2280 L4650,2600" stroke="#000000" stroke-width="1.000000px" />
		</g>
		<g>
			<path fill="none" d=" M4330,2920 L1230,3560" stroke="#000000" stroke-width="1.000000px" />
		</g>
		<g>
			<path fill="none" d=" M4330,2920 L1110,3240 M1110,3240 L400,3816.67" stroke="#000000" stroke-width="1.000000px" />
		</g>
		<g>
			<path fill="none" d=" M4330,2920 L2850,3240" stroke="#000000" stroke-width="1.000000px" />
		</g>
		<g>
			<path fill="none" d=" M4330,2920 L3430,3240" stroke="#000000" stroke-width="1.000000px" />
		</g>
		<g>
			<path fill="none" d=" M400,3816.67 L850,4136.67" stroke="#000000" stroke-width="1.000000px" />
		</g>
		<g>
			<path fill="none" d=" M4350,2600 L4190,2920 M4190,2920 L910,3240 M910,3240 L910,3560 M910,3560 L850,4136.67" stroke="#000000" stroke-width="1.000000px" />
		</g>
		<g>
			<path fill="none" d=" M4350,2600 L4230,2920 M4230,2920 L1010,3560" stroke="#000000" stroke-width="1.000000px" />
		</g>
		<g>
			<path fill="none" d=" M3430,3240 L1010,3560" stroke="#000000" stroke-width="1.000000px" />
		</g>
		<g>
			<path fill="none" d=" M4650,2600 L3430,3240" stroke="#000000" stroke-width="1.000000px" />
		</g>
		<g>
			<path fill="none" d=" M4650,2600 L2970,3240" stroke="#000000" stroke-width="1.000000px" />
		</g>
		<g>
			<path fill="none" d=" M4650,2600 L4270,2920 M4270,2920 L1470,3560" stroke="#000000" stroke-width="1.000000px" />
		</g>
		<g>
			<path fill="none" d=" M2970,3240 L1470,3560" stroke="#000000" stroke-width="1.000000px" />
		</g>
		<g>
			<path fill="none" d=" M2610,2600 L1150,2920 M1150,2920 L1150,3560 M1150,3560 L850,4136.67" stroke="#000000" stroke-width="1.000000px" />
		</g>
		<g>
			<path fill="none" d=" M2610,2600 L1390,2920 M1390,2920 L1470,3560" stroke="#000000" stroke-width="1.000000px" />
		</g>
		<g>
			<path fill="none" d=" M2610,2600 L4410,2920" stroke="#000000" stroke-width="1.000000px" />
		</g>
		<g>
			<path fill="none" d=" M4410,2920 L1230,3560" stroke="#000000" stroke-width="1.000000px" />
		</g>
		<g>
			<path fill="none" d=" M4410,2920 L1010,3560" stroke="#000000" stroke-width="1.000000px" />
		</g>
		<g>
			<path fill="none" d=" M4410,2920 L4070,3240" stroke="#000000" stroke-width="1.000000px" />
		</g>
		<g>
			<path fill="none" d=" M4070,3240 L1230,3560" stroke="#000000" stroke-width="1.000000px" />
		</g>
		<g>
			<path fill="none" d=" M4070,3240 L1350,3560" stroke="#000000" stroke-width="1.000000px" />
		</g>
		<g>
			<path fill="none" d=" M3870,2280 L3350,2600 M3350,2600 L3350,2920 M3350,2920 L950,3240 M950,3240 L950,3560 M950,3560 L850,4136.67" stroke="#000000" stroke-width="1.000000px" />
		</g>
		<g>
			<path fill="none" d=" M3870,2280 L2610,2600" stroke="#000000" stroke-width="1.000000px" />
		</g>
		<g>
			<path fill="none" d=" M3870,2280 L4410,2920" stroke="#000000" stroke-width="1.000000px" />
		</g>
		<g>
			<path fill="none" d=" M3870,2280 L2450,2600" stroke="#000000" stroke-width="1.000000px" />
		</g>
		<g>
			<path fill="none" d=" M3870,2280 L2970,2920" stroke="#000000" stroke-width="1.000000px" />
		</g>
		<g>
			<path fill="none" d=" M3870,2280 L3550,2600 M3550,2600 L3550,2920 M3550,2920 L1350,3560" stroke="#000000" stroke-width="1.000000px" />
		</g>
		<g>
			<path fill="none" d=" M3870,2280 L3490,2600" stroke="#000000" stroke-width="1.000000px" />
		</g>
		<g>
			<path fill="none" d=" M2450,2600 L2910,2920 M2910,2920 L1230,3560" stroke="#000000" stroke-width="1.000000px" />
		</g>
		<g>
			<path fill="none" d=" M2450,2600 L4330,2920" stroke="#000000" stroke-width="1.000000px" />
		</g>
		<g>
			<path fill="none" d=" M2450,2600 L2210,2920 M2210,2920 L1010,3560" stroke="#000000" stroke-width="1.000000px" />
		</g>
		<g>
			<path fill="none" d=" M2450,2600 L3430,3240" stroke="#000000" stroke-width="1.000000px" />
		</g>
		<g>
			<path fill="none" d=" M2450,2600 L2970,3240" stroke="#000000" stroke-width="1.000000px" />
		</g>
		<g>
			<path fill="none" d=" M2450,2600 L2850,2920" stroke="#000000" stroke-width="1.000000px" />
		</g>
		<g>
			<path fill="none" d=" M2450,2600 L2970,2920" stroke="#000000" stroke-width="1.000000px" />
		</g>
		<g>
			<path fill="none" d=" M2450,2600 L4070,3240" stroke="#000000" stroke-width="1.000000px" />
		</g>
		<g>
			<path fill="none" d=" M2450,2600 L2250,2920 M2250,2920 L1350,3560" stroke="#000000" stroke-width="1.000000px" />
		</g>
		<g>
			<path fill="none" d=" M2850,2920 L2850,3240" stroke="#000000" stroke-width="1.000000px" />
		</g>
		<g>
			<path fill="none" d=" M2850,2920 L2970,3240" stroke="#000000" stroke-width="1.000000px" />
		</g>
		<g>
			<path fill="none" d=" M2850,2920 L690,3560" stroke="#000000" stroke-width="1.000000px" />
		</g>
		<g>
			<path fill="none" d=" M2850,3240 L1230,3560" stroke="#000000" stroke-width="1.000000px" />
		</g>
		<g>
			<path fill="none" d=" M2850,3240 L690,3560" stroke="#000000" stroke-width="1.000000px" />
		</g>
		<g>
			<path fill="none" d=" M690,3560 L400,3816.67" stroke="#000000" stroke-width="1.000000px" />
		</g>
		<g>
			<path fill="none" d=" M4910,1960 L1910,2280 M1910,2280 L1910,2600 M1910,2600 L230,2920 M230,2920 L1230,3560" stroke="#000000" stroke-width="1.000000px" />
		</g>
		<g>
			<path fill="none" d=" M4910,1960 L4650,2600" stroke="#000000" stroke-width="1.000000px" />
		</g>
		<g>
			<path fill="none" d=" M4910,1960 L3870,2280" stroke="#000000" stroke-width="1.000000px" />
		</g>
		<g>
			<path fill="none" d=" M4910,1960 L1710,2280 M1710,2280 L1710,2600 M1710,2600 L270,2920 M270,2920 L690,3560" stroke="#000000" stroke-width="1.000000px" />
		</g>
		<g>
			<path fill="none" d=" M4910,1960 L1870,2280 M1870,2280 L2850,2920" stroke="#000000" stroke-width="1.000000px" />
		</g>
		<g>
			<path fill="none" d=" M4910,1960 L2450,2600" stroke="#000000" stroke-width="1.000000px" />
		</g>
		<g>
			<path fill="none" d=" M4910,1960 L1790,2280 M1790,2280 L2970,2920" stroke="#000000" stroke-width="1.000000px" />
		</g>
		<g>
			<path fill="none" d=" M2970,2920 L2970,3240" stroke="#000000" stroke-width="1.000000px" />
		</g>
		<g>
			<path fill="none" d=" M2970,2920 L690,3560" stroke="#000000" stroke-width="1.000000px" />
		</g>
		<g>
			<path fill="none" d=" M5530,680 L2550,1000 M2550,1000 L2550,2280 M2550,2280 L3410,2920" stroke="#000000" stroke-width="1.000000px" />
		</g>
		<g>
			<path fill="none" d=" M5530,680 L2590,1000 M2590,1000 L2590,1960 M2590,1960 L190,2280 M190,2280 L190,2600 M190,2600 L370,3240" stroke="#000000" stroke-width="1.000000px" />
		</g>
		<g>
			<path fill="none" d=" M5530,680 L5550,1000 M5550,1000 L6690,1640" stroke="#000000" stroke-width="1.000000px" />
		</g>
		<g>
			<path fill="none" d=" M5530,680 L5510,1000 M5510,1000 L5510,1960 M5510,1960 L2610,2600" stroke="#000000" stroke-width="1.000000px" />
		</g>
		<g>
			<path fill="none" d=" M5530,680 L7110,1000 M7110,1000 L7110,1320 M7110,1320 L4910,1960" stroke="#000000" stroke-width="1.000000px" />
		</g>
		<g>
			<path fill="none" d=" M5530,680 L7050,1000" stroke="#000000" stroke-width="1.000000px" />
		</g>
		<g>
			<path fill="none" d=" M3410,2920 L190,3240 M190,3240 L190,3560 M190,3560 L850,4136.67" stroke="#000000" stroke-width="1.000000px" />
		</g>
		<g>
			<path fill="none" d=" M3490,2600 L3470,2920 M3470,2920 L1010,3560" stroke="#000000" stroke-width="1.000000px" />
		</g>
		<g>
			<path fill="none" d=" M3490,2600 L3510,2920 M3510,2920 L1470,3560" stroke="#000000" stroke-width="1.000000px" />
		</g>
		<g>
			<path fill="none" d=" M3490,2600 L3410,2920" stroke="#000000" stroke-width="1.000000px" />
		</g>
		<g>
			<path fill="none" d=" M3490,2600 L2310,2920" stroke="#000000" stroke-width="1.000000px" />
		</g>
		<g>
			<path fill="none" d=" M2310,2920 L30,3240 M30,3240 L30,3560 M30,3560 L850,4136.67" stroke="#000000" stroke-width="1.000000px" />
		</g>
		<g>
			<path fill="none" d=" M2310,2920 L1470,3560" stroke="#000000" stroke-width="1.000000px" />
		</g>
		<g>
			<path fill="none" d=" M2310,2920 L370,3240" stroke="#000000" stroke-width="1.000000px" />
		</g>
		<g>
			<path fill="none" d=" M370,3240 L1230,3560" stroke="#000000" stroke-width="1.000000px" />
		</g>
		<g>
			<path fill="none" d=" M7550,680 L7350,1000 M7350,1000 L5670,1320 M5670,1320 L5670,1640 M5670,1640 L5070,1960 M5070,1960 L2070,2280 M2070,2280 L2070,2600 M2070,2600 L2850,3240" stroke="#000000" stroke-width="1.000000px" />
		</g>
		<g>
			<path fill="none" d=" M7550,680 L7390,1000 M7390,1000 L5710,1320 M5710,1320 L5710,1640 M5710,1640 L5110,1960 M5110,1960 L2110,2280 M2110,2280 L2110,2600 M2110,2600 L370,3240" stroke="#000000" stroke-width="1.000000px" />
		</g>
		<g>
			<path fill="none" d=" M7550,680 L7430,1000 M7430,1000 L6690,1640" stroke="#000000" stroke-width="1.000000px" />
		</g>
		<g>
			<path fill="none" d=" M6690,1640 L5150,1960 M5150,1960 L3630,2280 M3630,2280 L4330,2920" stroke="#000000" stroke-width="1.000000px" />
		</g>
		<g>
			<path fill="none" d=" M6690,1640 L5190,1960 M5190,1960 L3950,2280 M3950,2280 L3950,2600 M3950,2600 L3430,3240" stroke="#000000" stroke-width="1.000000px" />
		</g>
		<g>
			<path fill="none" d=" M6690,1640 L5230,1960 M5230,1960 L4110,2280 M4110,2280 L4410,2920" stroke="#000000" stroke-width="1.000000px" />
		</g>
		<g>
			<path fill="none" d=" M7210,1320 L6790,1640 M6790,1640 L5710,2280" stroke="#000000" stroke-width="1.000000px" />
		</g>
		<g>
			<path fill="none" d=" M7210,1320 L6690,1640" stroke="#000000" stroke-width="1.000000px" />
		</g>
		<g>
			<path fill="none" d=" M7210,1320 L6750,1640 M6750,1640 L6110,1960 M6110,1960 L2610,2600" stroke="#000000" stroke-width="1.000000px" />
		</g>
		<g>
			<path fill="none" d=" M7210,1320 L6970,1640" stroke="#000000" stroke-width="1.000000px" />
		</g>
		<g>
			<path fill="none" d=" M6970,1640 L6310,1960 M6310,1960 L4350,2600" stroke="#000000" stroke-width="1.000000px" />
		</g>
		<g>
			<path fill="none" d=" M6970,1640 L6350,1960 M6350,1960 L2670,2280 M2670,2280 L4330,2920" stroke="#000000" stroke-width="1.000000px" />
		</g>
		<g>
			<path fill="none" d=" M6970,1640 L4910,1960" stroke="#000000" stroke-width="1.000000px" />
		</g>
		<g>
			<path fill="none" d=" M7050,1000 L6510,1320 M6510,1320 L6510,1640 M6510,1640 L5710,2280" stroke="#000000" stroke-width="1.000000px" />
		</g>
		<g>
			<path fill="none" d=" M7050,1000 L7030,1320 M7030,1320 L7030,1960 M7030,1960 L4650,2600" stroke="#000000" stroke-width="1.000000px" />
		</g>
		<g>
			<path fill="none" d=" M7050,1000 L7070,1320 M7070,1320 L7070,1960 M7070,1960 L4550,2280 M4550,2280 L4150,2600 M4150,2600 L4070,3240" stroke="#000000" stroke-width="1.000000px" />
		</g>
		<g>
			<path fill="none" d=" M7050,1000 L7150,1320" stroke="#000000" stroke-width="1.000000px" />
		</g>
		<g>
			<path fill="none" d=" M7050,1000 L7210,1320" stroke="#000000" stroke-width="1.000000px" />
		</g>
		<g>
			<path fill="none" d=" M7150,1320 L6590,1640 M6590,1640 L5710,2280" stroke="#000000" stroke-width="1.000000px" />
		</g>
		<g>
			<path fill="none" d=" M7150,1320 L6630,1640 M6630,1640 L4830,1960 M4830,1960 L1670,2280 M1670,2280 L1670,2920 M1670,2920 L1470,3560" stroke="#000000" stroke-width="1.000000px" />
		</g>
		<g>
			<path fill="none" d=" M7490,40 L7270,360 M7270,360 L7270,1320 M7270,1320 L6830,1640 M6830,1640 L6190,1960 M6190,1960 L3710,2280 M3710,2280 L3710,2600 M3710,2600 L3310,2920 M3310,2920 L870,3240 M870,3240 L870,3560 M870,3560 L850,4136.67" stroke="#000000" stroke-width="1.000000px" />
		</g>
		<g>
			<path fill="none" d=" M7490,40 L5530,680" stroke="#000000" stroke-width="1.000000px" />
		</g>
		<g>
			<path fill="none" d=" M7490,40 L7310,360 M7310,360 L7310,1320 M7310,1320 L6870,1640 M6870,1640 L6230,1960 M6230,1960 L4030,2280 M4030,2280 L3410,2920" stroke="#000000" stroke-width="1.000000px" />
		</g>
		<g>
			<path fill="none" d=" M7490,40 L7790,360 M7790,360 L7790,1320 M7790,1320 L6910,1640 M6910,1640 L3870,2280" stroke="#000000" stroke-width="1.000000px" />
		</g>
		<g>
			<path fill="none" d=" M7490,40 L7830,360 M7830,360 L7830,680 M7830,680 L7150,1320" stroke="#000000" stroke-width="1.000000px" />
		</g>
		<g>
			<path fill="none" d=" M7490,40 L7950,360 M7950,360 L7950,680 M7950,680 L7870,1000 M7870,1000 L7870,1960 M7870,1960 L4590,2280 M4590,2280 L4590,2920 M4590,2920 L1350,3560" stroke="#000000" stroke-width="1.000000px" />
		</g>
		<g>
			<path fill="none" d=" M7490,40 L7490,360" stroke="#000000" stroke-width="1.000000px" />
		</g>
		<g>
			<path fill="none" d=" M7490,360 L7910,680 M7910,680 L7910,1960 M7910,1960 L4350,2600" stroke="#000000" stroke-width="1.000000px" />
		</g>
		<g>
			<path fill="none" d=" M7490,360 L7410,680 M7410,680 L7150,1000 M7150,1000 L5590,1320 M5590,1320 L5590,1640 M5590,1640 L4990,1960 M4990,1960 L4650,2600" stroke="#000000" stroke-width="1.000000px" />
		</g>
		<g>
			<path fill="none" d=" M7490,360 L7450,680 M7450,680 L7190,1000 M7190,1000 L5630,1320 M5630,1320 L5630,1640 M5630,1640 L5030,1960 M5030,1960 L2030,2280 M2030,2280 L1830,2600 M1830,2600 L3430,3240" stroke="#000000" stroke-width="1.000000px" />
		</g>
		<g>
			<path fill="none" d=" M7490,360 L5530,680" stroke="#000000" stroke-width="1.000000px" />
		</g>
		<g>
			<path fill="none" d=" M7490,360 L7490,680 M7490,680 L7210,1320" stroke="#000000" stroke-width="1.000000px" />
		</g>
		<g>
			<path fill="none" d=" M7490,360 L7550,680" stroke="#000000" stroke-width="1.000000px" />
		</g>
		<g>
			<path fill="none" d=" M7490,360 L7650,680" stroke="#000000" stroke-width="1.000000px" />
		</g>
		<g>
			<path fill="none" d=" M7650,680 L7470,1000 M7470,1000 L5790,1320 M5790,1320 L5790,1640 M5790,1640 L5710,2280" stroke="#000000" stroke-width="1.000000px" />
		</g>
		<g>
			<path fill="none" d=" M7650,680 L7510,1000 M7510,1000 L5830,1320 M5830,1320 L5830,1640 M5830,1640 L5310,1960 M5310,1960 L2150,2280 M2150,2280 L2150,2600 M2150,2600 L1550,2920 M1550,2920 L310,3240 M310,3240 L400,3816.67" stroke="#000000" stroke-width="1.000000px" />
		</g>
		<g>
			<path fill="none" d=" M7650,680 L7550,1000 M7550,1000 L5870,1320 M5870,1320 L5870,1640 M5870,1640 L5350,1960 M5350,1960 L2190,2280 M2190,2280 L2190,2600 M2190,2600 L2970,3240" stroke="#000000" stroke-width="1.000000px" />
		</g>
		<g>
			<path fill="none" d=" M7650,680 L7590,1000 M7590,1000 L6690,1640" stroke="#000000" stroke-width="1.000000px" />
		</g>
		<g>
			<path fill="none" d=" M7650,680 L7630,1000 M7630,1000 L5950,1320 M5950,1320 L5950,1640 M5950,1640 L5390,1960 M5390,1960 L2610,2600" stroke="#000000" stroke-width="1.000000px" />
		</g>
		<g>
			<path fill="none" d=" M7650,680 L7670,1000 M7670,1000 L5990,1320 M5990,1320 L5990,1640 M5990,1640 L5430,1960 M5430,1960 L2270,2280 M2270,2280 L2850,2920" stroke="#000000" stroke-width="1.000000px" />
		</g>
		<g>
			<path fill="none" d=" M7650,680 L7710,1000 M7710,1000 L6030,1320 M6030,1320 L6030,1640 M6030,1640 L5470,1960 M5470,1960 L2310,2280 M2310,2280 L2310,2600 M2310,2600 L1630,2920 M1630,2920 L1350,3560" stroke="#000000" stroke-width="1.000000px" />
		</g>
		<g>
			<path fill="none" d=" M7650,680 L7750,1000 M7750,1000 L6070,1320 M6070,1320 L6070,1960 M6070,1960 L2350,2280 M2350,2280 L2310,2920" stroke="#000000" stroke-width="1.000000px" />
		</g>
		<g>
			<path fill="none" d=" M3210,1640 L2710,1960 M2710,1960 L4350,2600" stroke="#000000" stroke-width="1.000000px" />
		</g>
		<g>
			<path fill="none" d=" M3210,1640 L2750,1960 M2750,1960 L4650,2600" stroke="#000000" stroke-width="1.000000px" />
		</g>
		<g>
			<path fill="none" d=" M3210,1640 L2790,1960 M2790,1960 L2790,2920 M2790,2920 L630,3240 M630,3240 L150,3560 M150,3560 L850,4136.67" stroke="#000000" stroke-width="1.000000px" />
		</g>
		<g>
			<path fill="none" d=" M3210,1640 L3190,1960 M3190,1960 L3190,2600 M3190,2600 L3430,3240" stroke="#000000" stroke-width="1.000000px" />
		</g>
		<g>
			<path fill="none" d=" M3210,1640 L3230,1960 M3230,1960 L3230,2920 M3230,2920 L1470,3560" stroke="#000000" stroke-width="1.000000px" />
		</g>
		<g>
			<path fill="none" d=" M3210,1640 L4910,1960" stroke="#000000" stroke-width="1.000000px" />
		</g>
		<g>
			<path fill="none" d=" M3210,1640 L3590,1960 M3590,1960 L3590,2280 M3590,2280 L4410,2920" stroke="#000000" stroke-width="1.000000px" />
		</g>
		<g>
			<path fill="none" d=" M3210,1640 L3870,2280" stroke="#000000" stroke-width="1.000000px" />
		</g>
		<g>
			<path fill="none" d=" M4750,1640 L5710,2280" stroke="#000000" stroke-width="1.000000px" />
		</g>
		<g>
			<path fill="none" d=" M4750,1640 L4710,1960 M4710,1960 L4710,3560 M4710,3560 L850,4136.67" stroke="#000000" stroke-width="1.000000px" />
		</g>
		<g>
			<path fill="none" d=" M4750,1640 L4910,1960" stroke="#000000" stroke-width="1.000000px" />
		</g>
		<g>
			<path fill="none" d=" M6430,1960 L5710,2280" stroke="#000000" stroke-width="1.000000px" />
		</g>
		<g>
			<path fill="none" d=" M6430,1960 L3790,2280 M3790,2280 L3270,2600 M3270,2600 L3270,2920 M3270,2920 L830,3240 M830,3240 L830,3560 M830,3560 L850,4136.67" stroke="#000000" stroke-width="1.000000px" />
		</g>
		<g>
			<path fill="none" d=" M6430,1960 L4070,2280 M4070,2280 L4410,2920" stroke="#000000" stroke-width="1.000000px" />
		</g>
		<g>
			<path fill="none" d=" M6430,1960 L3870,2280" stroke="#000000" stroke-width="1.000000px" />
		</g>
		<g>
			<path fill="none" d=" M6430,1960 L3990,2280 M3990,2280 L3990,2600 M3990,2600 L4070,3240" stroke="#000000" stroke-width="1.000000px" />
		</g>
		<g>
			<path fill="none" d=" M6430,1960 L4470,2280 M4470,2280 L4470,2920 M4470,2920 L1350,3560" stroke="#000000" stroke-width="1.000000px" />
		</g>
		<g>
			<path fill="none" d=" M3750,2280 L4350,2600" stroke="#000000" stroke-width="1.000000px" />
		</g>
		<g>
			<path fill="none" d=" M3750,2280 L1750,2600 M1750,2600 L1750,2920 M1750,2920 L590,3240 M590,3240 L400,3816.67" stroke="#000000" stroke-width="1.000000px" />
		</g>
	</g>
	<g>
		<rect x="5700" y="2270" width="20" height="20" fill="#FFFFFF" stroke-width="1.000000px" stroke="#000000" />
		<text x="5710" y="2280" text-anchor="middle" dominant-baseline="middle" font-family="Arial" font-size="10" fill="#000000"></text>
	</g>
	<g>
		<rect x="1220" y="3550" width="20" height="20" fill="#FFFFFF" stroke-width="1.000000px" stroke="#000000" />
		<text x="1230" y="3560" text-anchor="middle" dominant-baseline="middle" font-family="Arial" font-size="10" fill="#000000"></text>
	</g>
	<g>
		<rect x="4340" y="2590" width="20" height="20" fill="#FFFFFF" stroke-width="1.000000px" stroke="#000000" />
		<text x="4350" y="2600" text-anchor="middle" dominant-baseline="middle" font-family="Arial" font-size="10" fill="#000000"></text>
	</g>
	<g>
		<rect x="4320" y="2910" width="20" height="20" fill="#FFFFFF" stroke-width="1.000000px" stroke="#000000" />
		<text x="4330" y="2920" text-anchor="middle" dominant-baseline="middle" font-family="Arial" font-size="10" fill="#000000"></text>
	</g>
	<g>
		<rect x="4640" y="2590" width="20" height="20" fill="#FFFFFF" stroke-width="1.000000px" stroke="#000000" />
		<text x="4650" y="2600" text-anchor="middle" dominant-baseline="middle" font-family="Arial" font-size="10" fill="#000000"></text>
	</g>
	<g>
		<rect x="840" y="4126.6666666666661" width="20" height="20" fill="#FFFFFF" stroke-width="1.000000px" stroke="#000000" />
		<text x="850" y="4136.6666666666661" text-anchor="middle" dominant-baseline="middle" font-family="Arial" font-size="10" fill="#000000"></text>
	</g>
	<g>
		<rect x="1000" y="3550" width="20" height="20" fill="#FFFFFF" stroke-width="1.000000px" stroke="#000000" />
		<text x="1010" y="3560" text-anchor="middle" dominant-baseline="middle" font-family="Arial" font-size="10" fill="#000000"></text>
	</g>
	<g>
		<rect x="390" y="3806.6666666666665" width="20" height="20" fill="#FFFFFF" stroke-width="1.000000px" stroke="#000000" />
		<text x="400" y="3816.6666666666665" text-anchor="middle" dominant-baseline="middle" font-family="Arial" font-size="10" fill="#000000"></text>
	</g>
	<g>
		<rect x="2840" y="3230" width="20" height="20" fill="#FFFFFF" stroke-width="1.000000px" stroke="#000000" />
		<text x="2850" y="3240" text-anchor="middle" dominant-baseline="middle" font-family="Arial" font-size="10" fill="#000000"></text>
	</g>
	<g>
		<rect x="3420" y="3230" width="20" height="20" fill="#FFFFFF" stroke-width="1.000000px" stroke="#000000" />
		<text x="3430" y="3240" text-anchor="middle" dominant-baseline="middle" font-family="Arial" font-size="10" fill="#000000"></text>
	</g>
	<g>
		<rect x="2960" y="3230" width="20" height="20" fill="#FFFFFF" stroke-width="1.000000px" stroke="#000000" />
		<text x="2970" y="3240" text-anchor="middle" dominant-baseline="middle" font-family="Arial" font-size="10" fill="#000000"></text>
	</g>
	<g>
		<rect x="1460" y="3550" width="20" height="20" fill="#FFFFFF" stroke-width="1.000000px" stroke="#000000" />
		<text x="1470" y="3560" text-anchor="middle" dominant-baseline="middle" font-family="Arial" font-size="10" fill="#000000"></text>
	</g>
	<g>
		<rect x="5520" y="670" width="20" height="20" fill="#FFFFFF" stroke-width="1.000000px" stroke="#000000" />
		<text x="5530" y="680" text-anchor="middle" dominant-baseline="middle" font-family="Arial" font-size="10" fill="#000000"></text>
	</g>
	<g>
		<rect x="3400" y="2910" width="20" height="20" fill="#FFFFFF" stroke-width="1.000000px" stroke="#000000" />
		<text x="3410" y="2920" text-anchor="middle" dominant-baseline="middle" font-family="Arial" font-size="10" fill="#000000"></text>
	</g>
	<g>
		<rect x="360" y="3230" width="20" height="20" fill="#FFFFFF" stroke-width="1.000000px" stroke="#000000" />
		<text x="370" y="3240" text-anchor="middle" dominant-baseline="middle" font-family="Arial" font-size="10" fill="#000000"></text>
	</g>
	<g>
		<rect x="6680" y="1630" width="20" height="20" fill="#FFFFFF" stroke-width="1.000000px" stroke="#000000" />
		<text x="6690" y="1640" text-anchor="middle" dominant-baseline="middle" font-family="Arial" font-size="10" fill="#000000"></text>
	</g>
	<g>
		<rect x="2600" y="2590" width="20" height="20" fill="#FFFFFF" stroke-width="1.000000px" stroke="#000000" />
		<text x="2610" y="2600" text-anchor="middle" dominant-baseline="middle" font-family="Arial" font-size="10" fill="#000000"></text>
	</g>
	<g>
		<rect x="4900" y="1950" width="20" height="20" fill="#FFFFFF" stroke-width="1.000000px" stroke="#000000" />
		<text x="4910" y="1960" text-anchor="middle" dominant-baseline="middle" font-family="Arial" font-size="10" fill="#000000"></text>
	</g>
	<g>
		<rect x="7040" y="990" width="20" height="20" fill="#FFFFFF" stroke-width="1.000000px" stroke="#000000" />
		<text x="7050" y="1000" text-anchor="middle" dominant-baseline="middle" font-family="Arial" font-size="10" fill="#000000"></text>
	</g>
	<g>
		<rect x="4400" y="2910" width="20" height="20" fill="#FFFFFF" stroke-width="1.000000px" stroke="#000000" />
		<text x="4410" y="2920" text-anchor="middle" dominant-baseline="middle" font-family="Arial" font-size="10" fill="#000000"></text>
	</g>
	<g>
		<rect x="3860" y="2270" width="20" height="20" fill="#FFFFFF" stroke-width="1.000000px" stroke="#000000" />
		<text x="3870" y="2280" text-anchor="middle" dominant-baseline="middle" font-family="Arial" font-size="10" fill="#000000"></text>
	</g>
	<g>
		<rect x="680" y="3550" width="20" height="20" fill="#FFFFFF" stroke-width="1.000000px" stroke="#000000" />
		<text x="690" y="3560" text-anchor="middle" dominant-baseline="middle" font-family="Arial" font-size="10" fill="#000000"></text>
	</g>
	<g>
		<rect x="2840" y="2910" width="20" height="20" fill="#FFFFFF" stroke-width="1.000000px" stroke="#000000" />
		<text x="2850" y="2920" text-anchor="middle" dominant-baseline="middle" font-family="Arial" font-size="10" fill="#000000"></text>
	</g>
	<g>
		<rect x="2440" y="2590" width="20" height="20" fill="#FFFFFF" stroke-width="1.000000px" stroke="#000000" />
		<text x="2450" y="2600" text-anchor="middle" dominant-baseline="middle" font-family="Arial" font-size="10" fill="#000000"></text>
	</g>
	<g>
		<rect x="2960" y="2910" width="20" height="20" fill="#FFFFFF" stroke-width="1.000000px" stroke="#000000" />
		<text x="2970" y="2920" text-anchor="middle" dominant-baseline="middle" font-family="Arial" font-size="10" fill="#000000"></text>
	</g>
	<g>
		<rect x="4060" y="3230" width="20" height="20" fill="#FFFFFF" stroke-width="1.000000px" stroke="#000000" />
		<text x="4070" y="3240" text-anchor="middle" dominant-baseline="middle" font-family="Arial" font-size="10" fill="#000000"></text>
	</g>
	<g>
		<rect x="7140" y="1310" width="20" height="20" fill="#FFFFFF" stroke-width="1.000000px" stroke="#000000" />
		<text x="7150" y="1320" text-anchor="middle" dominant-baseline="middle" font-family="Arial" font-size="10" fill="#000000"></text>
	</g>
	<g>
		<rect x="7200" y="1310" width="20" height="20" fill="#FFFFFF" stroke-width="1.000000px" stroke="#000000" />
		<text x="7210" y="1320" text-anchor="middle" dominant-baseline="middle" font-family="Arial" font-size="10" fill="#000000"></text>
	</g>
	<g>
		<rect x="1340" y="3550" width="20" height="20" fill="#FFFFFF" stroke-width="1.000000px" stroke="#000000" />
		<text x="1350" y="3560" text-anchor="middle" dominant-baseline="middle" font-family="Arial" font-size="10" fill="#000000"></text>
	</g>
	<g>
		<rect x="6420" y="1950" width="20" height="20" fill="#FFFFFF" stroke-width="1.000000px" stroke="#000000" />
		<text x="6430" y="1960" text-anchor="middle" dominant-baseline="middle" font-family="Arial" font-size="10" fill="#000000"></text>
	</g>
	<g>
		<rect x="3480" y="2590" width="20" height="20" fill="#FFFFFF" stroke-width="1.000000px" stroke="#000000" />
		<text x="3490" y="2600" text-anchor="middle" dominant-baseline="middle" font-family="Arial" font-size="10" fill="#000000"></text>
	</g>
	<g>
		<rect x="7480" y="350" width="20" height="20" fill="#FFFFFF" stroke-width="1.000000px" stroke="#000000" />
		<text x="7490" y="360" text-anchor="middle" dominant-baseline="middle" font-family="Arial" font-size="10" fill="#000000"></text>
	</g>
	<g>
		<rect x="7540" y="670" width="20" height="20" fill="#FFFFFF" stroke-width="1.000000px" stroke="#000000" />
		<text x="7550" y="680" text-anchor="middle" dominant-baseline="middle" font-family="Arial" font-size="10" fill="#000000"></text>
	</g>
	<g>
		<rect x="7640" y="670" width="20" height="20" fill="#FFFFFF" stroke-width="1.000000px" stroke="#000000" />
		<text x="7650" y="680" text-anchor="middle" dominant-baseline="middle" font-family="Arial" font-size="10" fill="#000000"></text>
	</g>
	<g>
		<rect x="6960" y="1630" width="20" height="20" fill="#FFFFFF" stroke-width="1.000000px" stroke="#000000" />
		<text x="6970" y="1640" text-anchor="middle" dominant-baseline="middle" font-family="Arial" font-size="10" fill="#000000"></text>
	</g>
	<g>
		<rect x="2300" y="2910" width="20" height="20" fill="#FFFFFF" stroke-width="1.000000px" stroke="#000000" />
		<text x="2310" y="2920" text-anchor="middle" dominant-baseline="middle" font-family="Arial" font-size="10" fill="#000000"></text>
	</g>
	<g>
		<rect x="3740" y="2270" width="20" height="20" fill="#FFFFFF" stroke-width="1.000000px" stroke="#000000" />
		<text x="3750" y="2280" text-anchor="middle" dominant-baseline="middle" font-family="Arial" font-size="10" fill="#000000"></text>
	</g>
	<g>
		<rect x="3200" y="1630" width="20" height="20" fill="#FFFFFF" stroke-width="1.000000px" stroke="#000000" />
		<text x="3210" y="1640" text-anchor="middle" dominant-baseline="middle" font-family="Arial" font-size="10" fill="#000000"></text>
	</g>
	<g>
		<rect x="7480" y="30" width="20" height="20" fill="#FFFFFF" stroke-width="1.000000px" stroke="#000000" />
		<text x="7490" y="40" text-anchor="middle" dominant-baseline="middle" font-family="Arial" font-size="10" fill="#000000"></text>
	</g>
	<g>
		<rect x="4740" y="1630" width="20" height="20" fill="#FFFFFF" stroke-width="1.000000px" stroke="#000000" />
		<text x="4750" y="1640" text-anchor="middle" dominant-baseline="middle" font-family="Arial" font-size="10" fill="#000000"></text>
	</g>
</svg>
