<?xml version="1.0"?>
<svg xmlns="http://www.w3.org/2000/svg" xmlns:xlink="http://www.w3.org/1999/xlink" xmlns:ev="http://www.w3.org/2001/xml-events" version="1.1" baseProfile="full" viewBox="28.5 28.5 823 404.667">
	<g>
		<g>
			<path fill="none" d=" M680,40 L460,133.333" stroke="#000000" stroke-width="1.000000px" />
		</g>
		<g>
			<path fill="none" d=" M680,40 L680,133.333" stroke="#000000" stroke-width="1.000000px" />
		</g>
		<g>
			<path fill="none" d=" M680,40 L720,133.333" stroke="#000000" stroke-width="1.000000px" />
		</g>
		<g>
			<path fill="none" d=" M460,133.333 L220,233.333" stroke="#000000" stroke-width="1.000000px" />
		</g>
		<g>
			<path fill="none" d=" M460,133.333 L460,233.333" stroke="#000000" stroke-width="1.000000px" />
		</g>
		<g>
			<path fill="none" d=" M460,133.333 L500,233.333" stroke="#000000" stroke-width="1.000000px" />
		</g>
		<g>
			<path fill="none" d=" M220,233.333 L120,311.667" stroke="#000000" stroke-width="1.000000px" />
		</g>
		<g>
			<path fill="none" d=" M220,233.333 L320,311.667" stroke="#000000" stroke-width="1.000000px" />
		</g>
		<g>
			<path fill="none" d=" M120,311.667 L80,371.667" stroke="#000000" stroke-width="1.000000px" />
		</g>
		<g>
			<path fill="none" d=" M120,311.667 L120,371.667" stroke="#000000" stroke-width="1.000000px" />
		</g>
		<g>
			<path fill="none" d=" M120,311.667 L160,371.667" stroke="#000000" stroke-width="1.000000px" />
		</g>
		<g>
			<path fill="none" d=" M80,371.667 L40,421.667" stroke="#000000" stroke-width="1.000000px" />
		</g>
		<g>
			<path fill="none" d=" M80,371.667 L80,421.667" stroke="#000000" stroke-width="1.000000px" />
		</g>
		<g>
			<path fill="none" d=" M80,371.667 L120,421.667" stroke="#000000" stroke-width="1.000000px" />
		</g>
		<g>
			<path fill="none" d=" M320,311.667 L200,371.667" stroke="#000000" stroke-width="1.000000px" />
		</g>
		<g>
			<path fill="none" d=" M320,311.667 L320,371.667" stroke="#000000" stroke-width="1.000000px" />
		</g>
		<g>
			<path fill="none" d=" M320,311.667 L390,371.667" stroke="#000000" stroke-width="1.000000px" />
		</g>
		<g>
			<path fill="none" d=" M200,371.667 L160,421.667" stroke="#000000" stroke-width="1.000000px" />
		</g>
		<g>
			<path fill="none" d=" M200,371.667 L200,421.667" stroke="#000000" stroke-width="1.000000px" />
		</g>
		<g>
			<path fill="none" d=" M200,371.667 L240,421.667" stroke="#000000" stroke-width="1.000000px" />
		</g>
		<g>
			<path fill="none" d=" M320,371.667 L280,421.667" stroke="#000000" stroke-width="1.000000px" />
		</g>
		<g>
			<path fill="none" d=" M320,371.667 L320,421.667" stroke="#000000" stroke-width="1.000000px" />
		</g>
		<g>
			<path fill="none" d=" M320,371.667 L360,421.667" stroke="#000000" stroke-width="1.000000px" />
		</g>
		<g>
			<path fill="none" d=" M680,133.333 L640,233.333" stroke="#000000" stroke-width="1.000000px" />
		</g>
		<g>
			<path fill="none" d=" M680,133.333 L680,233.333" stroke="#000000" stroke-width="1.000000px" />
		</g>
		<g>
			<path fill="none" d=" M680,133.333 L720,233.333" stroke="#000000" stroke-width="1.000000px" />
		</g>
		<g>
			<path fill="none" d=" M640,233.333 L465,311.667" stroke="#000000" stroke-width="1.000000px" />
		</g>
		<g>
			<path fill="none" d=" M640,233.333 L640,311.667" stroke="#000000" stroke-width="1.000000px" />
		</g>
		<g>
			<path fill="none" d=" M640,233.333 L800,311.667" stroke="#000000" stroke-width="1.000000px" />
		</g>
		<g>
			<path fill="none" d=" M465,311.667 L430,371.667" stroke="#000000" stroke-width="1.000000px" />
		</g>
		<g>
			<path fill="none" d=" M465,311.667 L500,371.667" stroke="#000000" stroke-width="1.000000px" />
		</g>
		<g>
			<path fill="none" d=" M430,371.667 L400,421.667" stroke="#000000" stroke-width="1.000000px" />
		</g>
		<g>
			<path fill="none" d=" M430,371.667 L440,421.667" stroke="#000000" stroke-width="1.000000px" />
		</g>
		<g>
			<path fill="none" d=" M500,371.667 L480,421.667" stroke="#000000" stroke-width="1.000000px" />
		</g>
		<g>
			<path fill="none" d=" M500,371.667 L520,421.667" stroke="#000000" stroke-width="1.000000px" />
		</g>
		<g>
			<path fill="none" d=" M640,311.667 L580,371.667" stroke="#000000" stroke-width="1.000000px" />
		</g>
		<g>
			<path fill="none" d=" M640,311.667 L640,371.667" stroke="#000000" stroke-width="1.000000px" />
		</g>
		<g>
			<path fill="none" d=" M640,311.667 L680,371.667" stroke="#000000" stroke-width="1.000000px" />
		</g>
		<g>
			<path fill="none" d=" M580,371.667 L560,421.667" stroke="#000000" stroke-width="1.000000px" />
		</g>
		<g>
			<path fill="none" d=" M580,371.667 L600,421.667" stroke="#000000" stroke-width="1.000000px" />
		</g>
		<g>
			<path fill="none" d=" M640,371.667 L640,421.667" stroke="#000000" stroke-width="1.000000px" />
		</g>
		<g>
			<path fill="none" d=" M640,371.667 L680,421.667" stroke="#000000" stroke-width="1.000000px" />
		</g>
		<g>
			<path fill="none" d=" M800,311.667 L740,371.667" stroke="#000000" stroke-width="1.000000px" />
		</g>
		<g>
			<path fill="none" d=" M800,311.667 L800,371.667" stroke="#000000" stroke-width="1.000000px" />
		</g>
		<g>
			<path fill="none" d=" M800,311.667 L840,371.667" stroke="#000000" stroke-width="1.000000px" />
		</g>
		<g>
			<path fill="none" d=" M740,371.667 L720,421.667" stroke="#000000" stroke-width="1.000000px" />
		</g>
		<g>
			<path fill="none" d=" M740,371.667 L760,421.667" stroke="#000000" stroke-width="1.000000px" />
		</g>
		<g>
			<path fill="none" d=" M800,371.667 L800,421.667" stroke="#000000" stroke-width="1.000000px" />
		</g>
		<g>
			<path fill="none" d=" M800,371.667 L840,421.667" stroke="#000000" stroke-width="1.000000px" />
		</g>
	</g>
	<g>
		<rect x="670" y="30" width="20" height="20" fill="#FFFFFF" stroke-width="1.000000px" stroke="#000000" />
		<text x="680" y="40" text-anchor="middle" dominant-baseline="middle" font-family="Arial" font-size="10" fill="#000000"></text>
	</g>
	<g>
		<rect x="450" y="123.33333333333331" width="20" height="20" fill="#FFFFFF" stroke-width="1.000000px" stroke="#000000" />
		<text x="460" y="133.33333333333331" text-anchor="middle" dominant-baseline="middle" font-family="Arial" font-size="10" fill="#000000"></text>
	</g>
	<g>
		<rect x="670" y="123.33333333333331" width="20" height="20" fill="#FFFFFF" stroke-width="1.000000px" stroke="#000000" />
		<text x="680" y="133.33333333333331" text-anchor="middle" dominant-baseline="middle" font-family="Arial" font-size="10" fill="#000000"></text>
	</g>
	<g>
		<rect x="710" y="123.33333333333331" width="20" height="20" fill="#FFFFFF" stroke-width="1.000000px" stroke="#000000" />
		<text x="720" y="133.33333333333331" text-anchor="middle" dominant-baseline="middle" font-family="Arial" font-size="10" fill="#000000"></text>
	</g>
	<g>
		<rect x="210" y="223.33333333333331" width="20" height="20" fill="#FFFFFF" stroke-width="1.000000px" stroke="#000000" />
		<text x="220" y="233.33333333333331" text-anchor="middle" dominant-baseline="middle" font-family="Arial" font-size="10" fill="#000000"></text>
	</g>
	<g>
		<rect x="450" y="223.33333333333331" width="20" height="20" fill="#FFFFFF" stroke-width="1.000000px" stroke="#000000" />
		<text x="460" y="233.33333333333331" text-anchor="middle" dominant-baseline="middle" font-family="Arial" font-size="10" fill="#000000"></text>
	</g>
	<g>
		<rect x="490" y="223.33333333333331" width="20" height="20" fill="#FFFFFF" stroke-width="1.000000px" stroke="#000000" />
		<text x="500" y="233.33333333333331" text-anchor="middle" dominant-baseline="middle" font-family="Arial" font-size="10" fill="#000000"></text>
	</g>
	<g>
		<rect x="110" y="301.66666666666663" width="20" height="20" fill="#FFFFFF" stroke-width="1.000000px" stroke="#000000" />
		<text x="120" y="311.66666666666663" text-anchor="middle" dominant-baseline="middle" font-family="Arial" font-size="10" fill="#000000"></text>
	</g>
	<g>
		<rect x="310" y="301.66666666666663" width="20" height="20" fill="#FFFFFF" stroke-width="1.000000px" stroke="#000000" />
		<text x="320" y="311.66666666666663" text-anchor="middle" dominant-baseline="middle" font-family="Arial" font-size="10" fill="#000000"></text>
	</g>
	<g>
		<rect x="70" y="361.66666666666663" width="20" height="20" fill="#FFFFFF" stroke-width="1.000000px" stroke="#000000" />
		<text x="80" y="371.66666666666663" text-anchor="middle" dominant-baseline="middle" font-family="Arial" font-size="10" fill="#000000"></text>
	</g>
	<g>
		<rect x="110" y="361.66666666666663" width="20" height="20" fill="#FFFFFF" stroke-width="1.000000px" stroke="#000000" />
		<text x="120" y="371.66666666666663" text-anchor="middle" dominant-baseline="middle" font-family="Arial" font-size="10" fill="#000000"></text>
	</g>
	<g>
		<rect x="150" y="361.66666666666663" width="20" height="20" fill="#FFFFFF" stroke-width="1.000000px" stroke="#000000" />
		<text x="160" y="371.66666666666663" text-anchor="middle" dominant-baseline="middle" font-family="Arial" font-size="10" fill="#000000"></text>
	</g>
	<g>
		<rect x="30" y="411.66666666666663" width="20" height="20" fill="#FFFFFF" stroke-width="1.000000px" stroke="#000000" />
		<text x="40" y="421.66666666666663" text-anchor="middle" dominant-baseline="middle" font-family="Arial" font-size="10" fill="#000000"></text>
	</g>
	<g>
		<rect x="70" y="411.66666666666663" width="20" height="20" fill="#FFFFFF" stroke-width="1.000000px" stroke="#000000" />
		<text x="80" y="421.66666666666663" text-anchor="middle" dominant-baseline="middle" font-family="Arial" font-size="10" fill="#000000"></text>
	</g>
	<g>
		<rect x="110" y="411.66666666666663" width="20" height="20" fill="#FFFFFF" stroke-width="1.000000px" stroke="#000000" />
		<text x="120" y="421.66666666666663" text-anchor="middle" dominant-baseline="middle" font-family="Arial" font-size="10" fill="#000000"></text>
	</g>
	<g>
		<rect x="190" y="361.66666666666663" width="20" height="20" fill="#FFFFFF" stroke-width="1.000000px" stroke="#000000" />
		<text x="200" y="371.66666666666663" text-anchor="middle" dominant-baseline="middle" font-family="Arial" font-size="10" fill="#000000"></text>
	</g>
	<g>
		<rect x="310" y="361.66666666666663" width="20" height="20" fill="#FFFFFF" stroke-width="1.000000px" stroke="#000000" />
		<text x="320" y="371.66666666666663" text-anchor="middle" dominant-baseline="middle" font-family="Arial" font-size="10" fill="#000000"></text>
	</g>
	<g>
		<rect x="380" y="361.66666666666663" width="20" height="20" fill="#FFFFFF" stroke-width="1.000000px" stroke="#000000" />
		<text x="390" y="371.66666666666663" text-anchor="middle" dominant-baseline="middle" font-family="Arial" font-size="10" fill="#000000"></text>
	</g>
	<g>
		<rect x="150" y="411.66666666666663" width="20" height="20" fill="#FFFFFF" stroke-width="1.000000px" stroke="#000000" />
		<text x="160" y="421.66666666666663" text-anchor="middle" dominant-baseline="middle" font-family="Arial" font-size="10" fill="#000000"></text>
	</g>
	<g>
		<rect x="190" y="411.66666666666663" width="20" height="20" fill="#FFFFFF" stroke-width="1.000000px" stroke="#000000" />
		<text x="200" y="421.66666666666663" text-anchor="middle" dominant-baseline="middle" font-family="Arial" font-size="10" fill="#000000"></text>
	</g>
	<g>
		<rect x="230" y="411.66666666666663" width="20" height="20" fill="#FFFFFF" stroke-width="1.000000px" stroke="#000000" />
		<text x="240" y="421.66666666666663" text-anchor="middle" dominant-baseline="middle" font-family="Arial" font-size="10" fill="#000000"></text>
	</g>
	<g>
		<rect x="270" y="411.66666666666663" width="20" height="20" fill="#FFFFFF" stroke-width="1.000000px" stroke="#000000" />
		<text x="280" y="421.66666666666663" text-anchor="middle" dominant-baseline="middle" font-family="Arial" font-size="10" fill="#000000"></text>
	</g>
	<g>
		<rect x="310" y="411.66666666666663" width="20" height="20" fill="#FFFFFF" stroke-width="1.000000px" stroke="#000000" />
		<text x="320" y="421.66666666666663" text-anchor="middle" dominant-baseline="middle" font-family="Arial" font-size="10" fill="#000000"></text>
	</g>
	<g>
		<rect x="350" y="411.66666666666663" width="20" height="20" fill="#FFFFFF" stroke-width="1.000000px" stroke="#000000" />
		<text x="360" y="421.66666666666663" text-anchor="middle" dominant-baseline="middle" font-family="Arial" font-size="10" fill="#000000"></text>
	</g>
	<g>
		<rect x="630" y="223.33333333333331" width="20" height="20" fill="#FFFFFF" stroke-width="1.000000px" stroke="#000000" />
		<text x="640" y="233.33333333333331" text-anchor="middle" dominant-baseline="middle" font-family="Arial" font-size="10" fill="#000000"></text>
	</g>
	<g>
		<rect x="670" y="223.33333333333331" width="20" height="20" fill="#FFFFFF" stroke-width="1.000000px" stroke="#000000" />
		<text x="680" y="233.33333333333331" text-anchor="middle" dominant-baseline="middle" font-family="Arial" font-size="10" fill="#000000"></text>
	</g>
	<g>
		<rect x="710" y="223.33333333333331" width="20" height="20" fill="#FFFFFF" stroke-width="1.000000px" stroke="#000000" />
		<text x="720" y="233.33333333333331" text-anchor="middle" dominant-baseline="middle" font-family="Arial" font-size="10" fill="#000000"></text>
	</g>
	<g>
		<rect x="455" y="301.66666666666663" width="20" height="20" fill="#FFFFFF" stroke-width="1.000000px" stroke="#000000" />
		<text x="465" y="311.66666666666663" text-anchor="middle" dominant-baseline="middle" font-family="Arial" font-size="10" fill="#000000"></text>
	</g>
	<g>
		<rect x="630" y="301.66666666666663" width="20" height="20" fill="#FFFFFF" stroke-width="1.000000px" stroke="#000000" />
		<text x="640" y="311.66666666666663" text-anchor="middle" dominant-baseline="middle" font-family="Arial" font-size="10" fill="#000000"></text>
	</g>
	<g>
		<rect x="790" y="301.66666666666663" width="20" height="20" fill="#FFFFFF" stroke-width="1.000000px" stroke="#000000" />
		<text x="800" y="311.66666666666663" text-anchor="middle" dominant-baseline="middle" font-family="Arial" font-size="10" fill="#000000"></text>
	</g>
	<g>
		<rect x="420" y="361.66666666666663" width="20" height="20" fill="#FFFFFF" stroke-width="1.000000px" stroke="#000000" />
		<text x="430" y="371.66666666666663" text-anchor="middle" dominant-baseline="middle" font-family="Arial" font-size="10" fill="#000000"></text>
	</g>
	<g>
		<rect x="490" y="361.66666666666663" width="20" height="20" fill="#FFFFFF" stroke-width="1.000000px" stroke="#000000" />
		<text x="500" y="371.66666666666663" text-anchor="middle" dominant-baseline="middle" font-family="Arial" font-size="10" fill="#000000"></text>
	</g>
	<g>
		<rect x="390" y="411.66666666666663" width="20" height="20" fill="#FFFFFF" stroke-width="1.000000px" stroke="#000000" />
		<text x="400" y="421.66666666666663" text-anchor="middle" dominant-baseline="middle" font-family="Arial" font-size="10" fill="#000000"></text>
	</g>
	<g>
		<rect x="430" y="411.66666666666663" width="20" height="20" fill="#FFFFFF" stroke-width="1.000000px" stroke="#000000" />
		<text x="440" y="421.66666666666663" text-anchor="middle" dominant-baseline="middle" font-family="Arial" font-size="10" fill="#000000"></text>
	</g>
	<g>
		<rect x="470" y="411.66666666666663" width="20" height="20" fill="#FFFFFF" stroke-width="1.000000px" stroke="#000000" />
		<text x="480" y="421.66666666666663" text-anchor="middle" dominant-baseline="middle" font-family="Arial" font-size="10" fill="#000000"></text>
	</g>
	<g>
		<rect x="510" y="411.66666666666663" width="20" height="20" fill="#FFFFFF" stroke-width="1.000000px" stroke="#000000" />
		<text x="520" y="421.66666666666663" text-anchor="middle" dominant-baseline="middle" font-family="Arial" font-size="10" fill="#000000"></text>
	</g>
	<g>
		<rect x="570" y="361.66666666666663" width="20" height="20" fill="#FFFFFF" stroke-width="1.000000px" stroke="#000000" />
		<text x="580" y="371.66666666666663" text-anchor="middle" dominant-baseline="middle" font-family="Arial" font-size="10" fill="#000000"></text>
	</g>
	<g>
		<rect x="630" y="361.66666666666663" width="20" height="20" fill="#FFFFFF" stroke-width="1.000000px" stroke="#000000" />
		<text x="640" y="371.66666666666663" text-anchor="middle" dominant-baseline="middle" font-family="Arial" font-size="10" fill="#000000"></text>
	</g>
	<g>
		<rect x="670" y="361.66666666666663" width="20" height="20" fill="#FFFFFF" stroke-width="1.000000px" stroke="#000000" />
		<text x="680" y="371.66666666666663" text-anchor="middle" dominant-baseline="middle" font-family="Arial" font-size="10" fill="#000000"></text>
	</g>
	<g>
		<rect x="550" y="411.66666666666663" width="20" height="20" fill="#FFFFFF" stroke-width="1.000000px" stroke="#000000" />
		<text x="560" y="421.66666666666663" text-anchor="middle" dominant-baseline="middle" font-family="Arial" font-size="10" fill="#000000"></text>
	</g>
	<g>
		<rect x="590" y="411.66666666666663" width="20" height="20" fill="#FFFFFF" stroke-width="1.000000px" stroke="#000000" />
		<text x="600" y="421.66666666666663" text-anchor="middle" dominant-baseline="middle" font-family="Arial" font-size="10" fill="#000000"></text>
	</g>
	<g>
		<rect x="630" y="411.66666666666663" width="20" height="20" fill="#FFFFFF" stroke-width="1.000000px" stroke="#000000" />
		<text x="640" y="421.66666666666663" text-anchor="middle" dominant-baseline="middle" font-family="Arial" font-size="10" fill="#000000"></text>
	</g>
	<g>
		<rect x="670" y="411.66666666666663" width="20" height="20" fill="#FFFFFF" stroke-width="1.000000px" stroke="#000000" />
		<text x="680" y="421.66666666666663" text-anchor="middle" dominant-baseline="middle" font-family="Arial" font-size="10" fill="#000000"></text>
	</g>
	<g>
		<rect x="730" y="361.66666666666663" width="20" height="20" fill="#FFFFFF" stroke-width="1.000000px" stroke="#000000" />
		<text x="740" y="371.66666666666663" text-anchor="middle" dominant-baseline="middle" font-family="Arial" font-size="10" fill="#000000"></text>
	</g>
	<g>
		<rect x="790" y="361.66666666666663" width="20" height="20" fill="#FFFFFF" stroke-width="1.000000px" stroke="#000000" />
		<text x="800" y="371.66666666666663" text-anchor="middle" dominant-baseline="middle" font-family="Arial" font-size="10" fill="#000000"></text>
	</g>
	<g>
		<rect x="830" y="361.66666666666663" width="20" height="20" fill="#FFFFFF" stroke-width="1.000000px" stroke="#000000" />
		<text x="840" y="371.66666666666663" text-anchor="middle" dominant-baseline="middle" font-family="Arial" font-size="10" fill="#000000"></text>
	</g>
	<g>
		<rect x="710" y="411.66666666666663" width="20" height="20" fill="#FFFFFF" stroke-width="1.000000px" stroke="#000000" />
		<text x="720" y="421.66666666666663" text-anchor="middle" dominant-baseline="middle" font-family="Arial" font-size="10" fill="#000000"></text>
	</g>
	<g>
		<rect x="750" y="411.66666666666663" width="20" height="20" fill="#FFFFFF" stroke-width="1.000000px" stroke="#000000" />
		<text x="760" y="421.66666666666663" text-anchor="middle" dominant-baseline="middle" font-family="Arial" font-size="10" fill="#000000"></text>
	</g>
	<g>
		<rect x="790" y="411.66666666666663" width="20" height="20" fill="#FFFFFF" stroke-width="1.000000px" stroke="#000000" />
		<text x="800" y="421.66666666666663" text-anchor="middle" dominant-baseline="middle" font-family="Arial" font-size="10" fill="#000000"></text>
	</g>
	<g>
		<rect x="830" y="411.66666666666663" width="20" height="20" fill="#FFFFFF" stroke-width="1.000000px" stroke="#000000" />
		<text x="840" y="421.66666666666663" text-anchor="middle" dominant-baseline="middle" font-family="Arial" font-size="10" fill="#000000"></text>
	</g>
</svg>
