<?xml version="1.0"?>
<svg xmlns="http://www.w3.org/2000/svg" xmlns:xlink="http://www.w3.org/1999/xlink" xmlns:ev="http://www.w3.org/2001/xml-events" version="1.1" baseProfile="full" viewBox="28.5 28.5 5043 8898">
	<g>
		<g>
			<path fill="none" d=" M3670,40 L3880,206.667" stroke="#000000" stroke-width="1.000000px" />
		</g>
		<g>
			<path fill="none" d=" M3670,40 L3790,206.667 M3790,206.667 L3790,256.667 M3790,256.667 L3110,510 M3110,510 L3110,1155 M3110,1155 L2910,1475 M2910,1475 L2590,1668.33 M2590,1668.33 L1830,1988.33 M1830,1988.33 L1830,3681.67 M1830,3681.67 L1150,4001.67 M1150,4001.67 L1150,5821.67 M1150,5821.67 L750,6141.67 M750,6141.67 L750,6781.67 M750,6781.67 L230,7101.67 M230,7101.67 L230,8355 M230,8355 L350,8788.33" stroke="#000000" stroke-width="1.000000px" />
		</g>
		<g>
			<path fill="none" d=" M3670,40 L3230,206.667 M3230,206.667 L3230,1155 M3230,1155 L3030,1475 M3030,1475 L2710,1668.33 M2710,1668.33 L1950,1988.33 M1950,1988.33 L1950,3681.67 M1950,3681.67 L1230,4001.67 M1230,4001.67 L1230,6461.67 M1230,6461.67 L570,7101.67" stroke="#000000" stroke-width="1.000000px" />
		</g>
		<g>
			<path fill="none" d=" M3670,40 L3670,206.667 M3670,206.667 L3670,510 M3670,510 L3390,723.333 M3390,723.333 L3390,1668.33 M3390,1668.33 L2510,1988.33 M2510,1988.33 L2270,2308.33 M2270,2308.33 L2270,2948.33 M2270,2948.33 L4250,3435" stroke="#000000" stroke-width="1.000000px" />
		</g>
		<g>
			<path fill="none" d=" M3670,40 L3750,206.667 M3750,206.667 L3750,1155 M3750,1155 L3510,1475 M3510,1475 L3510,1988.33 M3510,1988.33 L3430,2308.33 M3430,2308.33 L3430,2628.33 M3430,2628.33 L2430,2948.33 M2430,2948.33 L2430,4455 M2430,4455 L790,4775 M790,4775 L790,6781.67 M790,6781.67 L350,7101.67 M350,7101.67 L350,7715 M350,7715 L270,8035 M270,8035 L310,8675" stroke="#000000" stroke-width="1.000000px" />
		</g>
		<g>
			<path fill="none" d=" M3670,40 L3430,206.667 M3430,206.667 L3430,1668.33 M3430,1668.33 L4210,2308.33" stroke="#000000" stroke-width="1.000000px" />
		</g>
		<g>
			<path fill="none" d=" M3880,206.667 L3850,256.667" stroke="#000000" stroke-width="1.000000px" />
		</g>
		<g>
			<path fill="none" d=" M3880,206.667 L3910,256.667 M3910,256.667 L3910,723.333 M3910,723.333 L3630,1010" stroke="#000000" stroke-width="1.000000px" />
		</g>
		<g>
			<path fill="none" d=" M3850,256.667 L3850,510" stroke="#000000" stroke-width="1.000000px" />
		</g>
		<g>
			<path fill="none" d=" M3850,256.667 L3150,510 M3150,510 L3150,1155 M3150,1155 L2550,1475 M2550,1475 L2550,2628.33 M2550,2628.33 L2390,2948.33 M2390,2948.33 L2390,3115 M2390,3115 L2190,3435 M2190,3435 L2190,4775 M2190,4775 L2070,5415" stroke="#000000" stroke-width="1.000000px" />
		</g>
		<g>
			<path fill="none" d=" M3850,256.667 L3790,510 M3790,510 L3470,723.333 M3470,723.333 L2870,943.333 M2870,943.333 L2870,1475 M2870,1475 L4870,1988.33" stroke="#000000" stroke-width="1.000000px" />
		</g>
		<g>
			<path fill="none" d=" M3850,510 L3590,723.333 M3590,723.333 L3630,1010" stroke="#000000" stroke-width="1.000000px" />
		</g>
		<g>
			<path fill="none" d=" M3850,510 L3530,723.333" stroke="#000000" stroke-width="1.000000px" />
		</g>
		<g>
			<path fill="none" d=" M3850,510 L3270,723.333" stroke="#000000" stroke-width="1.000000px" />
		</g>
		<g>
			<path fill="none" d=" M3630,1010 L3270,1155 M3270,1155 L3270,1475 M3270,1475 L2830,1668.33 M2830,1668.33 L2230,1988.33 M2230,1988.33 L2230,4135 M2230,4135 L310,4455 M310,4455 L310,8355 M310,8355 L30,8675 M30,8675 L350,8915" stroke="#000000" stroke-width="1.000000px" />
		</g>
		<g>
			<path fill="none" d=" M3630,1010 L4005,1155" stroke="#000000" stroke-width="1.000000px" />
		</g>
		<g>
			<path fill="none" d=" M350,8788.33 L350,8915" stroke="#000000" stroke-width="1.000000px" />
		</g>
		<g>
			<path fill="none" d=" M3530,723.333 L3550,943.333 M3550,943.333 L3550,1668.33 M3550,1668.33 L1790,1988.33 M1790,1988.33 L1790,4135 M1790,4135 L1710,4455 M1710,4455 L1710,4775 M1710,4775 L1630,5095 M1630,5095 L1630,6461.67 M1630,6461.67 L1030,6781.67 M1030,6781.67 L630,7101.67 M630,7101.67 L630,7715 M630,7715 L70,8035 M70,8035 L70,8355 M70,8355 L350,8788.33" stroke="#000000" stroke-width="1.000000px" />
		</g>
		<g>
			<path fill="none" d=" M3530,723.333 L3690,943.333" stroke="#000000" stroke-width="1.000000px" />
		</g>
		<g>
			<path fill="none" d=" M3530,723.333 L3070,943.333 M3070,943.333 L3070,1475 M3070,1475 L3890,1988.33" stroke="#000000" stroke-width="1.000000px" />
		</g>
		<g>
			<path fill="none" d=" M3530,723.333 L3350,943.333 M3350,943.333 L3350,1668.33 M3350,1668.33 L2470,1988.33 M2470,1988.33 L2470,4455 M2470,4455 L830,4775 M830,4775 L830,5821.67 M830,5821.67 L670,6141.67 M670,6141.67 L670,6781.67 M670,6781.67 L1130,7421.67" stroke="#000000" stroke-width="1.000000px" />
		</g>
		<g>
			<path fill="none" d=" M3690,943.333 L3630,1010" stroke="#000000" stroke-width="1.000000px" />
		</g>
		<g>
			<path fill="none" d=" M3690,943.333 L3690,1010 M3690,1010 L3470,1155 M3470,1155 L3470,3115 M3470,3115 L3730,3681.67" stroke="#000000" stroke-width="1.000000px" />
		</g>
		<g>
			<path fill="none" d=" M3690,943.333 L3790,1010 M3790,1010 L3790,6461.67 M3790,6461.67 L1070,6781.67 M1070,6781.67 L1130,7421.67" stroke="#000000" stroke-width="1.000000px" />
		</g>
		<g>
			<path fill="none" d=" M3690,943.333 L3830,1010 M3830,1010 L3830,1988.33 M3830,1988.33 L2030,2308.33 M2030,2308.33 L2030,3681.67 M2030,3681.67 L1470,4001.67 M1470,4001.67 L1470,5735 M1470,5735 L1270,5821.67 M1270,5821.67 L1270,6141.67 M1270,6141.67 L830,6461.67 M830,6461.67 L830,6781.67 M830,6781.67 L530,7421.67" stroke="#000000" stroke-width="1.000000px" />
		</g>
		<g>
			<path fill="none" d=" M3730,3681.67 L1670,4001.67 M1670,4001.67 L1670,4775 M1670,4775 L2070,5415" stroke="#000000" stroke-width="1.000000px" />
		</g>
		<g>
			<path fill="none" d=" M3730,3681.67 L1750,4001.67 M1750,4001.67 L1750,4135 M1750,4135 L1910,4775" stroke="#000000" stroke-width="1.000000px" />
		</g>
		<g>
			<path fill="none" d=" M3730,3681.67 L4470,4001.67" stroke="#000000" stroke-width="1.000000px" />
		</g>
		<g>
			<path fill="none" d=" M2070,5415 L1110,5735 M1110,5735 L1110,5821.67 M1110,5821.67 L710,6141.67 M710,6141.67 L710,6461.67 M710,6461.67 L570,7101.67" stroke="#000000" stroke-width="1.000000px" />
		</g>
		<g>
			<path fill="none" d=" M570,7101.67 L590,7421.67 M590,7421.67 L590,8675 M590,8675 L350,8915" stroke="#000000" stroke-width="1.000000px" />
		</g>
		<g>
			<path fill="none" d=" M570,7101.67 L470,7421.67" stroke="#000000" stroke-width="1.000000px" />
		</g>
		<g>
			<path fill="none" d=" M470,7421.67 L1290,7715" stroke="#000000" stroke-width="1.000000px" />
		</g>
		<g>
			<path fill="none" d=" M1290,7715 L1350,8035 M1350,8035 L470,8675" stroke="#000000" stroke-width="1.000000px" />
		</g>
		<g>
			<path fill="none" d=" M1290,7715 L1290,8035" stroke="#000000" stroke-width="1.000000px" />
		</g>
		<g>
			<path fill="none" d=" M470,8675 L350,8788.33" stroke="#000000" stroke-width="1.000000px" />
		</g>
		<g>
			<path fill="none" d=" M3950,1668.33 L3890,1988.33" stroke="#000000" stroke-width="1.000000px" />
		</g>
		<g>
			<path fill="none" d=" M3950,1668.33 L4550,1988.33 M4550,1988.33 L4550,3435 M4550,3435 L3870,3681.67 M3870,3681.67 L3870,6461.67 M3870,6461.67 L1230,6781.67 M1230,6781.67 L1230,8035 M1230,8035 L470,8675" stroke="#000000" stroke-width="1.000000px" />
		</g>
		<g>
			<path fill="none" d=" M3950,1668.33 L3950,1988.33 M3950,1988.33 L3950,5735 M3950,5735 L4930,6141.67" stroke="#000000" stroke-width="1.000000px" />
		</g>
		<g>
			<path fill="none" d=" M3890,1988.33 L4370,2308.33" stroke="#000000" stroke-width="1.000000px" />
		</g>
		<g>
			<path fill="none" d=" M3890,1988.33 L2070,2308.33 M2070,2308.33 L2070,3681.67 M2070,3681.67 L1510,4001.67 M1510,4001.67 L1510,5735 M1510,5735 L1310,5821.67 M1310,5821.67 L1310,6141.67 M1310,6141.67 L950,6461.67 M950,6461.67 L1130,7101.67" stroke="#000000" stroke-width="1.000000px" />
		</g>
		<g>
			<path fill="none" d=" M3890,1988.33 L2110,2308.33 M2110,2308.33 L2110,3681.67 M2110,3681.67 L1550,4001.67 M1550,4001.67 L1550,5735 M1550,5735 L1350,5821.67 M1350,5821.67 L1350,6141.67 M1350,6141.67 L870,6781.67 M870,6781.67 L430,7101.67 M430,7101.67 L430,8035 M430,8035 L150,8675" stroke="#000000" stroke-width="1.000000px" />
		</g>
		<g>
			<path fill="none" d=" M3890,1988.33 L2150,2308.33 M2150,2308.33 L2150,3681.67 M2150,3681.67 L1590,4001.67 M1590,4001.67 L1590,5735 M1590,5735 L1390,5821.67 M1390,5821.67 L1390,8035 M1390,8035 L390,8675" stroke="#000000" stroke-width="1.000000px" />
		</g>
		<g>
			<path fill="none" d=" M4370,2308.33 L4170,2628.33" stroke="#000000" stroke-width="1.000000px" />
		</g>
		<g>
			<path fill="none" d=" M4370,2308.33 L4350,2628.33 M4350,2628.33 L4350,4001.67 M4350,4001.67 L4110,4135 M4110,4135 L4110,5735 M4110,5735 L4430,6141.67" stroke="#000000" stroke-width="1.000000px" />
		</g>
		<g>
			<path fill="none" d=" M4370,2308.33 L4390,2628.33 M4390,2628.33 L4390,4001.67 M4390,4001.67 L4150,4135 M4150,4135 L4150,6141.67 M4150,6141.67 L990,6781.67" stroke="#000000" stroke-width="1.000000px" />
		</g>
		<g>
			<path fill="none" d=" M4370,2308.33 L4430,2628.33 M4430,2628.33 L4430,4001.67 M4430,4001.67 L4190,4135 M4190,4135 L4190,6141.67 M4190,6141.67 L1130,6781.67" stroke="#000000" stroke-width="1.000000px" />
		</g>
		<g>
			<path fill="none" d=" M4170,2628.33 L4190,2948.33" stroke="#000000" stroke-width="1.000000px" />
		</g>
		<g>
			<path fill="none" d=" M4170,2628.33 L4130,2948.33 M4130,2948.33 L4250,3435" stroke="#000000" stroke-width="1.000000px" />
		</g>
		<g>
			<path fill="none" d=" M4190,2948.33 L4310,3115 M4310,3115 L4310,4455 M4310,4455 L4050,5095" stroke="#000000" stroke-width="1.000000px" />
		</g>
		<g>
			<path fill="none" d=" M4190,2948.33 L4590,3115 M4590,3115 L4590,6781.67 M4590,6781.67 L470,7421.67" stroke="#000000" stroke-width="1.000000px" />
		</g>
		<g>
			<path fill="none" d=" M4190,2948.33 L4630,3115" stroke="#000000" stroke-width="1.000000px" />
		</g>
		<g>
			<path fill="none" d=" M4050,5095 L4050,5415 M4050,5415 L4050,6461.67 M4050,6461.67 L1130,7101.67" stroke="#000000" stroke-width="1.000000px" />
		</g>
		<g>
			<path fill="none" d=" M4050,5095 L4830,5415" stroke="#000000" stroke-width="1.000000px" />
		</g>
		<g>
			<path fill="none" d=" M1130,7101.67 L1130,7421.67" stroke="#000000" stroke-width="1.000000px" />
		</g>
		<g>
			<path fill="none" d=" M4630,6781.67 L1130,7421.67" stroke="#000000" stroke-width="1.000000px" />
		</g>
		<g>
			<path fill="none" d=" M4630,6781.67 L170,7101.67" stroke="#000000" stroke-width="1.000000px" />
		</g>
		<g>
			<path fill="none" d=" M170,7101.67 L530,7421.67" stroke="#000000" stroke-width="1.000000px" />
		</g>
		<g>
			<path fill="none" d=" M4930,6141.67 L4910,6461.67 M4910,6461.67 L4910,6781.67 M4910,6781.67 L530,7421.67" stroke="#000000" stroke-width="1.000000px" />
		</g>
		<g>
			<path fill="none" d=" M4930,6141.67 L4950,6461.67" stroke="#000000" stroke-width="1.000000px" />
		</g>
		<g>
			<path fill="none" d=" M4950,6461.67 L4630,6781.67" stroke="#000000" stroke-width="1.000000px" />
		</g>
		<g>
			<path fill="none" d=" M4950,6461.67 L5030,6781.67 M5030,6781.67 L5030,8035 M5030,8035 L470,8675" stroke="#000000" stroke-width="1.000000px" />
		</g>
		<g>
			<path fill="none" d=" M4950,5735 L4930,6141.67" stroke="#000000" stroke-width="1.000000px" />
		</g>
		<g>
			<path fill="none" d=" M4950,5735 L4930,5821.67" stroke="#000000" stroke-width="1.000000px" />
		</g>
		<g>
			<path fill="none" d=" M4930,5821.67 L4430,6141.67" stroke="#000000" stroke-width="1.000000px" />
		</g>
		<g>
			<path fill="none" d=" M4930,5821.67 L4990,6141.67 M4990,6141.67 L4990,8035 M4990,8035 L310,8675" stroke="#000000" stroke-width="1.000000px" />
		</g>
		<g>
			<path fill="none" d=" M4930,5821.67 L4930,6141.67" stroke="#000000" stroke-width="1.000000px" />
		</g>
		<g>
			<path fill="none" d=" M4430,6141.67 L3830,6461.67" stroke="#000000" stroke-width="1.000000px" />
		</g>
		<g>
			<path fill="none" d=" M4430,6141.67 L4430,6461.67 M4430,6461.67 L1330,6781.67 M1330,6781.67 L1330,7715 M1330,7715 L150,8355" stroke="#000000" stroke-width="1.000000px" />
		</g>
		<g>
			<path fill="none" d=" M3830,6461.67 L990,6781.67" stroke="#000000" stroke-width="1.000000px" />
		</g>
		<g>
			<path fill="none" d=" M3830,6461.67 L1130,6781.67" stroke="#000000" stroke-width="1.000000px" />
		</g>
		<g>
			<path fill="none" d=" M990,6781.67 L570,7101.67" stroke="#000000" stroke-width="1.000000px" />
		</g>
		<g>
			<path fill="none" d=" M1130,6781.67 L1130,7101.67" stroke="#000000" stroke-width="1.000000px" />
		</g>
		<g>
			<path fill="none" d=" M150,8355 L150,8675" stroke="#000000" stroke-width="1.000000px" />
		</g>
		<g>
			<path fill="none" d=" M150,8355 L310,8675" stroke="#000000" stroke-width="1.000000px" />
		</g>
		<g>
			<path fill="none" d=" M4830,5415 L4870,5735 M4870,5735 L4870,8035 M4870,8035 L150,8675" stroke="#000000" stroke-width="1.000000px" />
		</g>
		<g>
			<path fill="none" d=" M4830,5415 L4950,5735" stroke="#000000" stroke-width="1.000000px" />
		</g>
		<g>
			<path fill="none" d=" M4005,1155 L4005,1475" stroke="#000000" stroke-width="1.000000px" />
		</g>
		<g>
			<path fill="none" d=" M4005,1155 L4700,1475" stroke="#000000" stroke-width="1.000000px" />
		</g>
		<g>
			<path fill="none" d=" M4005,1155 L2950,1475 M2950,1475 L2630,1668.33 M2630,1668.33 L1870,1988.33 M1870,1988.33 L1870,3681.67 M1870,3681.67 L1190,4001.67 M1190,4001.67 L1190,4775 M1190,4775 L4830,5415" stroke="#000000" stroke-width="1.000000px" />
		</g>
		<g>
			<path fill="none" d=" M4005,1475 L3950,1668.33" stroke="#000000" stroke-width="1.000000px" />
		</g>
		<g>
			<path fill="none" d=" M4005,1475 L4060,1668.33" stroke="#000000" stroke-width="1.000000px" />
		</g>
		<g>
			<path fill="none" d=" M4060,1668.33 L3990,1988.33 M3990,1988.33 L3990,6461.67 M3990,6461.67 L1270,6781.67 M1270,6781.67 L1130,7421.67" stroke="#000000" stroke-width="1.000000px" />
		</g>
		<g>
			<path fill="none" d=" M4060,1668.33 L4060,1988.33 M4060,1988.33 L4060,2628.33 M4060,2628.33 L2350,3115" stroke="#000000" stroke-width="1.000000px" />
		</g>
		<g>
			<path fill="none" d=" M2350,3115 L4250,3435" stroke="#000000" stroke-width="1.000000px" />
		</g>
		<g>
			<path fill="none" d=" M4250,3435 L3730,3681.67" stroke="#000000" stroke-width="1.000000px" />
		</g>
		<g>
			<path fill="none" d=" M4250,3435 L4670,3681.67 M4670,3681.67 L4670,7101.67 M4670,7101.67 L1290,7715" stroke="#000000" stroke-width="1.000000px" />
		</g>
		<g>
			<path fill="none" d=" M4250,3435 L4710,3681.67 M4710,3681.67 L4710,6461.67 M4710,6461.67 L170,7101.67" stroke="#000000" stroke-width="1.000000px" />
		</g>
		<g>
			<path fill="none" d=" M4630,3115 L4250,3435" stroke="#000000" stroke-width="1.000000px" />
		</g>
		<g>
			<path fill="none" d=" M4630,3115 L4750,3435 M4750,3435 L4750,6461.67 M4750,6461.67 L170,7101.67" stroke="#000000" stroke-width="1.000000px" />
		</g>
		<g>
			<path fill="none" d=" M4700,1475 L4510,1668.33 M4510,1668.33 L4510,4001.67 M4510,4001.67 L4270,4135 M4270,4135 L4270,4455 M4270,4455 L1950,5095" stroke="#000000" stroke-width="1.000000px" />
		</g>
		<g>
			<path fill="none" d=" M4700,1475 L4890,1668.33" stroke="#000000" stroke-width="1.000000px" />
		</g>
		<g>
			<path fill="none" d=" M1950,5095 L2070,5415" stroke="#000000" stroke-width="1.000000px" />
		</g>
		<g>
			<path fill="none" d=" M1950,5095 L4870,5415" stroke="#000000" stroke-width="1.000000px" />
		</g>
		<g>
			<path fill="none" d=" M4870,5415 L4930,5821.67" stroke="#000000" stroke-width="1.000000px" />
		</g>
		<g>
			<path fill="none" d=" M1910,4775 L1950,5095" stroke="#000000" stroke-width="1.000000px" />
		</g>
		<g>
			<path fill="none" d=" M1910,4775 L4050,5095" stroke="#000000" stroke-width="1.000000px" />
		</g>
		<g>
			<path fill="none" d=" M4830,4455 L1910,4775" stroke="#000000" stroke-width="1.000000px" />
		</g>
		<g>
			<path fill="none" d=" M4830,4455 L5070,4775 M5070,4775 L5070,8035 M5070,8035 L310,8675" stroke="#000000" stroke-width="1.000000px" />
		</g>
		<g>
			<path fill="none" d=" M4810,4135 L4790,4455 M4790,4455 L4790,8355 M4790,8355 L350,8788.33" stroke="#000000" stroke-width="1.000000px" />
		</g>
		<g>
			<path fill="none" d=" M4810,4135 L4830,4455" stroke="#000000" stroke-width="1.000000px" />
		</g>
		<g>
			<path fill="none" d=" M4470,4001.67 L4230,4135 M4230,4135 L4230,4455 M4230,4455 L4050,5095" stroke="#000000" stroke-width="1.000000px" />
		</g>
		<g>
			<path fill="none" d=" M4470,4001.67 L4810,4135" stroke="#000000" stroke-width="1.000000px" />
		</g>
		<g>
			<path fill="none" d=" M4910,1988.33 L4910,2308.33 M4910,2308.33 L4910,3681.67 M4910,3681.67 L4810,4135" stroke="#000000" stroke-width="1.000000px" />
		</g>
		<g>
			<path fill="none" d=" M4910,1988.33 L4210,2308.33" stroke="#000000" stroke-width="1.000000px" />
		</g>
		<g>
			<path fill="none" d=" M4210,2308.33 L4190,2948.33" stroke="#000000" stroke-width="1.000000px" />
		</g>
		<g>
			<path fill="none" d=" M4890,1668.33 L4870,1988.33" stroke="#000000" stroke-width="1.000000px" />
		</g>
		<g>
			<path fill="none" d=" M4890,1668.33 L4910,1988.33" stroke="#000000" stroke-width="1.000000px" />
		</g>
		<g>
			<path fill="none" d=" M4870,1988.33 L4870,2308.33 M4870,2308.33 L4870,4775 M4870,4775 L2070,5415" stroke="#000000" stroke-width="1.000000px" />
		</g>
		<g>
			<path fill="none" d=" M1290,8035 L150,8355" stroke="#000000" stroke-width="1.000000px" />
		</g>
		<g>
			<path fill="none" d=" M1290,8035 L1290,8355" stroke="#000000" stroke-width="1.000000px" />
		</g>
		<g>
			<path fill="none" d=" M1290,8035 L390,8675" stroke="#000000" stroke-width="1.000000px" />
		</g>
		<g>
			<path fill="none" d=" M1290,8355 L470,8675" stroke="#000000" stroke-width="1.000000px" />
		</g>
		<g>
			<path fill="none" d=" M1290,8355 L390,8675" stroke="#000000" stroke-width="1.000000px" />
		</g>
		<g>
			<path fill="none" d=" M3270,723.333 L3190,943.333 M3190,943.333 L3190,1155 M3190,1155 L2990,1475 M2990,1475 L2670,1668.33 M2670,1668.33 L1910,1988.33 M1910,1988.33 L4170,2628.33" stroke="#000000" stroke-width="1.000000px" />
		</g>
		<g>
			<path fill="none" d=" M3270,723.333 L3310,943.333 M3310,943.333 L3310,1475 M3310,1475 L2790,1668.33 M2790,1668.33 L1990,1988.33 M1990,1988.33 L1990,3681.67 M1990,3681.67 L1430,4001.67 M1430,4001.67 L1430,6141.67 M1430,6141.67 L4630,6781.67" stroke="#000000" stroke-width="1.000000px" />
		</g>
		<g>
			<path fill="none" d=" M2310,2948.33 L2350,3115" stroke="#000000" stroke-width="1.000000px" />
		</g>
	</g>
	<g>
		<rect x="2300" y="2938.333333333333" width="20" height="20" fill="#FFFFFF" stroke-width="1.000000px" stroke="#000000" />
		<text x="2310" y="2948.333333333333" text-anchor="middle" dominant-baseline="middle" font-family="Arial" font-size="10" fill="#000000"></text>
	</g>
	<g>
		<rect x="3660" y="30" width="20" height="20" fill="#FFFFFF" stroke-width="1.000000px" stroke="#000000" />
		<text x="3670" y="40" text-anchor="middle" dominant-baseline="middle" font-family="Arial" font-size="10" fill="#000000"></text>
	</g>
	<g>
		<rect x="3870" y="196.66666666666666" width="20" height="20" fill="#FFFFFF" stroke-width="1.000000px" stroke="#000000" />
		<text x="3880" y="206.66666666666666" text-anchor="middle" dominant-baseline="middle" font-family="Arial" font-size="10" fill="#000000"></text>
	</g>
	<g>
		<rect x="340" y="8778.3333333333339" width="20" height="20" fill="#FFFFFF" stroke-width="1.000000px" stroke="#000000" />
		<text x="350" y="8788.3333333333339" text-anchor="middle" dominant-baseline="middle" font-family="Arial" font-size="10" fill="#000000"></text>
	</g>
	<g>
		<rect x="3840" y="246.66666666666663" width="20" height="20" fill="#FFFFFF" stroke-width="1.000000px" stroke="#000000" />
		<text x="3850" y="256.66666666666663" text-anchor="middle" dominant-baseline="middle" font-family="Arial" font-size="10" fill="#000000"></text>
	</g>
	<g>
		<rect x="3620" y="1000" width="20" height="20" fill="#FFFFFF" stroke-width="1.000000px" stroke="#000000" />
		<text x="3630" y="1010" text-anchor="middle" dominant-baseline="middle" font-family="Arial" font-size="10" fill="#000000"></text>
	</g>
	<g>
		<rect x="3520" y="713.33333333333337" width="20" height="20" fill="#FFFFFF" stroke-width="1.000000px" stroke="#000000" />
		<text x="3530" y="723.33333333333337" text-anchor="middle" dominant-baseline="middle" font-family="Arial" font-size="10" fill="#000000"></text>
	</g>
	<g>
		<rect x="340" y="8905" width="20" height="20" fill="#FFFFFF" stroke-width="1.000000px" stroke="#000000" />
		<text x="350" y="8915" text-anchor="middle" dominant-baseline="middle" font-family="Arial" font-size="10" fill="#000000"></text>
	</g>
	<g>
		<rect x="3840" y="500" width="20" height="20" fill="#FFFFFF" stroke-width="1.000000px" stroke="#000000" />
		<text x="3850" y="510" text-anchor="middle" dominant-baseline="middle" font-family="Arial" font-size="10" fill="#000000"></text>
	</g>
	<g>
		<rect x="2060" y="5404.9999999999991" width="20" height="20" fill="#FFFFFF" stroke-width="1.000000px" stroke="#000000" />
		<text x="2070" y="5414.9999999999991" text-anchor="middle" dominant-baseline="middle" font-family="Arial" font-size="10" fill="#000000"></text>
	</g>
	<g>
		<rect x="3995" y="1145" width="20" height="20" fill="#FFFFFF" stroke-width="1.000000px" stroke="#000000" />
		<text x="4005" y="1155" text-anchor="middle" dominant-baseline="middle" font-family="Arial" font-size="10" fill="#000000"></text>
	</g>
	<g>
		<rect x="3260" y="713.33333333333337" width="20" height="20" fill="#FFFFFF" stroke-width="1.000000px" stroke="#000000" />
		<text x="3270" y="723.33333333333337" text-anchor="middle" dominant-baseline="middle" font-family="Arial" font-size="10" fill="#000000"></text>
	</g>
	<g>
		<rect x="3720" y="3671.6666666666661" width="20" height="20" fill="#FFFFFF" stroke-width="1.000000px" stroke="#000000" />
		<text x="3730" y="3681.6666666666661" text-anchor="middle" dominant-baseline="middle" font-family="Arial" font-size="10" fill="#000000"></text>
	</g>
	<g>
		<rect x="560" y="7091.6666666666661" width="20" height="20" fill="#FFFFFF" stroke-width="1.000000px" stroke="#000000" />
		<text x="570" y="7101.6666666666661" text-anchor="middle" dominant-baseline="middle" font-family="Arial" font-size="10" fill="#000000"></text>
	</g>
	<g>
		<rect x="3680" y="933.33333333333337" width="20" height="20" fill="#FFFFFF" stroke-width="1.000000px" stroke="#000000" />
		<text x="3690" y="943.33333333333337" text-anchor="middle" dominant-baseline="middle" font-family="Arial" font-size="10" fill="#000000"></text>
	</g>
	<g>
		<rect x="3880" y="1978.3333333333333" width="20" height="20" fill="#FFFFFF" stroke-width="1.000000px" stroke="#000000" />
		<text x="3890" y="1988.3333333333333" text-anchor="middle" dominant-baseline="middle" font-family="Arial" font-size="10" fill="#000000"></text>
	</g>
	<g>
		<rect x="4160" y="2618.333333333333" width="20" height="20" fill="#FFFFFF" stroke-width="1.000000px" stroke="#000000" />
		<text x="4170" y="2628.333333333333" text-anchor="middle" dominant-baseline="middle" font-family="Arial" font-size="10" fill="#000000"></text>
	</g>
	<g>
		<rect x="4620" y="6771.6666666666661" width="20" height="20" fill="#FFFFFF" stroke-width="1.000000px" stroke="#000000" />
		<text x="4630" y="6781.6666666666661" text-anchor="middle" dominant-baseline="middle" font-family="Arial" font-size="10" fill="#000000"></text>
	</g>
	<g>
		<rect x="4360" y="2298.333333333333" width="20" height="20" fill="#FFFFFF" stroke-width="1.000000px" stroke="#000000" />
		<text x="4370" y="2308.333333333333" text-anchor="middle" dominant-baseline="middle" font-family="Arial" font-size="10" fill="#000000"></text>
	</g>
	<g>
		<rect x="1120" y="7091.6666666666661" width="20" height="20" fill="#FFFFFF" stroke-width="1.000000px" stroke="#000000" />
		<text x="1130" y="7101.6666666666661" text-anchor="middle" dominant-baseline="middle" font-family="Arial" font-size="10" fill="#000000"></text>
	</g>
	<g>
		<rect x="1900" y="4764.9999999999991" width="20" height="20" fill="#FFFFFF" stroke-width="1.000000px" stroke="#000000" />
		<text x="1910" y="4774.9999999999991" text-anchor="middle" dominant-baseline="middle" font-family="Arial" font-size="10" fill="#000000"></text>
	</g>
	<g>
		<rect x="4460" y="3991.6666666666661" width="20" height="20" fill="#FFFFFF" stroke-width="1.000000px" stroke="#000000" />
		<text x="4470" y="4001.6666666666661" text-anchor="middle" dominant-baseline="middle" font-family="Arial" font-size="10" fill="#000000"></text>
	</g>
	<g>
		<rect x="3995" y="1465" width="20" height="20" fill="#FFFFFF" stroke-width="1.000000px" stroke="#000000" />
		<text x="4005" y="1475" text-anchor="middle" dominant-baseline="middle" font-family="Arial" font-size="10" fill="#000000"></text>
	</g>
	<g>
		<rect x="4690" y="1465" width="20" height="20" fill="#FFFFFF" stroke-width="1.000000px" stroke="#000000" />
		<text x="4700" y="1475" text-anchor="middle" dominant-baseline="middle" font-family="Arial" font-size="10" fill="#000000"></text>
	</g>
	<g>
		<rect x="3940" y="1658.3333333333333" width="20" height="20" fill="#FFFFFF" stroke-width="1.000000px" stroke="#000000" />
		<text x="3950" y="1668.3333333333333" text-anchor="middle" dominant-baseline="middle" font-family="Arial" font-size="10" fill="#000000"></text>
	</g>
	<g>
		<rect x="4050" y="1658.3333333333333" width="20" height="20" fill="#FFFFFF" stroke-width="1.000000px" stroke="#000000" />
		<text x="4060" y="1668.3333333333333" text-anchor="middle" dominant-baseline="middle" font-family="Arial" font-size="10" fill="#000000"></text>
	</g>
	<g>
		<rect x="1940" y="5084.9999999999991" width="20" height="20" fill="#FFFFFF" stroke-width="1.000000px" stroke="#000000" />
		<text x="1950" y="5094.9999999999991" text-anchor="middle" dominant-baseline="middle" font-family="Arial" font-size="10" fill="#000000"></text>
	</g>
	<g>
		<rect x="4880" y="1658.3333333333333" width="20" height="20" fill="#FFFFFF" stroke-width="1.000000px" stroke="#000000" />
		<text x="4890" y="1668.3333333333333" text-anchor="middle" dominant-baseline="middle" font-family="Arial" font-size="10" fill="#000000"></text>
	</g>
	<g>
		<rect x="460" y="8665" width="20" height="20" fill="#FFFFFF" stroke-width="1.000000px" stroke="#000000" />
		<text x="470" y="8675" text-anchor="middle" dominant-baseline="middle" font-family="Arial" font-size="10" fill="#000000"></text>
	</g>
	<g>
		<rect x="1120" y="7411.6666666666661" width="20" height="20" fill="#FFFFFF" stroke-width="1.000000px" stroke="#000000" />
		<text x="1130" y="7421.6666666666661" text-anchor="middle" dominant-baseline="middle" font-family="Arial" font-size="10" fill="#000000"></text>
	</g>
	<g>
		<rect x="2340" y="3104.9999999999995" width="20" height="20" fill="#FFFFFF" stroke-width="1.000000px" stroke="#000000" />
		<text x="2350" y="3114.9999999999995" text-anchor="middle" dominant-baseline="middle" font-family="Arial" font-size="10" fill="#000000"></text>
	</g>
	<g>
		<rect x="1280" y="7704.9999999999991" width="20" height="20" fill="#FFFFFF" stroke-width="1.000000px" stroke="#000000" />
		<text x="1290" y="7714.9999999999991" text-anchor="middle" dominant-baseline="middle" font-family="Arial" font-size="10" fill="#000000"></text>
	</g>
	<g>
		<rect x="4420" y="6131.6666666666661" width="20" height="20" fill="#FFFFFF" stroke-width="1.000000px" stroke="#000000" />
		<text x="4430" y="6141.6666666666661" text-anchor="middle" dominant-baseline="middle" font-family="Arial" font-size="10" fill="#000000"></text>
	</g>
	<g>
		<rect x="4040" y="5084.9999999999991" width="20" height="20" fill="#FFFFFF" stroke-width="1.000000px" stroke="#000000" />
		<text x="4050" y="5094.9999999999991" text-anchor="middle" dominant-baseline="middle" font-family="Arial" font-size="10" fill="#000000"></text>
	</g>
	<g>
		<rect x="3820" y="6451.6666666666661" width="20" height="20" fill="#FFFFFF" stroke-width="1.000000px" stroke="#000000" />
		<text x="3830" y="6461.6666666666661" text-anchor="middle" dominant-baseline="middle" font-family="Arial" font-size="10" fill="#000000"></text>
	</g>
	<g>
		<rect x="140" y="8345" width="20" height="20" fill="#FFFFFF" stroke-width="1.000000px" stroke="#000000" />
		<text x="150" y="8355" text-anchor="middle" dominant-baseline="middle" font-family="Arial" font-size="10" fill="#000000"></text>
	</g>
	<g>
		<rect x="4180" y="2938.333333333333" width="20" height="20" fill="#FFFFFF" stroke-width="1.000000px" stroke="#000000" />
		<text x="4190" y="2948.333333333333" text-anchor="middle" dominant-baseline="middle" font-family="Arial" font-size="10" fill="#000000"></text>
	</g>
	<g>
		<rect x="4240" y="3424.9999999999995" width="20" height="20" fill="#FFFFFF" stroke-width="1.000000px" stroke="#000000" />
		<text x="4250" y="3434.9999999999995" text-anchor="middle" dominant-baseline="middle" font-family="Arial" font-size="10" fill="#000000"></text>
	</g>
	<g>
		<rect x="980" y="6771.6666666666661" width="20" height="20" fill="#FFFFFF" stroke-width="1.000000px" stroke="#000000" />
		<text x="990" y="6781.6666666666661" text-anchor="middle" dominant-baseline="middle" font-family="Arial" font-size="10" fill="#000000"></text>
	</g>
	<g>
		<rect x="1120" y="6771.6666666666661" width="20" height="20" fill="#FFFFFF" stroke-width="1.000000px" stroke="#000000" />
		<text x="1130" y="6781.6666666666661" text-anchor="middle" dominant-baseline="middle" font-family="Arial" font-size="10" fill="#000000"></text>
	</g>
	<g>
		<rect x="140" y="8665" width="20" height="20" fill="#FFFFFF" stroke-width="1.000000px" stroke="#000000" />
		<text x="150" y="8675" text-anchor="middle" dominant-baseline="middle" font-family="Arial" font-size="10" fill="#000000"></text>
	</g>
	<g>
		<rect x="300" y="8665" width="20" height="20" fill="#FFFFFF" stroke-width="1.000000px" stroke="#000000" />
		<text x="310" y="8675" text-anchor="middle" dominant-baseline="middle" font-family="Arial" font-size="10" fill="#000000"></text>
	</g>
	<g>
		<rect x="460" y="7411.6666666666661" width="20" height="20" fill="#FFFFFF" stroke-width="1.000000px" stroke="#000000" />
		<text x="470" y="7421.6666666666661" text-anchor="middle" dominant-baseline="middle" font-family="Arial" font-size="10" fill="#000000"></text>
	</g>
	<g>
		<rect x="4620" y="3104.9999999999995" width="20" height="20" fill="#FFFFFF" stroke-width="1.000000px" stroke="#000000" />
		<text x="4630" y="3114.9999999999995" text-anchor="middle" dominant-baseline="middle" font-family="Arial" font-size="10" fill="#000000"></text>
	</g>
	<g>
		<rect x="1280" y="8024.9999999999991" width="20" height="20" fill="#FFFFFF" stroke-width="1.000000px" stroke="#000000" />
		<text x="1290" y="8034.9999999999991" text-anchor="middle" dominant-baseline="middle" font-family="Arial" font-size="10" fill="#000000"></text>
	</g>
	<g>
		<rect x="160" y="7091.6666666666661" width="20" height="20" fill="#FFFFFF" stroke-width="1.000000px" stroke="#000000" />
		<text x="170" y="7101.6666666666661" text-anchor="middle" dominant-baseline="middle" font-family="Arial" font-size="10" fill="#000000"></text>
	</g>
	<g>
		<rect x="520" y="7411.6666666666661" width="20" height="20" fill="#FFFFFF" stroke-width="1.000000px" stroke="#000000" />
		<text x="530" y="7421.6666666666661" text-anchor="middle" dominant-baseline="middle" font-family="Arial" font-size="10" fill="#000000"></text>
	</g>
	<g>
		<rect x="4800" y="4124.9999999999991" width="20" height="20" fill="#FFFFFF" stroke-width="1.000000px" stroke="#000000" />
		<text x="4810" y="4134.9999999999991" text-anchor="middle" dominant-baseline="middle" font-family="Arial" font-size="10" fill="#000000"></text>
	</g>
	<g>
		<rect x="4820" y="5404.9999999999991" width="20" height="20" fill="#FFFFFF" stroke-width="1.000000px" stroke="#000000" />
		<text x="4830" y="5414.9999999999991" text-anchor="middle" dominant-baseline="middle" font-family="Arial" font-size="10" fill="#000000"></text>
	</g>
	<g>
		<rect x="4860" y="5404.9999999999991" width="20" height="20" fill="#FFFFFF" stroke-width="1.000000px" stroke="#000000" />
		<text x="4870" y="5414.9999999999991" text-anchor="middle" dominant-baseline="middle" font-family="Arial" font-size="10" fill="#000000"></text>
	</g>
	<g>
		<rect x="4940" y="5724.9999999999991" width="20" height="20" fill="#FFFFFF" stroke-width="1.000000px" stroke="#000000" />
		<text x="4950" y="5734.9999999999991" text-anchor="middle" dominant-baseline="middle" font-family="Arial" font-size="10" fill="#000000"></text>
	</g>
	<g>
		<rect x="4920" y="6131.6666666666661" width="20" height="20" fill="#FFFFFF" stroke-width="1.000000px" stroke="#000000" />
		<text x="4930" y="6141.6666666666661" text-anchor="middle" dominant-baseline="middle" font-family="Arial" font-size="10" fill="#000000"></text>
	</g>
	<g>
		<rect x="4920" y="5811.6666666666661" width="20" height="20" fill="#FFFFFF" stroke-width="1.000000px" stroke="#000000" />
		<text x="4930" y="5821.6666666666661" text-anchor="middle" dominant-baseline="middle" font-family="Arial" font-size="10" fill="#000000"></text>
	</g>
	<g>
		<rect x="4940" y="6451.6666666666661" width="20" height="20" fill="#FFFFFF" stroke-width="1.000000px" stroke="#000000" />
		<text x="4950" y="6461.6666666666661" text-anchor="middle" dominant-baseline="middle" font-family="Arial" font-size="10" fill="#000000"></text>
	</g>
	<g>
		<rect x="1280" y="8345" width="20" height="20" fill="#FFFFFF" stroke-width="1.000000px" stroke="#000000" />
		<text x="1290" y="8355" text-anchor="middle" dominant-baseline="middle" font-family="Arial" font-size="10" fill="#000000"></text>
	</g>
	<g>
		<rect x="380" y="8665" width="20" height="20" fill="#FFFFFF" stroke-width="1.000000px" stroke="#000000" />
		<text x="390" y="8675" text-anchor="middle" dominant-baseline="middle" font-family="Arial" font-size="10" fill="#000000"></text>
	</g>
	<g>
		<rect x="4820" y="4444.9999999999991" width="20" height="20" fill="#FFFFFF" stroke-width="1.000000px" stroke="#000000" />
		<text x="4830" y="4454.9999999999991" text-anchor="middle" dominant-baseline="middle" font-family="Arial" font-size="10" fill="#000000"></text>
	</g>
	<g>
		<rect x="4860" y="1978.3333333333333" width="20" height="20" fill="#FFFFFF" stroke-width="1.000000px" stroke="#000000" />
		<text x="4870" y="1988.3333333333333" text-anchor="middle" dominant-baseline="middle" font-family="Arial" font-size="10" fill="#000000"></text>
	</g>
	<g>
		<rect x="4900" y="1978.3333333333333" width="20" height="20" fill="#FFFFFF" stroke-width="1.000000px" stroke="#000000" />
		<text x="4910" y="1988.3333333333333" text-anchor="middle" dominant-baseline="middle" font-family="Arial" font-size="10" fill="#000000"></text>
	</g>
	<g>
		<rect x="4200" y="2298.333333333333" width="20" height="20" fill="#FFFFFF" stroke-width="1.000000px" stroke="#000000" />
		<text x="4210" y="2308.333333333333" text-anchor="middle" dominant-baseline="middle" font-family="Arial" font-size="10" fill="#000000"></text>
	</g>
</svg>
