<?xml version="1.0"?>
<svg xmlns="http://www.w3.org/2000/svg" xmlns:xlink="http://www.w3.org/1999/xlink" xmlns:ev="http://www.w3.org/2001/xml-events" version="1.1" baseProfile="full" viewBox="28.5 28.5 2633 1673">
	<g>
		<g>
			<path fill="none" d=" M1130,40 L1010,680" stroke="#000000" stroke-width="1.000000px" />
		</g>
		<g>
			<path fill="none" d=" M1130,40 L2650,680" stroke="#000000" stroke-width="1.000000px" />
		</g>
		<g>
			<path fill="none" d=" M1130,40 L190,360 M190,360 L1990,1000" stroke="#000000" stroke-width="1.000000px" />
		</g>
		<g>
			<path fill="none" d=" M1130,40 L930,360 M930,360 L2170,1000" stroke="#000000" stroke-width="1.000000px" />
		</g>
		<g>
			<path fill="none" d=" M1130,40 L830,680" stroke="#000000" stroke-width="1.000000px" />
		</g>
		<g>
			<path fill="none" d=" M1130,40 L2590,680" stroke="#000000" stroke-width="1.000000px" />
		</g>
		<g>
			<path fill="none" d=" M1130,40 L2530,680" stroke="#000000" stroke-width="1.000000px" />
		</g>
		<g>
			<path fill="none" d=" M1130,40 L750,360" stroke="#000000" stroke-width="1.000000px" />
		</g>
		<g>
			<path fill="none" d=" M1130,40 L1060,360" stroke="#000000" stroke-width="1.000000px" />
		</g>
		<g>
			<path fill="none" d=" M1130,40 L2470,360" stroke="#000000" stroke-width="1.000000px" />
		</g>
		<g>
			<path fill="none" d=" M1130,40 L1390,360" stroke="#000000" stroke-width="1.000000px" />
		</g>
		<g>
			<path fill="none" d=" M1130,40 L1130,360" stroke="#000000" stroke-width="1.000000px" />
		</g>
		<g>
			<path fill="none" d=" M1130,40 L1510,360" stroke="#000000" stroke-width="1.000000px" />
		</g>
		<g>
			<path fill="none" d=" M1130,40 L30,360 M30,360 L30,680 M30,680 L750,1320" stroke="#000000" stroke-width="1.000000px" />
		</g>
		<g>
			<path fill="none" d=" M1130,40 L2110,360" stroke="#000000" stroke-width="1.000000px" />
		</g>
		<g>
			<path fill="none" d=" M1060,360 L1010,680" stroke="#000000" stroke-width="1.000000px" />
		</g>
		<g>
			<path fill="none" d=" M1060,360 L1750,680" stroke="#000000" stroke-width="1.000000px" />
		</g>
		<g>
			<path fill="none" d=" M1060,360 L1050,680 M1050,680 L830,1320" stroke="#000000" stroke-width="1.000000px" />
		</g>
		<g>
			<path fill="none" d=" M2110,360 L2650,680" stroke="#000000" stroke-width="1.000000px" />
		</g>
		<g>
			<path fill="none" d=" M2110,360 L1990,1000" stroke="#000000" stroke-width="1.000000px" />
		</g>
		<g>
			<path fill="none" d=" M2110,360 L1790,680 M1790,680 L890,1320" stroke="#000000" stroke-width="1.000000px" />
		</g>
		<g>
			<path fill="none" d=" M2110,360 L1830,680 M1830,680 L630,1000 M630,1000 L1270,1640" stroke="#000000" stroke-width="1.000000px" />
		</g>
		<g>
			<path fill="none" d=" M2110,360 L1750,680" stroke="#000000" stroke-width="1.000000px" />
		</g>
		<g>
			<path fill="none" d=" M2110,360 L1870,680 M1870,680 L830,1320" stroke="#000000" stroke-width="1.000000px" />
		</g>
		<g>
			<path fill="none" d=" M2110,360 L2470,680" stroke="#000000" stroke-width="1.000000px" />
		</g>
		<g>
			<path fill="none" d=" M2110,360 L1910,680 M1910,680 L710,1000 M710,1000 L390,1640" stroke="#000000" stroke-width="1.000000px" />
		</g>
		<g>
			<path fill="none" d=" M2110,360 L1950,680" stroke="#000000" stroke-width="1.000000px" />
		</g>
		<g>
			<path fill="none" d=" M2110,360 L2230,680" stroke="#000000" stroke-width="1.000000px" />
		</g>
		<g>
			<path fill="none" d=" M2110,360 L2110,680" stroke="#000000" stroke-width="1.000000px" />
		</g>
		<g>
			<path fill="none" d=" M2110,360 L2150,680" stroke="#000000" stroke-width="1.000000px" />
		</g>
		<g>
			<path fill="none" d=" M2110,360 L2190,680" stroke="#000000" stroke-width="1.000000px" />
		</g>
		<g>
			<path fill="none" d=" M2110,360 L2270,680" stroke="#000000" stroke-width="1.000000px" />
		</g>
		<g>
			<path fill="none" d=" M2110,360 L1990,680" stroke="#000000" stroke-width="1.000000px" />
		</g>
		<g>
			<path fill="none" d=" M2110,360 L2030,680" stroke="#000000" stroke-width="1.000000px" />
		</g>
		<g>
			<path fill="none" d=" M2110,360 L2430,680" stroke="#000000" stroke-width="1.000000px" />
		</g>
		<g>
			<path fill="none" d=" M2110,360 L1010,1000" stroke="#000000" stroke-width="1.000000px" />
		</g>
		<g>
			<path fill="none" d=" M2110,360 L2330,680" stroke="#000000" stroke-width="1.000000px" />
		</g>
		<g>
			<path fill="none" d=" M1990,1000 L590,1320" stroke="#000000" stroke-width="1.000000px" />
		</g>
		<g>
			<path fill="none" d=" M1990,680 L1990,1000" stroke="#000000" stroke-width="1.000000px" />
		</g>
		<g>
			<path fill="none" d=" M1990,680 L950,1320" stroke="#000000" stroke-width="1.000000px" />
		</g>
		<g>
			<path fill="none" d=" M950,1320 L650,1640" stroke="#000000" stroke-width="1.000000px" />
		</g>
		<g>
			<path fill="none" d=" M650,1640 L650,1690" stroke="#000000" stroke-width="1.000000px" />
		</g>
		<g>
			<path fill="none" d=" M2030,680 L1930,1000 M1930,1000 L650,1640" stroke="#000000" stroke-width="1.000000px" />
		</g>
		<g>
			<path fill="none" d=" M910,1000 L830,1320" stroke="#000000" stroke-width="1.000000px" />
		</g>
		<g>
			<path fill="none" d=" M910,1000 L950,1320" stroke="#000000" stroke-width="1.000000px" />
		</g>
		<g>
			<path fill="none" d=" M1950,680 L830,1320" stroke="#000000" stroke-width="1.000000px" />
		</g>
		<g>
			<path fill="none" d=" M2330,680 L550,1000 M550,1000 L1270,1640" stroke="#000000" stroke-width="1.000000px" />
		</g>
		<g>
			<path fill="none" d=" M2330,680 L1010,1000" stroke="#000000" stroke-width="1.000000px" />
		</g>
		<g>
			<path fill="none" d=" M2330,680 L510,1000" stroke="#000000" stroke-width="1.000000px" />
		</g>
		<g>
			<path fill="none" d=" M2330,680 L910,1000" stroke="#000000" stroke-width="1.000000px" />
		</g>
		<g>
			<path fill="none" d=" M2170,1000 L890,1320" stroke="#000000" stroke-width="1.000000px" />
		</g>
		<g>
			<path fill="none" d=" M2170,1000 L630,1320" stroke="#000000" stroke-width="1.000000px" />
		</g>
		<g>
			<path fill="none" d=" M2170,1000 L1170,1320" stroke="#000000" stroke-width="1.000000px" />
		</g>
		<g>
			<path fill="none" d=" M2170,1000 L1250,1320" stroke="#000000" stroke-width="1.000000px" />
		</g>
		<g>
			<path fill="none" d=" M2170,1000 L1270,1640" stroke="#000000" stroke-width="1.000000px" />
		</g>
		<g>
			<path fill="none" d=" M2170,1000 L1070,1640" stroke="#000000" stroke-width="1.000000px" />
		</g>
		<g>
			<path fill="none" d=" M890,1320 L390,1640" stroke="#000000" stroke-width="1.000000px" />
		</g>
		<g>
			<path fill="none" d=" M1510,360 L2590,680" stroke="#000000" stroke-width="1.000000px" />
		</g>
		<g>
			<path fill="none" d=" M1510,360 L1550,680 M1550,680 L1170,1320" stroke="#000000" stroke-width="1.000000px" />
		</g>
		<g>
			<path fill="none" d=" M1510,360 L1590,680 M1590,680 L1250,1320" stroke="#000000" stroke-width="1.000000px" />
		</g>
		<g>
			<path fill="none" d=" M1510,360 L1670,680 M1670,680 L1670,1000 M1670,1000 L1270,1640" stroke="#000000" stroke-width="1.000000px" />
		</g>
		<g>
			<path fill="none" d=" M1510,360 L1450,680" stroke="#000000" stroke-width="1.000000px" />
		</g>
		<g>
			<path fill="none" d=" M1510,360 L1310,680 M1310,680 L350,1000 M350,1000 L390,1640" stroke="#000000" stroke-width="1.000000px" />
		</g>
		<g>
			<path fill="none" d=" M1510,360 L1510,680" stroke="#000000" stroke-width="1.000000px" />
		</g>
		<g>
			<path fill="none" d=" M1510,360 L1350,680" stroke="#000000" stroke-width="1.000000px" />
		</g>
		<g>
			<path fill="none" d=" M1510,360 L1390,680" stroke="#000000" stroke-width="1.000000px" />
		</g>
		<g>
			<path fill="none" d=" M2590,680 L1190,1000 M1190,1000 L710,1640" stroke="#000000" stroke-width="1.000000px" />
		</g>
		<g>
			<path fill="none" d=" M670,1320 L710,1640" stroke="#000000" stroke-width="1.000000px" />
		</g>
		<g>
			<path fill="none" d=" M1130,360 L2530,680" stroke="#000000" stroke-width="1.000000px" />
		</g>
		<g>
			<path fill="none" d=" M1130,360 L1090,680 M1090,680 L750,1320" stroke="#000000" stroke-width="1.000000px" />
		</g>
		<g>
			<path fill="none" d=" M1130,360 L1130,680 M1130,680 L670,1320" stroke="#000000" stroke-width="1.000000px" />
		</g>
		<g>
			<path fill="none" d=" M2530,680 L1310,1320" stroke="#000000" stroke-width="1.000000px" />
		</g>
		<g>
			<path fill="none" d=" M2530,680 L2250,1000" stroke="#000000" stroke-width="1.000000px" />
		</g>
		<g>
			<path fill="none" d=" M1310,1320 L1330,1640" stroke="#000000" stroke-width="1.000000px" />
		</g>
		<g>
			<path fill="none" d=" M750,360 L830,680" stroke="#000000" stroke-width="1.000000px" />
		</g>
		<g>
			<path fill="none" d=" M750,360 L2530,680" stroke="#000000" stroke-width="1.000000px" />
		</g>
		<g>
			<path fill="none" d=" M750,360 L790,680 M790,680 L750,1320" stroke="#000000" stroke-width="1.000000px" />
		</g>
		<g>
			<path fill="none" d=" M750,360 L310,680 M310,680 L1310,1320" stroke="#000000" stroke-width="1.000000px" />
		</g>
		<g>
			<path fill="none" d=" M750,360 L2250,1000" stroke="#000000" stroke-width="1.000000px" />
		</g>
		<g>
			<path fill="none" d=" M750,360 L230,680" stroke="#000000" stroke-width="1.000000px" />
		</g>
		<g>
			<path fill="none" d=" M750,360 L1450,680" stroke="#000000" stroke-width="1.000000px" />
		</g>
		<g>
			<path fill="none" d=" M750,360 L270,680" stroke="#000000" stroke-width="1.000000px" />
		</g>
		<g>
			<path fill="none" d=" M830,680 L830,1000" stroke="#000000" stroke-width="1.000000px" />
		</g>
		<g>
			<path fill="none" d=" M750,1320 L750,1640" stroke="#000000" stroke-width="1.000000px" />
		</g>
		<g>
			<path fill="none" d=" M1390,360 L1270,680 M1270,680 L750,1320" stroke="#000000" stroke-width="1.000000px" />
		</g>
		<g>
			<path fill="none" d=" M1390,360 L1230,680 M1230,680 L1310,1320" stroke="#000000" stroke-width="1.000000px" />
		</g>
		<g>
			<path fill="none" d=" M1390,360 L2250,1000" stroke="#000000" stroke-width="1.000000px" />
		</g>
		<g>
			<path fill="none" d=" M1390,360 L1630,680 M1630,680 L230,1320" stroke="#000000" stroke-width="1.000000px" />
		</g>
		<g>
			<path fill="none" d=" M2250,1000 L2250,1320" stroke="#000000" stroke-width="1.000000px" />
		</g>
		<g>
			<path fill="none" d=" M230,1320 L210,1640" stroke="#000000" stroke-width="1.000000px" />
		</g>
		<g>
			<path fill="none" d=" M230,1320 L250,1640" stroke="#000000" stroke-width="1.000000px" />
		</g>
		<g>
			<path fill="none" d=" M170,1000 L750,1320" stroke="#000000" stroke-width="1.000000px" />
		</g>
		<g>
			<path fill="none" d=" M170,1000 L1310,1320" stroke="#000000" stroke-width="1.000000px" />
		</g>
		<g>
			<path fill="none" d=" M170,1000 L230,1320" stroke="#000000" stroke-width="1.000000px" />
		</g>
		<g>
			<path fill="none" d=" M170,1000 L670,1320" stroke="#000000" stroke-width="1.000000px" />
		</g>
		<g>
			<path fill="none" d=" M1450,680 L170,1000" stroke="#000000" stroke-width="1.000000px" />
		</g>
		<g>
			<path fill="none" d=" M1450,680 L110,1000" stroke="#000000" stroke-width="1.000000px" />
		</g>
		<g>
			<path fill="none" d=" M110,1000 L110,1320" stroke="#000000" stroke-width="1.000000px" />
		</g>
		<g>
			<path fill="none" d=" M2470,360 L2590,680" stroke="#000000" stroke-width="1.000000px" />
		</g>
		<g>
			<path fill="none" d=" M2470,360 L1450,680" stroke="#000000" stroke-width="1.000000px" />
		</g>
		<g>
			<path fill="none" d=" M2470,360 L2470,680" stroke="#000000" stroke-width="1.000000px" />
		</g>
		<g>
			<path fill="none" d=" M2470,680 L1150,1000" stroke="#000000" stroke-width="1.000000px" />
		</g>
		<g>
			<path fill="none" d=" M1170,1320 L1070,1640" stroke="#000000" stroke-width="1.000000px" />
		</g>
		<g>
			<path fill="none" d=" M1170,1320 L1150,1640" stroke="#000000" stroke-width="1.000000px" />
		</g>
		<g>
			<path fill="none" d=" M1170,1320 L1010,1640" stroke="#000000" stroke-width="1.000000px" />
		</g>
		<g>
			<path fill="none" d=" M1250,1320 L1270,1640" stroke="#000000" stroke-width="1.000000px" />
		</g>
		<g>
			<path fill="none" d=" M1250,1320 L1070,1640" stroke="#000000" stroke-width="1.000000px" />
		</g>
		<g>
			<path fill="none" d=" M1250,1320 L1150,1640" stroke="#000000" stroke-width="1.000000px" />
		</g>
		<g>
			<path fill="none" d=" M1250,1320 L1210,1640" stroke="#000000" stroke-width="1.000000px" />
		</g>
		<g>
			<path fill="none" d=" M1010,1000 L1070,1640" stroke="#000000" stroke-width="1.000000px" />
		</g>
		<g>
			<path fill="none" d=" M1010,1000 L1150,1640" stroke="#000000" stroke-width="1.000000px" />
		</g>
		<g>
			<path fill="none" d=" M1010,1000 L1010,1640" stroke="#000000" stroke-width="1.000000px" />
		</g>
		<g>
			<path fill="none" d=" M1510,680 L270,1000 M270,1000 L390,1640" stroke="#000000" stroke-width="1.000000px" />
		</g>
		<g>
			<path fill="none" d=" M630,1320 L570,1640" stroke="#000000" stroke-width="1.000000px" />
		</g>
		<g>
			<path fill="none" d=" M630,1320 L610,1640" stroke="#000000" stroke-width="1.000000px" />
		</g>
		<g>
			<path fill="none" d=" M2430,680 L2170,1000" stroke="#000000" stroke-width="1.000000px" />
		</g>
		<g>
			<path fill="none" d=" M2110,680 L2110,1000" stroke="#000000" stroke-width="1.000000px" />
		</g>
		<g>
			<path fill="none" d=" M2150,680 L2110,1000" stroke="#000000" stroke-width="1.000000px" />
		</g>
		<g>
			<path fill="none" d=" M2190,680 L2110,1000" stroke="#000000" stroke-width="1.000000px" />
		</g>
	</g>
	<g>
		<rect x="1120" y="30" width="20" height="20" fill="#FFFFFF" stroke-width="1.000000px" stroke="#000000" />
		<text x="1130" y="40" text-anchor="middle" dominant-baseline="middle" font-family="Arial" font-size="10" fill="#000000"></text>
	</g>
	<g>
		<rect x="1000" y="670" width="20" height="20" fill="#FFFFFF" stroke-width="1.000000px" stroke="#000000" />
		<text x="1010" y="680" text-anchor="middle" dominant-baseline="middle" font-family="Arial" font-size="10" fill="#000000"></text>
	</g>
	<g>
		<rect x="2640" y="670" width="20" height="20" fill="#FFFFFF" stroke-width="1.000000px" stroke="#000000" />
		<text x="2650" y="680" text-anchor="middle" dominant-baseline="middle" font-family="Arial" font-size="10" fill="#000000"></text>
	</g>
	<g>
		<rect x="1980" y="990" width="20" height="20" fill="#FFFFFF" stroke-width="1.000000px" stroke="#000000" />
		<text x="1990" y="1000" text-anchor="middle" dominant-baseline="middle" font-family="Arial" font-size="10" fill="#000000"></text>
	</g>
	<g>
		<rect x="2160" y="990" width="20" height="20" fill="#FFFFFF" stroke-width="1.000000px" stroke="#000000" />
		<text x="2170" y="1000" text-anchor="middle" dominant-baseline="middle" font-family="Arial" font-size="10" fill="#000000"></text>
	</g>
	<g>
		<rect x="820" y="670" width="20" height="20" fill="#FFFFFF" stroke-width="1.000000px" stroke="#000000" />
		<text x="830" y="680" text-anchor="middle" dominant-baseline="middle" font-family="Arial" font-size="10" fill="#000000"></text>
	</g>
	<g>
		<rect x="2580" y="670" width="20" height="20" fill="#FFFFFF" stroke-width="1.000000px" stroke="#000000" />
		<text x="2590" y="680" text-anchor="middle" dominant-baseline="middle" font-family="Arial" font-size="10" fill="#000000"></text>
	</g>
	<g>
		<rect x="2520" y="670" width="20" height="20" fill="#FFFFFF" stroke-width="1.000000px" stroke="#000000" />
		<text x="2530" y="680" text-anchor="middle" dominant-baseline="middle" font-family="Arial" font-size="10" fill="#000000"></text>
	</g>
	<g>
		<rect x="740" y="350" width="20" height="20" fill="#FFFFFF" stroke-width="1.000000px" stroke="#000000" />
		<text x="750" y="360" text-anchor="middle" dominant-baseline="middle" font-family="Arial" font-size="10" fill="#000000"></text>
	</g>
	<g>
		<rect x="1050" y="350" width="20" height="20" fill="#FFFFFF" stroke-width="1.000000px" stroke="#000000" />
		<text x="1060" y="360" text-anchor="middle" dominant-baseline="middle" font-family="Arial" font-size="10" fill="#000000"></text>
	</g>
	<g>
		<rect x="2460" y="350" width="20" height="20" fill="#FFFFFF" stroke-width="1.000000px" stroke="#000000" />
		<text x="2470" y="360" text-anchor="middle" dominant-baseline="middle" font-family="Arial" font-size="10" fill="#000000"></text>
	</g>
	<g>
		<rect x="1380" y="350" width="20" height="20" fill="#FFFFFF" stroke-width="1.000000px" stroke="#000000" />
		<text x="1390" y="360" text-anchor="middle" dominant-baseline="middle" font-family="Arial" font-size="10" fill="#000000"></text>
	</g>
	<g>
		<rect x="1120" y="350" width="20" height="20" fill="#FFFFFF" stroke-width="1.000000px" stroke="#000000" />
		<text x="1130" y="360" text-anchor="middle" dominant-baseline="middle" font-family="Arial" font-size="10" fill="#000000"></text>
	</g>
	<g>
		<rect x="1500" y="350" width="20" height="20" fill="#FFFFFF" stroke-width="1.000000px" stroke="#000000" />
		<text x="1510" y="360" text-anchor="middle" dominant-baseline="middle" font-family="Arial" font-size="10" fill="#000000"></text>
	</g>
	<g>
		<rect x="740" y="1310" width="20" height="20" fill="#FFFFFF" stroke-width="1.000000px" stroke="#000000" />
		<text x="750" y="1320" text-anchor="middle" dominant-baseline="middle" font-family="Arial" font-size="10" fill="#000000"></text>
	</g>
	<g>
		<rect x="2100" y="350" width="20" height="20" fill="#FFFFFF" stroke-width="1.000000px" stroke="#000000" />
		<text x="2110" y="360" text-anchor="middle" dominant-baseline="middle" font-family="Arial" font-size="10" fill="#000000"></text>
	</g>
	<g>
		<rect x="580" y="1310" width="20" height="20" fill="#FFFFFF" stroke-width="1.000000px" stroke="#000000" />
		<text x="590" y="1320" text-anchor="middle" dominant-baseline="middle" font-family="Arial" font-size="10" fill="#000000"></text>
	</g>
	<g>
		<rect x="880" y="1310" width="20" height="20" fill="#FFFFFF" stroke-width="1.000000px" stroke="#000000" />
		<text x="890" y="1320" text-anchor="middle" dominant-baseline="middle" font-family="Arial" font-size="10" fill="#000000"></text>
	</g>
	<g>
		<rect x="620" y="1310" width="20" height="20" fill="#FFFFFF" stroke-width="1.000000px" stroke="#000000" />
		<text x="630" y="1320" text-anchor="middle" dominant-baseline="middle" font-family="Arial" font-size="10" fill="#000000"></text>
	</g>
	<g>
		<rect x="1160" y="1310" width="20" height="20" fill="#FFFFFF" stroke-width="1.000000px" stroke="#000000" />
		<text x="1170" y="1320" text-anchor="middle" dominant-baseline="middle" font-family="Arial" font-size="10" fill="#000000"></text>
	</g>
	<g>
		<rect x="1240" y="1310" width="20" height="20" fill="#FFFFFF" stroke-width="1.000000px" stroke="#000000" />
		<text x="1250" y="1320" text-anchor="middle" dominant-baseline="middle" font-family="Arial" font-size="10" fill="#000000"></text>
	</g>
	<g>
		<rect x="1260" y="1630" width="20" height="20" fill="#FFFFFF" stroke-width="1.000000px" stroke="#000000" />
		<text x="1270" y="1640" text-anchor="middle" dominant-baseline="middle" font-family="Arial" font-size="10" fill="#000000"></text>
	</g>
	<g>
		<rect x="1060" y="1630" width="20" height="20" fill="#FFFFFF" stroke-width="1.000000px" stroke="#000000" />
		<text x="1070" y="1640" text-anchor="middle" dominant-baseline="middle" font-family="Arial" font-size="10" fill="#000000"></text>
	</g>
	<g>
		<rect x="820" y="990" width="20" height="20" fill="#FFFFFF" stroke-width="1.000000px" stroke="#000000" />
		<text x="830" y="1000" text-anchor="middle" dominant-baseline="middle" font-family="Arial" font-size="10" fill="#000000"></text>
	</g>
	<g>
		<rect x="700" y="1630" width="20" height="20" fill="#FFFFFF" stroke-width="1.000000px" stroke="#000000" />
		<text x="710" y="1640" text-anchor="middle" dominant-baseline="middle" font-family="Arial" font-size="10" fill="#000000"></text>
	</g>
	<g>
		<rect x="1300" y="1310" width="20" height="20" fill="#FFFFFF" stroke-width="1.000000px" stroke="#000000" />
		<text x="1310" y="1320" text-anchor="middle" dominant-baseline="middle" font-family="Arial" font-size="10" fill="#000000"></text>
	</g>
	<g>
		<rect x="2240" y="990" width="20" height="20" fill="#FFFFFF" stroke-width="1.000000px" stroke="#000000" />
		<text x="2250" y="1000" text-anchor="middle" dominant-baseline="middle" font-family="Arial" font-size="10" fill="#000000"></text>
	</g>
	<g>
		<rect x="220" y="670" width="20" height="20" fill="#FFFFFF" stroke-width="1.000000px" stroke="#000000" />
		<text x="230" y="680" text-anchor="middle" dominant-baseline="middle" font-family="Arial" font-size="10" fill="#000000"></text>
	</g>
	<g>
		<rect x="1440" y="670" width="20" height="20" fill="#FFFFFF" stroke-width="1.000000px" stroke="#000000" />
		<text x="1450" y="680" text-anchor="middle" dominant-baseline="middle" font-family="Arial" font-size="10" fill="#000000"></text>
	</g>
	<g>
		<rect x="260" y="670" width="20" height="20" fill="#FFFFFF" stroke-width="1.000000px" stroke="#000000" />
		<text x="270" y="680" text-anchor="middle" dominant-baseline="middle" font-family="Arial" font-size="10" fill="#000000"></text>
	</g>
	<g>
		<rect x="1740" y="670" width="20" height="20" fill="#FFFFFF" stroke-width="1.000000px" stroke="#000000" />
		<text x="1750" y="680" text-anchor="middle" dominant-baseline="middle" font-family="Arial" font-size="10" fill="#000000"></text>
	</g>
	<g>
		<rect x="820" y="1310" width="20" height="20" fill="#FFFFFF" stroke-width="1.000000px" stroke="#000000" />
		<text x="830" y="1320" text-anchor="middle" dominant-baseline="middle" font-family="Arial" font-size="10" fill="#000000"></text>
	</g>
	<g>
		<rect x="2460" y="670" width="20" height="20" fill="#FFFFFF" stroke-width="1.000000px" stroke="#000000" />
		<text x="2470" y="680" text-anchor="middle" dominant-baseline="middle" font-family="Arial" font-size="10" fill="#000000"></text>
	</g>
	<g>
		<rect x="220" y="1310" width="20" height="20" fill="#FFFFFF" stroke-width="1.000000px" stroke="#000000" />
		<text x="230" y="1320" text-anchor="middle" dominant-baseline="middle" font-family="Arial" font-size="10" fill="#000000"></text>
	</g>
	<g>
		<rect x="660" y="1310" width="20" height="20" fill="#FFFFFF" stroke-width="1.000000px" stroke="#000000" />
		<text x="670" y="1320" text-anchor="middle" dominant-baseline="middle" font-family="Arial" font-size="10" fill="#000000"></text>
	</g>
	<g>
		<rect x="380" y="1630" width="20" height="20" fill="#FFFFFF" stroke-width="1.000000px" stroke="#000000" />
		<text x="390" y="1640" text-anchor="middle" dominant-baseline="middle" font-family="Arial" font-size="10" fill="#000000"></text>
	</g>
	<g>
		<rect x="1500" y="670" width="20" height="20" fill="#FFFFFF" stroke-width="1.000000px" stroke="#000000" />
		<text x="1510" y="680" text-anchor="middle" dominant-baseline="middle" font-family="Arial" font-size="10" fill="#000000"></text>
	</g>
	<g>
		<rect x="1340" y="670" width="20" height="20" fill="#FFFFFF" stroke-width="1.000000px" stroke="#000000" />
		<text x="1350" y="680" text-anchor="middle" dominant-baseline="middle" font-family="Arial" font-size="10" fill="#000000"></text>
	</g>
	<g>
		<rect x="1380" y="670" width="20" height="20" fill="#FFFFFF" stroke-width="1.000000px" stroke="#000000" />
		<text x="1390" y="680" text-anchor="middle" dominant-baseline="middle" font-family="Arial" font-size="10" fill="#000000"></text>
	</g>
	<g>
		<rect x="740" y="1630" width="20" height="20" fill="#FFFFFF" stroke-width="1.000000px" stroke="#000000" />
		<text x="750" y="1640" text-anchor="middle" dominant-baseline="middle" font-family="Arial" font-size="10" fill="#000000"></text>
	</g>
	<g>
		<rect x="1940" y="670" width="20" height="20" fill="#FFFFFF" stroke-width="1.000000px" stroke="#000000" />
		<text x="1950" y="680" text-anchor="middle" dominant-baseline="middle" font-family="Arial" font-size="10" fill="#000000"></text>
	</g>
	<g>
		<rect x="2220" y="670" width="20" height="20" fill="#FFFFFF" stroke-width="1.000000px" stroke="#000000" />
		<text x="2230" y="680" text-anchor="middle" dominant-baseline="middle" font-family="Arial" font-size="10" fill="#000000"></text>
	</g>
	<g>
		<rect x="2100" y="670" width="20" height="20" fill="#FFFFFF" stroke-width="1.000000px" stroke="#000000" />
		<text x="2110" y="680" text-anchor="middle" dominant-baseline="middle" font-family="Arial" font-size="10" fill="#000000"></text>
	</g>
	<g>
		<rect x="2140" y="670" width="20" height="20" fill="#FFFFFF" stroke-width="1.000000px" stroke="#000000" />
		<text x="2150" y="680" text-anchor="middle" dominant-baseline="middle" font-family="Arial" font-size="10" fill="#000000"></text>
	</g>
	<g>
		<rect x="2180" y="670" width="20" height="20" fill="#FFFFFF" stroke-width="1.000000px" stroke="#000000" />
		<text x="2190" y="680" text-anchor="middle" dominant-baseline="middle" font-family="Arial" font-size="10" fill="#000000"></text>
	</g>
	<g>
		<rect x="2260" y="670" width="20" height="20" fill="#FFFFFF" stroke-width="1.000000px" stroke="#000000" />
		<text x="2270" y="680" text-anchor="middle" dominant-baseline="middle" font-family="Arial" font-size="10" fill="#000000"></text>
	</g>
	<g>
		<rect x="1980" y="670" width="20" height="20" fill="#FFFFFF" stroke-width="1.000000px" stroke="#000000" />
		<text x="1990" y="680" text-anchor="middle" dominant-baseline="middle" font-family="Arial" font-size="10" fill="#000000"></text>
	</g>
	<g>
		<rect x="2020" y="670" width="20" height="20" fill="#FFFFFF" stroke-width="1.000000px" stroke="#000000" />
		<text x="2030" y="680" text-anchor="middle" dominant-baseline="middle" font-family="Arial" font-size="10" fill="#000000"></text>
	</g>
	<g>
		<rect x="2420" y="670" width="20" height="20" fill="#FFFFFF" stroke-width="1.000000px" stroke="#000000" />
		<text x="2430" y="680" text-anchor="middle" dominant-baseline="middle" font-family="Arial" font-size="10" fill="#000000"></text>
	</g>
	<g>
		<rect x="1000" y="990" width="20" height="20" fill="#FFFFFF" stroke-width="1.000000px" stroke="#000000" />
		<text x="1010" y="1000" text-anchor="middle" dominant-baseline="middle" font-family="Arial" font-size="10" fill="#000000"></text>
	</g>
	<g>
		<rect x="2320" y="670" width="20" height="20" fill="#FFFFFF" stroke-width="1.000000px" stroke="#000000" />
		<text x="2330" y="680" text-anchor="middle" dominant-baseline="middle" font-family="Arial" font-size="10" fill="#000000"></text>
	</g>
	<g>
		<rect x="560" y="1630" width="20" height="20" fill="#FFFFFF" stroke-width="1.000000px" stroke="#000000" />
		<text x="570" y="1640" text-anchor="middle" dominant-baseline="middle" font-family="Arial" font-size="10" fill="#000000"></text>
	</g>
	<g>
		<rect x="600" y="1630" width="20" height="20" fill="#FFFFFF" stroke-width="1.000000px" stroke="#000000" />
		<text x="610" y="1640" text-anchor="middle" dominant-baseline="middle" font-family="Arial" font-size="10" fill="#000000"></text>
	</g>
	<g>
		<rect x="1140" y="1630" width="20" height="20" fill="#FFFFFF" stroke-width="1.000000px" stroke="#000000" />
		<text x="1150" y="1640" text-anchor="middle" dominant-baseline="middle" font-family="Arial" font-size="10" fill="#000000"></text>
	</g>
	<g>
		<rect x="1000" y="1630" width="20" height="20" fill="#FFFFFF" stroke-width="1.000000px" stroke="#000000" />
		<text x="1010" y="1640" text-anchor="middle" dominant-baseline="middle" font-family="Arial" font-size="10" fill="#000000"></text>
	</g>
	<g>
		<rect x="1200" y="1630" width="20" height="20" fill="#FFFFFF" stroke-width="1.000000px" stroke="#000000" />
		<text x="1210" y="1640" text-anchor="middle" dominant-baseline="middle" font-family="Arial" font-size="10" fill="#000000"></text>
	</g>
	<g>
		<rect x="1320" y="1630" width="20" height="20" fill="#FFFFFF" stroke-width="1.000000px" stroke="#000000" />
		<text x="1330" y="1640" text-anchor="middle" dominant-baseline="middle" font-family="Arial" font-size="10" fill="#000000"></text>
	</g>
	<g>
		<rect x="2240" y="1310" width="20" height="20" fill="#FFFFFF" stroke-width="1.000000px" stroke="#000000" />
		<text x="2250" y="1320" text-anchor="middle" dominant-baseline="middle" font-family="Arial" font-size="10" fill="#000000"></text>
	</g>
	<g>
		<rect x="160" y="990" width="20" height="20" fill="#FFFFFF" stroke-width="1.000000px" stroke="#000000" />
		<text x="170" y="1000" text-anchor="middle" dominant-baseline="middle" font-family="Arial" font-size="10" fill="#000000"></text>
	</g>
	<g>
		<rect x="100" y="990" width="20" height="20" fill="#FFFFFF" stroke-width="1.000000px" stroke="#000000" />
		<text x="110" y="1000" text-anchor="middle" dominant-baseline="middle" font-family="Arial" font-size="10" fill="#000000"></text>
	</g>
	<g>
		<rect x="1140" y="990" width="20" height="20" fill="#FFFFFF" stroke-width="1.000000px" stroke="#000000" />
		<text x="1150" y="1000" text-anchor="middle" dominant-baseline="middle" font-family="Arial" font-size="10" fill="#000000"></text>
	</g>
	<g>
		<rect x="200" y="1630" width="20" height="20" fill="#FFFFFF" stroke-width="1.000000px" stroke="#000000" />
		<text x="210" y="1640" text-anchor="middle" dominant-baseline="middle" font-family="Arial" font-size="10" fill="#000000"></text>
	</g>
	<g>
		<rect x="240" y="1630" width="20" height="20" fill="#FFFFFF" stroke-width="1.000000px" stroke="#000000" />
		<text x="250" y="1640" text-anchor="middle" dominant-baseline="middle" font-family="Arial" font-size="10" fill="#000000"></text>
	</g>
	<g>
		<rect x="2100" y="990" width="20" height="20" fill="#FFFFFF" stroke-width="1.000000px" stroke="#000000" />
		<text x="2110" y="1000" text-anchor="middle" dominant-baseline="middle" font-family="Arial" font-size="10" fill="#000000"></text>
	</g>
	<g>
		<rect x="940" y="1310" width="20" height="20" fill="#FFFFFF" stroke-width="1.000000px" stroke="#000000" />
		<text x="950" y="1320" text-anchor="middle" dominant-baseline="middle" font-family="Arial" font-size="10" fill="#000000"></text>
	</g>
	<g>
		<rect x="640" y="1630" width="20" height="20" fill="#FFFFFF" stroke-width="1.000000px" stroke="#000000" />
		<text x="650" y="1640" text-anchor="middle" dominant-baseline="middle" font-family="Arial" font-size="10" fill="#000000"></text>
	</g>
	<g>
		<rect x="500" y="990" width="20" height="20" fill="#FFFFFF" stroke-width="1.000000px" stroke="#000000" />
		<text x="510" y="1000" text-anchor="middle" dominant-baseline="middle" font-family="Arial" font-size="10" fill="#000000"></text>
	</g>
	<g>
		<rect x="900" y="990" width="20" height="20" fill="#FFFFFF" stroke-width="1.000000px" stroke="#000000" />
		<text x="910" y="1000" text-anchor="middle" dominant-baseline="middle" font-family="Arial" font-size="10" fill="#000000"></text>
	</g>
	<g>
		<rect x="100" y="1310" width="20" height="20" fill="#FFFFFF" stroke-width="1.000000px" stroke="#000000" />
		<text x="110" y="1320" text-anchor="middle" dominant-baseline="middle" font-family="Arial" font-size="10" fill="#000000"></text>
	</g>
	<g>
		<rect x="640" y="1680" width="20" height="20" fill="#FFFFFF" stroke-width="1.000000px" stroke="#000000" />
		<text x="650" y="1690" text-anchor="middle" dominant-baseline="middle" font-family="Arial" font-size="10" fill="#000000"></text>
	</g>
</svg>
