<?xml version="1.0"?>
<svg xmlns="http://www.w3.org/2000/svg" xmlns:xlink="http://www.w3.org/1999/xlink" xmlns:ev="http://www.w3.org/2001/xml-events" version="1.1" baseProfile="full" viewBox="28.5 28.5 1423 1269.67">
	<g>
		<g>
			<path fill="none" d=" M740,326.667 L40,580" stroke="#000000" stroke-width="1.000000px" />
		</g>
		<g>
			<path fill="none" d=" M40,580 L40,900" stroke="#000000" stroke-width="1.000000px" />
		</g>
		<g>
			<path fill="none" d=" M40,900 L40,1160" stroke="#000000" stroke-width="1.000000px" />
		</g>
		<g>
			<path fill="none" d=" M40,1160 L40,1286.67" stroke="#000000" stroke-width="1.000000px" />
		</g>
		<g>
			<path fill="none" d=" M1240,580 L1240,900" stroke="#000000" stroke-width="1.000000px" />
		</g>
		<g>
			<path fill="none" d=" M1240,900 L720,1160" stroke="#000000" stroke-width="1.000000px" />
		</g>
		<g>
			<path fill="none" d=" M720,1160 L1040,1286.67" stroke="#000000" stroke-width="1.000000px" />
		</g>
		<g>
			<path fill="none" d=" M960,1160 L1040,1286.67" stroke="#000000" stroke-width="1.000000px" />
		</g>
		<g>
			<path fill="none" d=" M1000,1160 L1040,1286.67" stroke="#000000" stroke-width="1.000000px" />
		</g>
		<g>
			<path fill="none" d=" M1040,1160 L1040,1286.67" stroke="#000000" stroke-width="1.000000px" />
		</g>
		<g>
			<path fill="none" d=" M1080,1160 L1040,1286.67" stroke="#000000" stroke-width="1.000000px" />
		</g>
		<g>
			<path fill="none" d=" M1120,1160 L1040,1286.67" stroke="#000000" stroke-width="1.000000px" />
		</g>
		<g>
			<path fill="none" d=" M1160,1160 L1040,1286.67" stroke="#000000" stroke-width="1.000000px" />
		</g>
		<g>
			<path fill="none" d=" M1440,900 L720,1160" stroke="#000000" stroke-width="1.000000px" />
		</g>
		<g>
			<path fill="none" d=" M1440,580 L1440,900" stroke="#000000" stroke-width="1.000000px" />
		</g>
		<g>
			<path fill="none" d=" M160,900 L720,1160" stroke="#000000" stroke-width="1.000000px" />
		</g>
		<g>
			<path fill="none" d=" M180,580 L160,900" stroke="#000000" stroke-width="1.000000px" />
		</g>
		<g>
			<path fill="none" d=" M240,900 L720,1160" stroke="#000000" stroke-width="1.000000px" />
		</g>
		<g>
			<path fill="none" d=" M280,900 L720,1160" stroke="#000000" stroke-width="1.000000px" />
		</g>
		<g>
			<path fill="none" d=" M320,900 L720,1160" stroke="#000000" stroke-width="1.000000px" />
		</g>
		<g>
			<path fill="none" d=" M360,900 L720,1160" stroke="#000000" stroke-width="1.000000px" />
		</g>
		<g>
			<path fill="none" d=" M400,900 L720,1160" stroke="#000000" stroke-width="1.000000px" />
		</g>
		<g>
			<path fill="none" d=" M440,900 L720,1160" stroke="#000000" stroke-width="1.000000px" />
		</g>
		<g>
			<path fill="none" d=" M480,900 L720,1160" stroke="#000000" stroke-width="1.000000px" />
		</g>
		<g>
			<path fill="none" d=" M520,900 L720,1160" stroke="#000000" stroke-width="1.000000px" />
		</g>
		<g>
			<path fill="none" d=" M560,900 L720,1160" stroke="#000000" stroke-width="1.000000px" />
		</g>
		<g>
			<path fill="none" d=" M600,900 L720,1160" stroke="#000000" stroke-width="1.000000px" />
		</g>
		<g>
			<path fill="none" d=" M640,900 L720,1160" stroke="#000000" stroke-width="1.000000px" />
		</g>
		<g>
			<path fill="none" d=" M680,900 L720,1160" stroke="#000000" stroke-width="1.000000px" />
		</g>
		<g>
			<path fill="none" d=" M1340,580 L1240,900" stroke="#000000" stroke-width="1.000000px" />
		</g>
		<g>
			<path fill="none" d=" M1340,580 L720,1160" stroke="#000000" stroke-width="1.000000px" />
		</g>
		<g>
			<path fill="none" d=" M720,900 L720,1160" stroke="#000000" stroke-width="1.000000px" />
		</g>
		<g>
			<path fill="none" d=" M720,580 L1240,900" stroke="#000000" stroke-width="1.000000px" />
		</g>
		<g>
			<path fill="none" d=" M720,580 L720,1160" stroke="#000000" stroke-width="1.000000px" />
		</g>
		<g>
			<path fill="none" d=" M80,580 L1240,900" stroke="#000000" stroke-width="1.000000px" />
		</g>
		<g>
			<path fill="none" d=" M80,580 L720,1160" stroke="#000000" stroke-width="1.000000px" />
		</g>
		<g>
			<path fill="none" d=" M1200,580 L1240,900" stroke="#000000" stroke-width="1.000000px" />
		</g>
		<g>
			<path fill="none" d=" M1200,580 L720,1160" stroke="#000000" stroke-width="1.000000px" />
		</g>
		<g>
			<path fill="none" d=" M760,900 L720,1160" stroke="#000000" stroke-width="1.000000px" />
		</g>
		<g>
			<path fill="none" d=" M800,900 L720,1160" stroke="#000000" stroke-width="1.000000px" />
		</g>
		<g>
			<path fill="none" d=" M1280,580 L1240,900" stroke="#000000" stroke-width="1.000000px" />
		</g>
		<g>
			<path fill="none" d=" M1280,580 L720,1160" stroke="#000000" stroke-width="1.000000px" />
		</g>
		<g>
			<path fill="none" d=" M840,900 L720,1160" stroke="#000000" stroke-width="1.000000px" />
		</g>
		<g>
			<path fill="none" d=" M1400,580 L1240,900" stroke="#000000" stroke-width="1.000000px" />
		</g>
		<g>
			<path fill="none" d=" M1400,580 L720,1160" stroke="#000000" stroke-width="1.000000px" />
		</g>
		<g>
			<path fill="none" d=" M880,900 L720,1160" stroke="#000000" stroke-width="1.000000px" />
		</g>
		<g>
			<path fill="none" d=" M920,900 L720,1160" stroke="#000000" stroke-width="1.000000px" />
		</g>
		<g>
			<path fill="none" d=" M960,900 L720,1160" stroke="#000000" stroke-width="1.000000px" />
		</g>
		<g>
			<path fill="none" d=" M1000,900 L720,1160" stroke="#000000" stroke-width="1.000000px" />
		</g>
		<g>
			<path fill="none" d=" M1040,900 L720,1160" stroke="#000000" stroke-width="1.000000px" />
		</g>
		<g>
			<path fill="none" d=" M1080,900 L720,1160" stroke="#000000" stroke-width="1.000000px" />
		</g>
		<g>
			<path fill="none" d=" M1120,900 L720,1160" stroke="#000000" stroke-width="1.000000px" />
		</g>
		<g>
			<path fill="none" d=" M140,580 L1240,900" stroke="#000000" stroke-width="1.000000px" />
		</g>
		<g>
			<path fill="none" d=" M140,580 L720,1160" stroke="#000000" stroke-width="1.000000px" />
		</g>
		<g>
			<path fill="none" d=" M1240,326.667 L1240,580" stroke="#000000" stroke-width="1.000000px" />
		</g>
		<g>
			<path fill="none" d=" M1240,276.667 L1240,326.667" stroke="#000000" stroke-width="1.000000px" />
		</g>
		<g>
			<path fill="none" d=" M1240,226.667 L1240,276.667" stroke="#000000" stroke-width="1.000000px" />
		</g>
		<g>
			<path fill="none" d=" M1100,160 L1240,226.667" stroke="#000000" stroke-width="1.000000px" />
		</g>
		<g>
			<path fill="none" d=" M800,40 L1100,160" stroke="#000000" stroke-width="1.000000px" />
		</g>
		<g>
			<path fill="none" d=" M840,40 L1100,160" stroke="#000000" stroke-width="1.000000px" />
		</g>
		<g>
			<path fill="none" d=" M880,40 L1100,160" stroke="#000000" stroke-width="1.000000px" />
		</g>
		<g>
			<path fill="none" d=" M920,40 L1100,160" stroke="#000000" stroke-width="1.000000px" />
		</g>
		<g>
			<path fill="none" d=" M960,40 L1100,160" stroke="#000000" stroke-width="1.000000px" />
		</g>
		<g>
			<path fill="none" d=" M1000,40 L1100,160" stroke="#000000" stroke-width="1.000000px" />
		</g>
		<g>
			<path fill="none" d=" M1040,40 L1100,160" stroke="#000000" stroke-width="1.000000px" />
		</g>
		<g>
			<path fill="none" d=" M1080,40 L1100,160" stroke="#000000" stroke-width="1.000000px" />
		</g>
		<g>
			<path fill="none" d=" M1120,40 L1100,160" stroke="#000000" stroke-width="1.000000px" />
		</g>
		<g>
			<path fill="none" d=" M1160,40 L1100,160" stroke="#000000" stroke-width="1.000000px" />
		</g>
		<g>
			<path fill="none" d=" M1200,40 L1100,160" stroke="#000000" stroke-width="1.000000px" />
		</g>
		<g>
			<path fill="none" d=" M1240,40 L1100,160" stroke="#000000" stroke-width="1.000000px" />
		</g>
		<g>
			<path fill="none" d=" M1280,40 L1100,160" stroke="#000000" stroke-width="1.000000px" />
		</g>
		<g>
			<path fill="none" d=" M1320,40 L1100,160" stroke="#000000" stroke-width="1.000000px" />
		</g>
		<g>
			<path fill="none" d=" M1360,40 L1100,160" stroke="#000000" stroke-width="1.000000px" />
		</g>
		<g>
			<path fill="none" d=" M1400,40 L1100,160" stroke="#000000" stroke-width="1.000000px" />
		</g>
		<g>
			<path fill="none" d=" M1240,160 L1240,226.667" stroke="#000000" stroke-width="1.000000px" />
		</g>
		<g>
			<path fill="none" d=" M1280,160 L1240,226.667" stroke="#000000" stroke-width="1.000000px" />
		</g>
		<g>
			<path fill="none" d=" M740,326.667 L1440,580" stroke="#000000" stroke-width="1.000000px" />
		</g>
	</g>
	<g>
		<rect x="730" y="316.66666666666663" width="20" height="20" fill="#FFFFFF" stroke-width="1.000000px" stroke="#000000" />
		<text x="740" y="326.66666666666663" text-anchor="middle" dominant-baseline="middle" font-family="Arial" font-size="10" fill="#000000"></text>
	</g>
	<g>
		<rect x="30" y="570" width="20" height="20" fill="#FFFFFF" stroke-width="1.000000px" stroke="#000000" />
		<text x="40" y="580" text-anchor="middle" dominant-baseline="middle" font-family="Arial" font-size="10" fill="#000000"></text>
	</g>
	<g>
		<rect x="30" y="890" width="20" height="20" fill="#FFFFFF" stroke-width="1.000000px" stroke="#000000" />
		<text x="40" y="900" text-anchor="middle" dominant-baseline="middle" font-family="Arial" font-size="10" fill="#000000"></text>
	</g>
	<g>
		<rect x="30" y="1150" width="20" height="20" fill="#FFFFFF" stroke-width="1.000000px" stroke="#000000" />
		<text x="40" y="1160" text-anchor="middle" dominant-baseline="middle" font-family="Arial" font-size="10" fill="#000000"></text>
	</g>
	<g>
		<rect x="30" y="1276.6666666666667" width="20" height="20" fill="#FFFFFF" stroke-width="1.000000px" stroke="#000000" />
		<text x="40" y="1286.6666666666667" text-anchor="middle" dominant-baseline="middle" font-family="Arial" font-size="10" fill="#000000"></text>
	</g>
	<g>
		<rect x="1230" y="570" width="20" height="20" fill="#FFFFFF" stroke-width="1.000000px" stroke="#000000" />
		<text x="1240" y="580" text-anchor="middle" dominant-baseline="middle" font-family="Arial" font-size="10" fill="#000000"></text>
	</g>
	<g>
		<rect x="1230" y="890" width="20" height="20" fill="#FFFFFF" stroke-width="1.000000px" stroke="#000000" />
		<text x="1240" y="900" text-anchor="middle" dominant-baseline="middle" font-family="Arial" font-size="10" fill="#000000"></text>
	</g>
	<g>
		<rect x="1230" y="316.66666666666663" width="20" height="20" fill="#FFFFFF" stroke-width="1.000000px" stroke="#000000" />
		<text x="1240" y="326.66666666666663" text-anchor="middle" dominant-baseline="middle" font-family="Arial" font-size="10" fill="#000000"></text>
	</g>
	<g>
		<rect x="710" y="1150" width="20" height="20" fill="#FFFFFF" stroke-width="1.000000px" stroke="#000000" />
		<text x="720" y="1160" text-anchor="middle" dominant-baseline="middle" font-family="Arial" font-size="10" fill="#000000"></text>
	</g>
	<g>
		<rect x="1030" y="1276.6666666666667" width="20" height="20" fill="#FFFFFF" stroke-width="1.000000px" stroke="#000000" />
		<text x="1040" y="1286.6666666666667" text-anchor="middle" dominant-baseline="middle" font-family="Arial" font-size="10" fill="#000000"></text>
	</g>
	<g>
		<rect x="1230" y="266.66666666666663" width="20" height="20" fill="#FFFFFF" stroke-width="1.000000px" stroke="#000000" />
		<text x="1240" y="276.66666666666663" text-anchor="middle" dominant-baseline="middle" font-family="Arial" font-size="10" fill="#000000"></text>
	</g>
	<g>
		<rect x="1230" y="216.66666666666666" width="20" height="20" fill="#FFFFFF" stroke-width="1.000000px" stroke="#000000" />
		<text x="1240" y="226.66666666666666" text-anchor="middle" dominant-baseline="middle" font-family="Arial" font-size="10" fill="#000000"></text>
	</g>
	<g>
		<rect x="1090" y="150" width="20" height="20" fill="#FFFFFF" stroke-width="1.000000px" stroke="#000000" />
		<text x="1100" y="160" text-anchor="middle" dominant-baseline="middle" font-family="Arial" font-size="10" fill="#000000"></text>
	</g>
	<g>
		<rect x="1430" y="570" width="20" height="20" fill="#FFFFFF" stroke-width="1.000000px" stroke="#000000" />
		<text x="1440" y="580" text-anchor="middle" dominant-baseline="middle" font-family="Arial" font-size="10" fill="#000000"></text>
	</g>
	<g>
		<rect x="1430" y="890" width="20" height="20" fill="#FFFFFF" stroke-width="1.000000px" stroke="#000000" />
		<text x="1440" y="900" text-anchor="middle" dominant-baseline="middle" font-family="Arial" font-size="10" fill="#000000"></text>
	</g>
	<g>
		<rect x="790" y="30" width="20" height="20" fill="#FFFFFF" stroke-width="1.000000px" stroke="#000000" />
		<text x="800" y="40" text-anchor="middle" dominant-baseline="middle" font-family="Arial" font-size="10" fill="#000000"></text>
	</g>
	<g>
		<rect x="830" y="30" width="20" height="20" fill="#FFFFFF" stroke-width="1.000000px" stroke="#000000" />
		<text x="840" y="40" text-anchor="middle" dominant-baseline="middle" font-family="Arial" font-size="10" fill="#000000"></text>
	</g>
	<g>
		<rect x="870" y="30" width="20" height="20" fill="#FFFFFF" stroke-width="1.000000px" stroke="#000000" />
		<text x="880" y="40" text-anchor="middle" dominant-baseline="middle" font-family="Arial" font-size="10" fill="#000000"></text>
	</g>
	<g>
		<rect x="910" y="30" width="20" height="20" fill="#FFFFFF" stroke-width="1.000000px" stroke="#000000" />
		<text x="920" y="40" text-anchor="middle" dominant-baseline="middle" font-family="Arial" font-size="10" fill="#000000"></text>
	</g>
	<g>
		<rect x="950" y="30" width="20" height="20" fill="#FFFFFF" stroke-width="1.000000px" stroke="#000000" />
		<text x="960" y="40" text-anchor="middle" dominant-baseline="middle" font-family="Arial" font-size="10" fill="#000000"></text>
	</g>
	<g>
		<rect x="150" y="890" width="20" height="20" fill="#FFFFFF" stroke-width="1.000000px" stroke="#000000" />
		<text x="160" y="900" text-anchor="middle" dominant-baseline="middle" font-family="Arial" font-size="10" fill="#000000"></text>
	</g>
	<g>
		<rect x="990" y="30" width="20" height="20" fill="#FFFFFF" stroke-width="1.000000px" stroke="#000000" />
		<text x="1000" y="40" text-anchor="middle" dominant-baseline="middle" font-family="Arial" font-size="10" fill="#000000"></text>
	</g>
	<g>
		<rect x="230" y="890" width="20" height="20" fill="#FFFFFF" stroke-width="1.000000px" stroke="#000000" />
		<text x="240" y="900" text-anchor="middle" dominant-baseline="middle" font-family="Arial" font-size="10" fill="#000000"></text>
	</g>
	<g>
		<rect x="1030" y="30" width="20" height="20" fill="#FFFFFF" stroke-width="1.000000px" stroke="#000000" />
		<text x="1040" y="40" text-anchor="middle" dominant-baseline="middle" font-family="Arial" font-size="10" fill="#000000"></text>
	</g>
	<g>
		<rect x="270" y="890" width="20" height="20" fill="#FFFFFF" stroke-width="1.000000px" stroke="#000000" />
		<text x="280" y="900" text-anchor="middle" dominant-baseline="middle" font-family="Arial" font-size="10" fill="#000000"></text>
	</g>
	<g>
		<rect x="310" y="890" width="20" height="20" fill="#FFFFFF" stroke-width="1.000000px" stroke="#000000" />
		<text x="320" y="900" text-anchor="middle" dominant-baseline="middle" font-family="Arial" font-size="10" fill="#000000"></text>
	</g>
	<g>
		<rect x="350" y="890" width="20" height="20" fill="#FFFFFF" stroke-width="1.000000px" stroke="#000000" />
		<text x="360" y="900" text-anchor="middle" dominant-baseline="middle" font-family="Arial" font-size="10" fill="#000000"></text>
	</g>
	<g>
		<rect x="390" y="890" width="20" height="20" fill="#FFFFFF" stroke-width="1.000000px" stroke="#000000" />
		<text x="400" y="900" text-anchor="middle" dominant-baseline="middle" font-family="Arial" font-size="10" fill="#000000"></text>
	</g>
	<g>
		<rect x="430" y="890" width="20" height="20" fill="#FFFFFF" stroke-width="1.000000px" stroke="#000000" />
		<text x="440" y="900" text-anchor="middle" dominant-baseline="middle" font-family="Arial" font-size="10" fill="#000000"></text>
	</g>
	<g>
		<rect x="470" y="890" width="20" height="20" fill="#FFFFFF" stroke-width="1.000000px" stroke="#000000" />
		<text x="480" y="900" text-anchor="middle" dominant-baseline="middle" font-family="Arial" font-size="10" fill="#000000"></text>
	</g>
	<g>
		<rect x="510" y="890" width="20" height="20" fill="#FFFFFF" stroke-width="1.000000px" stroke="#000000" />
		<text x="520" y="900" text-anchor="middle" dominant-baseline="middle" font-family="Arial" font-size="10" fill="#000000"></text>
	</g>
	<g>
		<rect x="550" y="890" width="20" height="20" fill="#FFFFFF" stroke-width="1.000000px" stroke="#000000" />
		<text x="560" y="900" text-anchor="middle" dominant-baseline="middle" font-family="Arial" font-size="10" fill="#000000"></text>
	</g>
	<g>
		<rect x="1070" y="30" width="20" height="20" fill="#FFFFFF" stroke-width="1.000000px" stroke="#000000" />
		<text x="1080" y="40" text-anchor="middle" dominant-baseline="middle" font-family="Arial" font-size="10" fill="#000000"></text>
	</g>
	<g>
		<rect x="590" y="890" width="20" height="20" fill="#FFFFFF" stroke-width="1.000000px" stroke="#000000" />
		<text x="600" y="900" text-anchor="middle" dominant-baseline="middle" font-family="Arial" font-size="10" fill="#000000"></text>
	</g>
	<g>
		<rect x="630" y="890" width="20" height="20" fill="#FFFFFF" stroke-width="1.000000px" stroke="#000000" />
		<text x="640" y="900" text-anchor="middle" dominant-baseline="middle" font-family="Arial" font-size="10" fill="#000000"></text>
	</g>
	<g>
		<rect x="670" y="890" width="20" height="20" fill="#FFFFFF" stroke-width="1.000000px" stroke="#000000" />
		<text x="680" y="900" text-anchor="middle" dominant-baseline="middle" font-family="Arial" font-size="10" fill="#000000"></text>
	</g>
	<g>
		<rect x="1330" y="570" width="20" height="20" fill="#FFFFFF" stroke-width="1.000000px" stroke="#000000" />
		<text x="1340" y="580" text-anchor="middle" dominant-baseline="middle" font-family="Arial" font-size="10" fill="#000000"></text>
	</g>
	<g>
		<rect x="710" y="890" width="20" height="20" fill="#FFFFFF" stroke-width="1.000000px" stroke="#000000" />
		<text x="720" y="900" text-anchor="middle" dominant-baseline="middle" font-family="Arial" font-size="10" fill="#000000"></text>
	</g>
	<g>
		<rect x="710" y="570" width="20" height="20" fill="#FFFFFF" stroke-width="1.000000px" stroke="#000000" />
		<text x="720" y="580" text-anchor="middle" dominant-baseline="middle" font-family="Arial" font-size="10" fill="#000000"></text>
	</g>
	<g>
		<rect x="70" y="570" width="20" height="20" fill="#FFFFFF" stroke-width="1.000000px" stroke="#000000" />
		<text x="80" y="580" text-anchor="middle" dominant-baseline="middle" font-family="Arial" font-size="10" fill="#000000"></text>
	</g>
	<g>
		<rect x="1190" y="570" width="20" height="20" fill="#FFFFFF" stroke-width="1.000000px" stroke="#000000" />
		<text x="1200" y="580" text-anchor="middle" dominant-baseline="middle" font-family="Arial" font-size="10" fill="#000000"></text>
	</g>
	<g>
		<rect x="750" y="890" width="20" height="20" fill="#FFFFFF" stroke-width="1.000000px" stroke="#000000" />
		<text x="760" y="900" text-anchor="middle" dominant-baseline="middle" font-family="Arial" font-size="10" fill="#000000"></text>
	</g>
	<g>
		<rect x="790" y="890" width="20" height="20" fill="#FFFFFF" stroke-width="1.000000px" stroke="#000000" />
		<text x="800" y="900" text-anchor="middle" dominant-baseline="middle" font-family="Arial" font-size="10" fill="#000000"></text>
	</g>
	<g>
		<rect x="1110" y="30" width="20" height="20" fill="#FFFFFF" stroke-width="1.000000px" stroke="#000000" />
		<text x="1120" y="40" text-anchor="middle" dominant-baseline="middle" font-family="Arial" font-size="10" fill="#000000"></text>
	</g>
	<g>
		<rect x="170" y="570" width="20" height="20" fill="#FFFFFF" stroke-width="1.000000px" stroke="#000000" />
		<text x="180" y="580" text-anchor="middle" dominant-baseline="middle" font-family="Arial" font-size="10" fill="#000000"></text>
	</g>
	<g>
		<rect x="1270" y="570" width="20" height="20" fill="#FFFFFF" stroke-width="1.000000px" stroke="#000000" />
		<text x="1280" y="580" text-anchor="middle" dominant-baseline="middle" font-family="Arial" font-size="10" fill="#000000"></text>
	</g>
	<g>
		<rect x="830" y="890" width="20" height="20" fill="#FFFFFF" stroke-width="1.000000px" stroke="#000000" />
		<text x="840" y="900" text-anchor="middle" dominant-baseline="middle" font-family="Arial" font-size="10" fill="#000000"></text>
	</g>
	<g>
		<rect x="1150" y="30" width="20" height="20" fill="#FFFFFF" stroke-width="1.000000px" stroke="#000000" />
		<text x="1160" y="40" text-anchor="middle" dominant-baseline="middle" font-family="Arial" font-size="10" fill="#000000"></text>
	</g>
	<g>
		<rect x="1190" y="30" width="20" height="20" fill="#FFFFFF" stroke-width="1.000000px" stroke="#000000" />
		<text x="1200" y="40" text-anchor="middle" dominant-baseline="middle" font-family="Arial" font-size="10" fill="#000000"></text>
	</g>
	<g>
		<rect x="1230" y="30" width="20" height="20" fill="#FFFFFF" stroke-width="1.000000px" stroke="#000000" />
		<text x="1240" y="40" text-anchor="middle" dominant-baseline="middle" font-family="Arial" font-size="10" fill="#000000"></text>
	</g>
	<g>
		<rect x="950" y="1150" width="20" height="20" fill="#FFFFFF" stroke-width="1.000000px" stroke="#000000" />
		<text x="960" y="1160" text-anchor="middle" dominant-baseline="middle" font-family="Arial" font-size="10" fill="#000000"></text>
	</g>
	<g>
		<rect x="1270" y="30" width="20" height="20" fill="#FFFFFF" stroke-width="1.000000px" stroke="#000000" />
		<text x="1280" y="40" text-anchor="middle" dominant-baseline="middle" font-family="Arial" font-size="10" fill="#000000"></text>
	</g>
	<g>
		<rect x="990" y="1150" width="20" height="20" fill="#FFFFFF" stroke-width="1.000000px" stroke="#000000" />
		<text x="1000" y="1160" text-anchor="middle" dominant-baseline="middle" font-family="Arial" font-size="10" fill="#000000"></text>
	</g>
	<g>
		<rect x="1390" y="570" width="20" height="20" fill="#FFFFFF" stroke-width="1.000000px" stroke="#000000" />
		<text x="1400" y="580" text-anchor="middle" dominant-baseline="middle" font-family="Arial" font-size="10" fill="#000000"></text>
	</g>
	<g>
		<rect x="870" y="890" width="20" height="20" fill="#FFFFFF" stroke-width="1.000000px" stroke="#000000" />
		<text x="880" y="900" text-anchor="middle" dominant-baseline="middle" font-family="Arial" font-size="10" fill="#000000"></text>
	</g>
	<g>
		<rect x="1030" y="1150" width="20" height="20" fill="#FFFFFF" stroke-width="1.000000px" stroke="#000000" />
		<text x="1040" y="1160" text-anchor="middle" dominant-baseline="middle" font-family="Arial" font-size="10" fill="#000000"></text>
	</g>
	<g>
		<rect x="1070" y="1150" width="20" height="20" fill="#FFFFFF" stroke-width="1.000000px" stroke="#000000" />
		<text x="1080" y="1160" text-anchor="middle" dominant-baseline="middle" font-family="Arial" font-size="10" fill="#000000"></text>
	</g>
	<g>
		<rect x="1110" y="1150" width="20" height="20" fill="#FFFFFF" stroke-width="1.000000px" stroke="#000000" />
		<text x="1120" y="1160" text-anchor="middle" dominant-baseline="middle" font-family="Arial" font-size="10" fill="#000000"></text>
	</g>
	<g>
		<rect x="1150" y="1150" width="20" height="20" fill="#FFFFFF" stroke-width="1.000000px" stroke="#000000" />
		<text x="1160" y="1160" text-anchor="middle" dominant-baseline="middle" font-family="Arial" font-size="10" fill="#000000"></text>
	</g>
	<g>
		<rect x="1310" y="30" width="20" height="20" fill="#FFFFFF" stroke-width="1.000000px" stroke="#000000" />
		<text x="1320" y="40" text-anchor="middle" dominant-baseline="middle" font-family="Arial" font-size="10" fill="#000000"></text>
	</g>
	<g>
		<rect x="1350" y="30" width="20" height="20" fill="#FFFFFF" stroke-width="1.000000px" stroke="#000000" />
		<text x="1360" y="40" text-anchor="middle" dominant-baseline="middle" font-family="Arial" font-size="10" fill="#000000"></text>
	</g>
	<g>
		<rect x="1390" y="30" width="20" height="20" fill="#FFFFFF" stroke-width="1.000000px" stroke="#000000" />
		<text x="1400" y="40" text-anchor="middle" dominant-baseline="middle" font-family="Arial" font-size="10" fill="#000000"></text>
	</g>
	<g>
		<rect x="910" y="890" width="20" height="20" fill="#FFFFFF" stroke-width="1.000000px" stroke="#000000" />
		<text x="920" y="900" text-anchor="middle" dominant-baseline="middle" font-family="Arial" font-size="10" fill="#000000"></text>
	</g>
	<g>
		<rect x="950" y="890" width="20" height="20" fill="#FFFFFF" stroke-width="1.000000px" stroke="#000000" />
		<text x="960" y="900" text-anchor="middle" dominant-baseline="middle" font-family="Arial" font-size="10" fill="#000000"></text>
	</g>
	<g>
		<rect x="990" y="890" width="20" height="20" fill="#FFFFFF" stroke-width="1.000000px" stroke="#000000" />
		<text x="1000" y="900" text-anchor="middle" dominant-baseline="middle" font-family="Arial" font-size="10" fill="#000000"></text>
	</g>
	<g>
		<rect x="1030" y="890" width="20" height="20" fill="#FFFFFF" stroke-width="1.000000px" stroke="#000000" />
		<text x="1040" y="900" text-anchor="middle" dominant-baseline="middle" font-family="Arial" font-size="10" fill="#000000"></text>
	</g>
	<g>
		<rect x="1070" y="890" width="20" height="20" fill="#FFFFFF" stroke-width="1.000000px" stroke="#000000" />
		<text x="1080" y="900" text-anchor="middle" dominant-baseline="middle" font-family="Arial" font-size="10" fill="#000000"></text>
	</g>
	<g>
		<rect x="1110" y="890" width="20" height="20" fill="#FFFFFF" stroke-width="1.000000px" stroke="#000000" />
		<text x="1120" y="900" text-anchor="middle" dominant-baseline="middle" font-family="Arial" font-size="10" fill="#000000"></text>
	</g>
	<g>
		<rect x="130" y="570" width="20" height="20" fill="#FFFFFF" stroke-width="1.000000px" stroke="#000000" />
		<text x="140" y="580" text-anchor="middle" dominant-baseline="middle" font-family="Arial" font-size="10" fill="#000000"></text>
	</g>
	<g>
		<rect x="1230" y="150" width="20" height="20" fill="#FFFFFF" stroke-width="1.000000px" stroke="#000000" />
		<text x="1240" y="160" text-anchor="middle" dominant-baseline="middle" font-family="Arial" font-size="10" fill="#000000"></text>
	</g>
	<g>
		<rect x="1270" y="150" width="20" height="20" fill="#FFFFFF" stroke-width="1.000000px" stroke="#000000" />
		<text x="1280" y="160" text-anchor="middle" dominant-baseline="middle" font-family="Arial" font-size="10" fill="#000000"></text>
	</g>
</svg>
