<?xml version="1.0"?>
<svg xmlns="http://www.w3.org/2000/svg" xmlns:xlink="http://www.w3.org/1999/xlink" xmlns:ev="http://www.w3.org/2001/xml-events" version="1.1" baseProfile="full" viewBox="28.5 28.5 8063 9307.17">
	<g>
		<g>
			<path fill="none" d=" M7610,40 L7610,90" stroke="#000000" stroke-width="1.000000px" />
		</g>
		<g>
			<path fill="none" d=" M7610,90 L7450,270" stroke="#000000" stroke-width="1.000000px" />
		</g>
		<g>
			<path fill="none" d=" M7610,90 L7450,320" stroke="#000000" stroke-width="1.000000px" />
		</g>
		<g>
			<path fill="none" d=" M7610,90 L7570,270 M7570,270 L7450,540" stroke="#000000" stroke-width="1.000000px" />
		</g>
		<g>
			<path fill="none" d=" M7610,90 L7330,270 M7330,270 L7330,320 M7330,320 L7670,673.333" stroke="#000000" stroke-width="1.000000px" />
		</g>
		<g>
			<path fill="none" d=" M7610,90 L7370,270 M7370,270 L7370,673.333 M7370,673.333 L6880,910 M6880,910 L6880,1230 M6880,1230 L6650,1503.33 M6650,1503.33 L6650,1823.33 M6650,1823.33 L6330,2143.33 M6330,2143.33 L6330,2724.17 M6330,2724.17 L5930,3044.17 M5930,3044.17 L5410,3277.5 M5410,3277.5 L5090,3597.5 M5090,3597.5 L4570,3917.5 M4570,3917.5 L3850,4237.5 M3850,4237.5 L3470,4557.5 M3470,4557.5 L3470,4877.5 M3470,4877.5 L2870,5197.5 M2870,5197.5 L2870,5624.17 M2870,5624.17 L2470,5944.17 M2470,5944.17 L1910,6264.17 M1910,6264.17 L1790,6584.17 M1790,6584.17 L1790,7224.17 M1790,7224.17 L1150,7510.83 M1150,7510.83 L750,7830.83 M750,7830.83 L750,8350.83 M750,8350.83 L110,8584.17 M110,8584.17 L110,9204.17 M110,9204.17 L110,9324.17" stroke="#000000" stroke-width="1.000000px" />
		</g>
		<g>
			<path fill="none" d=" M7610,90 L7610,270 M7610,270 L7610,910 M7610,910 L6530,1230 M6530,1230 L6530,1823.33 M6530,1823.33 L6990,2404.17" stroke="#000000" stroke-width="1.000000px" />
		</g>
		<g>
			<path fill="none" d=" M7610,90 L7650,270 M7650,270 L7650,540 M7650,540 L7530,673.333 M7530,673.333 L7530,1503.33 M7530,1503.33 L6570,1823.33 M6570,1823.33 L6570,2724.17 M6570,2724.17 L5570,3044.17 M5570,3044.17 L4970,3277.5 M4970,3277.5 L4970,3597.5 M4970,3597.5 L4690,3917.5 M4690,3917.5 L4010,4237.5 M4010,4237.5 L3110,4557.5 M3110,4557.5 L2910,4877.5 M2910,4877.5 L2910,5624.17 M2910,5624.17 L1430,5944.17 M1430,5944.17 L1430,6904.17 M1430,6904.17 L1350,7510.83" stroke="#000000" stroke-width="1.000000px" />
		</g>
		<g>
			<path fill="none" d=" M7610,90 L7250,270 M7250,270 L7250,673.333 M7250,673.333 L6690,910 M6690,910 L6690,2143.33 M6690,2143.33 L6530,2404.17 M6530,2404.17 L6530,2724.17 M6530,2724.17 L6010,3044.17 M6010,3044.17 L5490,3277.5 M5490,3277.5 L5490,3597.5 M5490,3597.5 L4070,4237.5" stroke="#000000" stroke-width="1.000000px" />
		</g>
		<g>
			<path fill="none" d=" M7610,90 L7810,270 M7810,270 L7810,1503.33 M7810,1503.33 L7090,1823.33 M7090,1823.33 L6730,2143.33 M6730,2143.33 L6370,2404.17 M6370,2404.17 L6370,2724.17 M6370,2724.17 L5970,3044.17 M5970,3044.17 L5450,3277.5 M5450,3277.5 L5130,3597.5 M5130,3597.5 L4530,3917.5 M4530,3917.5 L3630,4557.5" stroke="#000000" stroke-width="1.000000px" />
		</g>
		<g>
			<path fill="none" d=" M7610,90 L7410,270 M7410,270 L7410,673.333 M7410,673.333 L7130,910 M7130,910 L7130,1823.33 M7130,1823.33 L6770,2143.33 M6770,2143.33 L6770,3917.5 M6770,3917.5 L4210,4237.5 M4210,4237.5 L3810,4557.5 M3810,4557.5 L3810,4877.5 M3810,4877.5 L3760,5304.17" stroke="#000000" stroke-width="1.000000px" />
		</g>
		<g>
			<path fill="none" d=" M7610,90 L7970,270 M7970,270 L7970,910 M7970,910 L7850,1230 M7850,1230 L7850,2404.17 M7850,2404.17 L6730,2724.17 M6730,2724.17 L6730,3917.5 M6730,3917.5 L4170,4237.5 M4170,4237.5 L3670,4557.5 M3670,4557.5 L3670,5624.17 M3670,5624.17 L2030,6264.17" stroke="#000000" stroke-width="1.000000px" />
		</g>
		<g>
			<path fill="none" d=" M7610,90 L7930,270 M7930,270 L7930,7224.17 M7930,7224.17 L1970,7830.83" stroke="#000000" stroke-width="1.000000px" />
		</g>
		<g>
			<path fill="none" d=" M7610,90 L8010,270 M8010,270 L8010,8584.17 M8010,8584.17 L240,8954.17" stroke="#000000" stroke-width="1.000000px" />
		</g>
		<g>
			<path fill="none" d=" M7610,90 L8050,270 M8050,270 L8050,1230 M8050,1230 L7890,1823.33" stroke="#000000" stroke-width="1.000000px" />
		</g>
		<g>
			<path fill="none" d=" M7610,90 L8090,270 M8090,270 L8090,320 M8090,320 L7490,540 M7490,540 L7490,673.333 M7490,673.333 L7170,910 M7170,910 L7170,1230 M7170,1230 L6410,1503.33 M6410,1503.33 L6410,2724.17 M6410,2724.17 L5530,3044.17 M5530,3044.17 L6810,3597.5" stroke="#000000" stroke-width="1.000000px" />
		</g>
		<g>
			<path fill="none" d=" M7610,90 L7690,270 M7690,270 L7690,540 M7690,540 L7570,673.333 M7570,673.333 L6920,910 M6920,910 L6920,1230 M6920,1230 L6450,1503.33 M6450,1503.33 L6450,1823.33 M6450,1823.33 L6130,2143.33 M6130,2143.33 L6130,2724.17 M6130,2724.17 L5650,3044.17 M5650,3044.17 L5370,3277.5 M5370,3277.5 L4490,3917.5 M4490,3917.5 L3510,4237.5 M3510,4237.5 L3510,4877.5 M3510,4877.5 L3510,5304.17" stroke="#000000" stroke-width="1.000000px" />
		</g>
		<g>
			<path fill="none" d=" M7610,90 L7290,270 M7290,270 L7290,320 M7290,320 L7210,540 M7210,540 L7210,1823.33 M7210,1823.33 L6930,2143.33 M6930,2143.33 L6930,2404.17 M6930,2404.17 L6090,2724.17 M6090,2724.17 L5610,3044.17 M5610,3044.17 L5010,3277.5 M5010,3277.5 L4370,3597.5 M4370,3597.5 L4370,3917.5 M4370,3917.5 L3310,4237.5 M3310,4237.5 L3310,4877.5 M3310,4877.5 L2790,5197.5 M2790,5197.5 L2790,5624.17 M2790,5624.17 L2350,5944.17 M2350,5944.17 L1870,6264.17 M1870,6264.17 L1850,6904.17" stroke="#000000" stroke-width="1.000000px" />
		</g>
		<g>
			<path fill="none" d=" M7450,270 L7450,320" stroke="#000000" stroke-width="1.000000px" />
		</g>
		<g>
			<path fill="none" d=" M7450,320 L7450,540" stroke="#000000" stroke-width="1.000000px" />
		</g>
		<g>
			<path fill="none" d=" M7450,540 L7670,673.333" stroke="#000000" stroke-width="1.000000px" />
		</g>
		<g>
			<path fill="none" d=" M7670,673.333 L7650,910" stroke="#000000" stroke-width="1.000000px" />
		</g>
		<g>
			<path fill="none" d=" M7670,673.333 L7710,910" stroke="#000000" stroke-width="1.000000px" />
		</g>
		<g>
			<path fill="none" d=" M7670,673.333 L7770,910 M7770,910 L7770,1503.33 M7770,1503.33 L7712.5,2143.33" stroke="#000000" stroke-width="1.000000px" />
		</g>
		<g>
			<path fill="none" d=" M7650,910 L6490,1230 M6490,1230 L6490,1823.33 M6490,1823.33 L6170,2143.33 M6170,2143.33 L6170,2724.17 M6170,2724.17 L5690,3044.17 M5690,3044.17 L5050,3277.5 M5050,3277.5 L4550,3597.5 M4550,3597.5 L3150,3917.5 M3150,3917.5 L3150,4557.5 M3150,4557.5 L2950,4877.5 M2950,4877.5 L2150,5197.5 M2150,5197.5 L2150,5944.17 M2150,5944.17 L1590,6264.17 M1590,6264.17 L830,6584.17 M830,6584.17 L830,7510.83 M830,7510.83 L390,7830.83 M390,7830.83 L390,8250.83 M390,8250.83 L150,8350.83 M150,8350.83 L150,9204.17 M150,9204.17 L110,9324.17" stroke="#000000" stroke-width="1.000000px" />
		</g>
		<g>
			<path fill="none" d=" M7650,910 L6960,1503.33" stroke="#000000" stroke-width="1.000000px" />
		</g>
		<g>
			<path fill="none" d=" M6960,1503.33 L7050,1823.33 M7050,1823.33 L7050,2404.17 M7050,2404.17 L6690,2724.17 M6690,2724.17 L6690,3044.17 M6690,3044.17 L6610,3277.5 M6610,3277.5 L5250,3597.5 M5250,3597.5 L3030,3917.5 M3030,3917.5 L3030,4877.5 M3030,4877.5 L2310,5197.5 M2310,5197.5 L2310,5944.17 M2310,5944.17 L1750,6264.17 M1750,6264.17 L1750,6904.17 M1750,6904.17 L1390,7224.17 M1390,7224.17 L1110,7510.83 M1110,7510.83 L710,7830.83 M710,7830.83 L350,8150.83 M350,8150.83 L350,9004.17 M350,9004.17 L270,9054.17 M270,9054.17 L270,9104.17 M270,9104.17 L30,9204.17 M30,9204.17 L110,9324.17" stroke="#000000" stroke-width="1.000000px" />
		</g>
		<g>
			<path fill="none" d=" M6960,1503.33 L6870,1823.33" stroke="#000000" stroke-width="1.000000px" />
		</g>
		<g>
			<path fill="none" d=" M6610,1230 L6960,1503.33" stroke="#000000" stroke-width="1.000000px" />
		</g>
		<g>
			<path fill="none" d=" M6610,1230 L6610,1503.33" stroke="#000000" stroke-width="1.000000px" />
		</g>
		<g>
			<path fill="none" d=" M6610,1230 L6870,1823.33" stroke="#000000" stroke-width="1.000000px" />
		</g>
		<g>
			<path fill="none" d=" M6610,1503.33 L6610,1823.33 M6610,1823.33 L6610,2143.33 M6610,2143.33 L6490,2404.17 M6490,2404.17 L6050,2724.17 M6050,2724.17 L6050,3277.5 M6050,3277.5 L2990,3597.5 M2990,3597.5 L2990,4877.5 M2990,4877.5 L2510,5197.5 M2510,5197.5 L2510,5944.17 M2510,5944.17 L1950,6264.17 M1950,6264.17 L1950,6584.17 M1950,6584.17 L590,6904.17 M590,6904.17 L590,8634.17 M590,8634.17 L70,8954.17 M70,8954.17 L70,9204.17 M70,9204.17 L110,9324.17" stroke="#000000" stroke-width="1.000000px" />
		</g>
		<g>
			<path fill="none" d=" M6610,1503.33 L7890,1823.33" stroke="#000000" stroke-width="1.000000px" />
		</g>
		<g>
			<path fill="none" d=" M7890,1823.33 L6850,2143.33" stroke="#000000" stroke-width="1.000000px" />
		</g>
		<g>
			<path fill="none" d=" M7890,1823.33 L7890,2143.33 M7890,2143.33 L7890,2404.17 M7890,2404.17 L6850,2724.17 M6850,2724.17 L6870,3277.5" stroke="#000000" stroke-width="1.000000px" />
		</g>
		<g>
			<path fill="none" d=" M6850,2143.33 L6850,2404.17" stroke="#000000" stroke-width="1.000000px" />
		</g>
		<g>
			<path fill="none" d=" M6850,2143.33 L6810,2724.17" stroke="#000000" stroke-width="1.000000px" />
		</g>
		<g>
			<path fill="none" d=" M6850,2143.33 L6890,2404.17 M6890,2404.17 L6890,3044.17" stroke="#000000" stroke-width="1.000000px" />
		</g>
		<g>
			<path fill="none" d=" M6850,2404.17 L6810,2724.17" stroke="#000000" stroke-width="1.000000px" />
		</g>
		<g>
			<path fill="none" d=" M6810,2724.17 L6890,3044.17" stroke="#000000" stroke-width="1.000000px" />
		</g>
		<g>
			<path fill="none" d=" M6890,3044.17 L6870,3277.5" stroke="#000000" stroke-width="1.000000px" />
		</g>
		<g>
			<path fill="none" d=" M6870,3277.5 L6810,3597.5" stroke="#000000" stroke-width="1.000000px" />
		</g>
		<g>
			<path fill="none" d=" M6810,3597.5 L4630,3917.5" stroke="#000000" stroke-width="1.000000px" />
		</g>
		<g>
			<path fill="none" d=" M6810,3597.5 L6810,3917.5 M6810,3917.5 L4250,4237.5 M4250,4237.5 L3850,4557.5 M3850,4557.5 L3770,5197.5" stroke="#000000" stroke-width="1.000000px" />
		</g>
		<g>
			<path fill="none" d=" M4630,3917.5 L3970,4237.5" stroke="#000000" stroke-width="1.000000px" />
		</g>
		<g>
			<path fill="none" d=" M4630,3917.5 L3950,4557.5" stroke="#000000" stroke-width="1.000000px" />
		</g>
		<g>
			<path fill="none" d=" M4630,3917.5 L3890,4237.5 M3890,4237.5 L3920,4877.5" stroke="#000000" stroke-width="1.000000px" />
		</g>
		<g>
			<path fill="none" d=" M3970,4237.5 L3950,4557.5" stroke="#000000" stroke-width="1.000000px" />
		</g>
		<g>
			<path fill="none" d=" M3950,4557.5 L3920,4877.5" stroke="#000000" stroke-width="1.000000px" />
		</g>
		<g>
			<path fill="none" d=" M3920,4877.5 L3770,5197.5" stroke="#000000" stroke-width="1.000000px" />
		</g>
		<g>
			<path fill="none" d=" M3770,5197.5 L3510,5304.17" stroke="#000000" stroke-width="1.000000px" />
		</g>
		<g>
			<path fill="none" d=" M3510,5304.17 L1960,5624.17" stroke="#000000" stroke-width="1.000000px" />
		</g>
		<g>
			<path fill="none" d=" M3510,5304.17 L3510,5624.17 M3510,5624.17 L3510,5944.17 M3510,5944.17 L2070,6264.17 M2070,6264.17 L2070,6584.17 M2070,6584.17 L2090,7224.17" stroke="#000000" stroke-width="1.000000px" />
		</g>
		<g>
			<path fill="none" d=" M1960,5624.17 L1810,5944.17" stroke="#000000" stroke-width="1.000000px" />
		</g>
		<g>
			<path fill="none" d=" M1960,5624.17 L2110,5944.17 M2110,5944.17 L2110,6264.17 M2110,6264.17 L2110,6904.17" stroke="#000000" stroke-width="1.000000px" />
		</g>
		<g>
			<path fill="none" d=" M1810,5944.17 L1550,6264.17" stroke="#000000" stroke-width="1.000000px" />
		</g>
		<g>
			<path fill="none" d=" M1810,5944.17 L1530,6584.17" stroke="#000000" stroke-width="1.000000px" />
		</g>
		<g>
			<path fill="none" d=" M1550,6264.17 L1530,6584.17" stroke="#000000" stroke-width="1.000000px" />
		</g>
		<g>
			<path fill="none" d=" M1530,6584.17 L2110,6904.17" stroke="#000000" stroke-width="1.000000px" />
		</g>
		<g>
			<path fill="none" d=" M2110,6904.17 L2090,7224.17" stroke="#000000" stroke-width="1.000000px" />
		</g>
		<g>
			<path fill="none" d=" M2090,7224.17 L1350,7510.83" stroke="#000000" stroke-width="1.000000px" />
		</g>
		<g>
			<path fill="none" d=" M1350,7510.83 L2030,7830.83" stroke="#000000" stroke-width="1.000000px" />
		</g>
		<g>
			<path fill="none" d=" M2030,7830.83 L930,8150.83" stroke="#000000" stroke-width="1.000000px" />
		</g>
		<g>
			<path fill="none" d=" M5730,3044.17 L5130,3277.5 M5130,3277.5 L4890,3597.5 M4890,3597.5 L4450,3917.5 M4450,3917.5 L3230,4237.5 M3230,4237.5 L3230,4877.5 M3230,4877.5 L2550,5197.5 M2550,5197.5 L2350,5304.17 M2350,5304.17 L2350,5624.17 M2350,5624.17 L2190,5944.17 M2190,5944.17 L1670,6264.17 M1670,6264.17 L1670,6584.17 M1670,6584.17 L1350,6904.17 M1350,6904.17 L1350,7224.17 M1350,7224.17 L1070,7510.83 M1070,7510.83 L930,8150.83" stroke="#000000" stroke-width="1.000000px" />
		</g>
		<g>
			<path fill="none" d=" M5730,3044.17 L5090,3277.5" stroke="#000000" stroke-width="1.000000px" />
		</g>
		<g>
			<path fill="none" d=" M5090,3277.5 L4770,3597.5 M4770,3597.5 L4770,3917.5 M4770,3917.5 L4130,4237.5 M4130,4237.5 L3550,4557.5 M3550,4557.5 L3550,5624.17 M3550,5624.17 L1990,6264.17 M1990,6264.17 L1990,7224.17 M1990,7224.17 L1190,7510.83 M1190,7510.83 L930,8150.83" stroke="#000000" stroke-width="1.000000px" />
		</g>
		<g>
			<path fill="none" d=" M5090,3277.5 L4590,3597.5" stroke="#000000" stroke-width="1.000000px" />
		</g>
		<g>
			<path fill="none" d=" M4590,3597.5 L4290,3917.5 M4290,3917.5 L4290,6264.17 M4290,6264.17 L2030,6584.17 M2030,6584.17 L2030,7224.17 M2030,7224.17 L2030,7830.83" stroke="#000000" stroke-width="1.000000px" />
		</g>
		<g>
			<path fill="none" d=" M4590,3597.5 L4730,3917.5" stroke="#000000" stroke-width="1.000000px" />
		</g>
		<g>
			<path fill="none" d=" M4730,3917.5 L3590,4237.5 M3590,4237.5 L3590,4877.5 M3590,4877.5 L2670,5197.5 M2670,5197.5 L2670,5304.17 M2670,5304.17 L2430,5624.17 M2430,5624.17 L2230,5944.17 M2230,5944.17 L1630,6264.17 M1630,6264.17 L1630,6584.17 M1630,6584.17 L1270,6904.17 M1270,6904.17 L1350,7510.83" stroke="#000000" stroke-width="1.000000px" />
		</g>
		<g>
			<path fill="none" d=" M4730,3917.5 L4070,4237.5" stroke="#000000" stroke-width="1.000000px" />
		</g>
		<g>
			<path fill="none" d=" M4070,4237.5 L3390,4557.5" stroke="#000000" stroke-width="1.000000px" />
		</g>
		<g>
			<path fill="none" d=" M4070,4237.5 L3390,4877.5" stroke="#000000" stroke-width="1.000000px" />
		</g>
		<g>
			<path fill="none" d=" M4070,4237.5 L3270,4557.5 M3270,4557.5 L3270,4877.5 M3270,4877.5 L2710,5197.5 M2710,5197.5 L2830,5624.17" stroke="#000000" stroke-width="1.000000px" />
		</g>
		<g>
			<path fill="none" d=" M4070,4237.5 L3350,4557.5 M3350,4557.5 L3350,4877.5 M3350,4877.5 L2750,5197.5 M2750,5197.5 L2750,5304.17 M2750,5304.17 L2470,5624.17 M2470,5624.17 L2270,5944.17 M2270,5944.17 L1830,6584.17" stroke="#000000" stroke-width="1.000000px" />
		</g>
		<g>
			<path fill="none" d=" M3390,4557.5 L3390,4877.5" stroke="#000000" stroke-width="1.000000px" />
		</g>
		<g>
			<path fill="none" d=" M3390,4877.5 L2590,5197.5" stroke="#000000" stroke-width="1.000000px" />
		</g>
		<g>
			<path fill="none" d=" M3390,4877.5 L2630,5304.17" stroke="#000000" stroke-width="1.000000px" />
		</g>
		<g>
			<path fill="none" d=" M2590,5197.5 L2630,5304.17" stroke="#000000" stroke-width="1.000000px" />
		</g>
		<g>
			<path fill="none" d=" M2630,5304.17 L2830,5624.17" stroke="#000000" stroke-width="1.000000px" />
		</g>
		<g>
			<path fill="none" d=" M2830,5624.17 L2430,5944.17" stroke="#000000" stroke-width="1.000000px" />
		</g>
		<g>
			<path fill="none" d=" M2830,5624.17 L2410,6264.17" stroke="#000000" stroke-width="1.000000px" />
		</g>
		<g>
			<path fill="none" d=" M2430,5944.17 L2410,6264.17" stroke="#000000" stroke-width="1.000000px" />
		</g>
		<g>
			<path fill="none" d=" M2410,6264.17 L1830,6584.17" stroke="#000000" stroke-width="1.000000px" />
		</g>
		<g>
			<path fill="none" d=" M1830,6584.17 L1850,6904.17" stroke="#000000" stroke-width="1.000000px" />
		</g>
		<g>
			<path fill="none" d=" M1850,6904.17 L930,7224.17" stroke="#000000" stroke-width="1.000000px" />
		</g>
		<g>
			<path fill="none" d=" M1850,6904.17 L1230,7224.17 M1230,7224.17 L1230,7510.83 M1230,7510.83 L830,7830.83 M830,7830.83 L830,8150.83 M830,8150.83 L880,8250.83" stroke="#000000" stroke-width="1.000000px" />
		</g>
		<g>
			<path fill="none" d=" M930,7224.17 L910,7510.83" stroke="#000000" stroke-width="1.000000px" />
		</g>
		<g>
			<path fill="none" d=" M930,7224.17 L630,7830.83" stroke="#000000" stroke-width="1.000000px" />
		</g>
		<g>
			<path fill="none" d=" M930,7224.17 L950,7510.83 M950,7510.83 L870,8150.83" stroke="#000000" stroke-width="1.000000px" />
		</g>
		<g>
			<path fill="none" d=" M930,7224.17 L990,7510.83 M990,7510.83 L990,7830.83 M990,7830.83 L930,8200.83" stroke="#000000" stroke-width="1.000000px" />
		</g>
		<g>
			<path fill="none" d=" M910,7510.83 L630,7830.83" stroke="#000000" stroke-width="1.000000px" />
		</g>
		<g>
			<path fill="none" d=" M630,7830.83 L870,8150.83" stroke="#000000" stroke-width="1.000000px" />
		</g>
		<g>
			<path fill="none" d=" M870,8150.83 L930,8200.83" stroke="#000000" stroke-width="1.000000px" />
		</g>
		<g>
			<path fill="none" d=" M930,8200.83 L880,8250.83" stroke="#000000" stroke-width="1.000000px" />
		</g>
		<g>
			<path fill="none" d=" M5790,3044.17 L5170,3277.5 M5170,3277.5 L4730,3917.5" stroke="#000000" stroke-width="1.000000px" />
		</g>
		<g>
			<path fill="none" d=" M5790,3044.17 L5250,3277.5" stroke="#000000" stroke-width="1.000000px" />
		</g>
		<g>
			<path fill="none" d=" M5790,3044.17 L5210,3597.5" stroke="#000000" stroke-width="1.000000px" />
		</g>
		<g>
			<path fill="none" d=" M5250,3277.5 L5210,3597.5" stroke="#000000" stroke-width="1.000000px" />
		</g>
		<g>
			<path fill="none" d=" M5210,3597.5 L4410,3917.5" stroke="#000000" stroke-width="1.000000px" />
		</g>
		<g>
			<path fill="none" d=" M4410,3917.5 L3190,4237.5" stroke="#000000" stroke-width="1.000000px" />
		</g>
		<g>
			<path fill="none" d=" M3190,4237.5 L3630,4557.5" stroke="#000000" stroke-width="1.000000px" />
		</g>
		<g>
			<path fill="none" d=" M3630,4557.5 L3710,4877.5" stroke="#000000" stroke-width="1.000000px" />
		</g>
		<g>
			<path fill="none" d=" M3630,4557.5 L3710,5197.5" stroke="#000000" stroke-width="1.000000px" />
		</g>
		<g>
			<path fill="none" d=" M3710,4877.5 L3710,5197.5" stroke="#000000" stroke-width="1.000000px" />
		</g>
		<g>
			<path fill="none" d=" M3710,5197.5 L3760,5304.17" stroke="#000000" stroke-width="1.000000px" />
		</g>
		<g>
			<path fill="none" d=" M3760,5304.17 L3740,5624.17" stroke="#000000" stroke-width="1.000000px" />
		</g>
		<g>
			<path fill="none" d=" M3760,5304.17 L3760,5944.17" stroke="#000000" stroke-width="1.000000px" />
		</g>
		<g>
			<path fill="none" d=" M3740,5624.17 L3760,5944.17" stroke="#000000" stroke-width="1.000000px" />
		</g>
		<g>
			<path fill="none" d=" M3760,5944.17 L2030,6264.17" stroke="#000000" stroke-width="1.000000px" />
		</g>
		<g>
			<path fill="none" d=" M2030,6264.17 L530,6584.17" stroke="#000000" stroke-width="1.000000px" />
		</g>
		<g>
			<path fill="none" d=" M2030,6264.17 L1310,6584.17 M1310,6584.17 L1310,6904.17 M1310,6904.17 L1030,7510.83" stroke="#000000" stroke-width="1.000000px" />
		</g>
		<g>
			<path fill="none" d=" M530,6584.17 L510,6904.17" stroke="#000000" stroke-width="1.000000px" />
		</g>
		<g>
			<path fill="none" d=" M530,6584.17 L1030,7224.17" stroke="#000000" stroke-width="1.000000px" />
		</g>
		<g>
			<path fill="none" d=" M510,6904.17 L1030,7224.17" stroke="#000000" stroke-width="1.000000px" />
		</g>
		<g>
			<path fill="none" d=" M1030,7224.17 L1030,7510.83" stroke="#000000" stroke-width="1.000000px" />
		</g>
		<g>
			<path fill="none" d=" M1030,7510.83 L1970,7830.83" stroke="#000000" stroke-width="1.000000px" />
		</g>
		<g>
			<path fill="none" d=" M1970,7830.83 L550,8150.83" stroke="#000000" stroke-width="1.000000px" />
		</g>
		<g>
			<path fill="none" d=" M1970,7830.83 L430,8150.83 M430,8150.83 L430,8250.83 M430,8250.83 L230,8350.83 M230,8350.83 L240,8634.17" stroke="#000000" stroke-width="1.000000px" />
		</g>
		<g>
			<path fill="none" d=" M550,8150.83 L550,8200.83" stroke="#000000" stroke-width="1.000000px" />
		</g>
		<g>
			<path fill="none" d=" M550,8150.83 L470,8200.83 M470,8200.83 L470,8250.83 M470,8250.83 L270,8584.17" stroke="#000000" stroke-width="1.000000px" />
		</g>
		<g>
			<path fill="none" d=" M550,8200.83 L550,8250.83" stroke="#000000" stroke-width="1.000000px" />
		</g>
		<g>
			<path fill="none" d=" M550,8200.83 L530,8350.83" stroke="#000000" stroke-width="1.000000px" />
		</g>
		<g>
			<path fill="none" d=" M550,8250.83 L530,8350.83" stroke="#000000" stroke-width="1.000000px" />
		</g>
		<g>
			<path fill="none" d=" M530,8350.83 L270,8584.17" stroke="#000000" stroke-width="1.000000px" />
		</g>
		<g>
			<path fill="none" d=" M270,8584.17 L240,8634.17" stroke="#000000" stroke-width="1.000000px" />
		</g>
		<g>
			<path fill="none" d=" M240,8634.17 L240,8954.17" stroke="#000000" stroke-width="1.000000px" />
		</g>
		<g>
			<path fill="none" d=" M240,8954.17 L200,9004.17" stroke="#000000" stroke-width="1.000000px" />
		</g>
		<g>
			<path fill="none" d=" M240,8954.17 L210,9054.17" stroke="#000000" stroke-width="1.000000px" />
		</g>
		<g>
			<path fill="none" d=" M240,8954.17 L310,9004.17 M310,9004.17 L310,9104.17 M310,9104.17 L260,9254.17" stroke="#000000" stroke-width="1.000000px" />
		</g>
		<g>
			<path fill="none" d=" M200,9004.17 L210,9054.17" stroke="#000000" stroke-width="1.000000px" />
		</g>
		<g>
			<path fill="none" d=" M210,9054.17 L230,9104.17" stroke="#000000" stroke-width="1.000000px" />
		</g>
		<g>
			<path fill="none" d=" M210,9054.17 L210,9204.17" stroke="#000000" stroke-width="1.000000px" />
		</g>
		<g>
			<path fill="none" d=" M230,9104.17 L210,9204.17" stroke="#000000" stroke-width="1.000000px" />
		</g>
		<g>
			<path fill="none" d=" M210,9204.17 L260,9254.17" stroke="#000000" stroke-width="1.000000px" />
		</g>
		<g>
			<path fill="none" d=" M260,9254.17 L110,9324.17" stroke="#000000" stroke-width="1.000000px" />
		</g>
		<g>
			<path fill="none" d=" M6990,2404.17 L6650,2724.17 M6650,2724.17 L6650,3917.5 M6650,3917.5 L3070,4237.5 M3070,4237.5 L3070,4557.5 M3070,4557.5 L1470,4877.5 M1470,4877.5 L1470,6264.17 M1470,6264.17 L790,6584.17 M790,6584.17 L790,6904.17 M790,6904.17 L1350,7510.83" stroke="#000000" stroke-width="1.000000px" />
		</g>
		<g>
			<path fill="none" d=" M6990,2404.17 L6230,2724.17" stroke="#000000" stroke-width="1.000000px" />
		</g>
		<g>
			<path fill="none" d=" M6990,2404.17 L6290,2724.17 M6290,2724.17 L5850,3044.17 M5850,3044.17 L5290,3277.5 M5290,3277.5 L4810,3597.5 M4810,3597.5 L3190,4237.5" stroke="#000000" stroke-width="1.000000px" />
		</g>
		<g>
			<path fill="none" d=" M6230,2724.17 L5730,3044.17" stroke="#000000" stroke-width="1.000000px" />
		</g>
		<g>
			<path fill="none" d=" M6230,2724.17 L5790,3044.17" stroke="#000000" stroke-width="1.000000px" />
		</g>
		<g>
			<path fill="none" d=" M6230,2724.17 L5890,3044.17 M5890,3044.17 L5330,3277.5 M5330,3277.5 L4410,3917.5" stroke="#000000" stroke-width="1.000000px" />
		</g>
		<g>
			<path fill="none" d=" M7712.5,2143.33 L6990,2404.17" stroke="#000000" stroke-width="1.000000px" />
		</g>
		<g>
			<path fill="none" d=" M7655,1823.33 L7712.5,2143.33" stroke="#000000" stroke-width="1.000000px" />
		</g>
		<g>
			<path fill="none" d=" M7710,910 L6610,1230" stroke="#000000" stroke-width="1.000000px" />
		</g>
		<g>
			<path fill="none" d=" M7710,910 L7720,1230" stroke="#000000" stroke-width="1.000000px" />
		</g>
		<g>
			<path fill="none" d=" M7710,910 L7655,1503.33" stroke="#000000" stroke-width="1.000000px" />
		</g>
		<g>
			<path fill="none" d=" M7710,910 L7615,1230 M7615,1230 L7655,1823.33" stroke="#000000" stroke-width="1.000000px" />
		</g>
		<g>
			<path fill="none" d=" M7720,1230 L7655,1503.33" stroke="#000000" stroke-width="1.000000px" />
		</g>
		<g>
			<path fill="none" d=" M7655,1503.33 L7655,1823.33" stroke="#000000" stroke-width="1.000000px" />
		</g>
	</g>
	<g>
		<rect x="7600" y="30" width="20" height="20" fill="#FFFFFF" stroke-width="1.000000px" stroke="#000000" />
		<text x="7610" y="40" text-anchor="middle" dominant-baseline="middle" font-family="Arial" font-size="10" fill="#000000"></text>
	</g>
	<g>
		<rect x="7600" y="80" width="20" height="20" fill="#FFFFFF" stroke-width="1.000000px" stroke="#000000" />
		<text x="7610" y="90" text-anchor="middle" dominant-baseline="middle" font-family="Arial" font-size="10" fill="#000000"></text>
	</g>
	<g>
		<rect x="7440" y="260" width="20" height="20" fill="#FFFFFF" stroke-width="1.000000px" stroke="#000000" />
		<text x="7450" y="270" text-anchor="middle" dominant-baseline="middle" font-family="Arial" font-size="10" fill="#000000"></text>
	</g>
	<g>
		<rect x="7440" y="310" width="20" height="20" fill="#FFFFFF" stroke-width="1.000000px" stroke="#000000" />
		<text x="7450" y="320" text-anchor="middle" dominant-baseline="middle" font-family="Arial" font-size="10" fill="#000000"></text>
	</g>
	<g>
		<rect x="7440" y="530" width="20" height="20" fill="#FFFFFF" stroke-width="1.000000px" stroke="#000000" />
		<text x="7450" y="540" text-anchor="middle" dominant-baseline="middle" font-family="Arial" font-size="10" fill="#000000"></text>
	</g>
	<g>
		<rect x="7660" y="663.33333333333337" width="20" height="20" fill="#FFFFFF" stroke-width="1.000000px" stroke="#000000" />
		<text x="7670" y="673.33333333333337" text-anchor="middle" dominant-baseline="middle" font-family="Arial" font-size="10" fill="#000000"></text>
	</g>
	<g>
		<rect x="7640" y="900" width="20" height="20" fill="#FFFFFF" stroke-width="1.000000px" stroke="#000000" />
		<text x="7650" y="910" text-anchor="middle" dominant-baseline="middle" font-family="Arial" font-size="10" fill="#000000"></text>
	</g>
	<g>
		<rect x="7700" y="900" width="20" height="20" fill="#FFFFFF" stroke-width="1.000000px" stroke="#000000" />
		<text x="7710" y="910" text-anchor="middle" dominant-baseline="middle" font-family="Arial" font-size="10" fill="#000000"></text>
	</g>
	<g>
		<rect x="100" y="9314.1666666666679" width="20" height="20" fill="#FFFFFF" stroke-width="1.000000px" stroke="#000000" />
		<text x="110" y="9324.1666666666679" text-anchor="middle" dominant-baseline="middle" font-family="Arial" font-size="10" fill="#000000"></text>
	</g>
	<g>
		<rect x="6950" y="1493.3333333333335" width="20" height="20" fill="#FFFFFF" stroke-width="1.000000px" stroke="#000000" />
		<text x="6960" y="1503.3333333333335" text-anchor="middle" dominant-baseline="middle" font-family="Arial" font-size="10" fill="#000000"></text>
	</g>
	<g>
		<rect x="6600" y="1220" width="20" height="20" fill="#FFFFFF" stroke-width="1.000000px" stroke="#000000" />
		<text x="6610" y="1230" text-anchor="middle" dominant-baseline="middle" font-family="Arial" font-size="10" fill="#000000"></text>
	</g>
	<g>
		<rect x="7710" y="1220" width="20" height="20" fill="#FFFFFF" stroke-width="1.000000px" stroke="#000000" />
		<text x="7720" y="1230" text-anchor="middle" dominant-baseline="middle" font-family="Arial" font-size="10" fill="#000000"></text>
	</g>
	<g>
		<rect x="6600" y="1493.3333333333335" width="20" height="20" fill="#FFFFFF" stroke-width="1.000000px" stroke="#000000" />
		<text x="6610" y="1503.3333333333335" text-anchor="middle" dominant-baseline="middle" font-family="Arial" font-size="10" fill="#000000"></text>
	</g>
	<g>
		<rect x="7645" y="1493.3333333333335" width="20" height="20" fill="#FFFFFF" stroke-width="1.000000px" stroke="#000000" />
		<text x="7655" y="1503.3333333333335" text-anchor="middle" dominant-baseline="middle" font-family="Arial" font-size="10" fill="#000000"></text>
	</g>
	<g>
		<rect x="7645" y="1813.3333333333335" width="20" height="20" fill="#FFFFFF" stroke-width="1.000000px" stroke="#000000" />
		<text x="7655" y="1823.3333333333335" text-anchor="middle" dominant-baseline="middle" font-family="Arial" font-size="10" fill="#000000"></text>
	</g>
	<g>
		<rect x="7702.5" y="2133.3333333333335" width="20" height="20" fill="#FFFFFF" stroke-width="1.000000px" stroke="#000000" />
		<text x="7712.5" y="2143.3333333333335" text-anchor="middle" dominant-baseline="middle" font-family="Arial" font-size="10" fill="#000000"></text>
	</g>
	<g>
		<rect x="6980" y="2394.166666666667" width="20" height="20" fill="#FFFFFF" stroke-width="1.000000px" stroke="#000000" />
		<text x="6990" y="2404.166666666667" text-anchor="middle" dominant-baseline="middle" font-family="Arial" font-size="10" fill="#000000"></text>
	</g>
	<g>
		<rect x="1340" y="7500.8333333333339" width="20" height="20" fill="#FFFFFF" stroke-width="1.000000px" stroke="#000000" />
		<text x="1350" y="7510.8333333333339" text-anchor="middle" dominant-baseline="middle" font-family="Arial" font-size="10" fill="#000000"></text>
	</g>
	<g>
		<rect x="6220" y="2714.166666666667" width="20" height="20" fill="#FFFFFF" stroke-width="1.000000px" stroke="#000000" />
		<text x="6230" y="2724.166666666667" text-anchor="middle" dominant-baseline="middle" font-family="Arial" font-size="10" fill="#000000"></text>
	</g>
	<g>
		<rect x="2020" y="7820.8333333333339" width="20" height="20" fill="#FFFFFF" stroke-width="1.000000px" stroke="#000000" />
		<text x="2030" y="7830.8333333333339" text-anchor="middle" dominant-baseline="middle" font-family="Arial" font-size="10" fill="#000000"></text>
	</g>
	<g>
		<rect x="5720" y="3034.166666666667" width="20" height="20" fill="#FFFFFF" stroke-width="1.000000px" stroke="#000000" />
		<text x="5730" y="3044.166666666667" text-anchor="middle" dominant-baseline="middle" font-family="Arial" font-size="10" fill="#000000"></text>
	</g>
	<g>
		<rect x="5780" y="3034.166666666667" width="20" height="20" fill="#FFFFFF" stroke-width="1.000000px" stroke="#000000" />
		<text x="5790" y="3044.166666666667" text-anchor="middle" dominant-baseline="middle" font-family="Arial" font-size="10" fill="#000000"></text>
	</g>
	<g>
		<rect x="920" y="8140.8333333333339" width="20" height="20" fill="#FFFFFF" stroke-width="1.000000px" stroke="#000000" />
		<text x="930" y="8150.8333333333339" text-anchor="middle" dominant-baseline="middle" font-family="Arial" font-size="10" fill="#000000"></text>
	</g>
	<g>
		<rect x="5080" y="3267.5000000000005" width="20" height="20" fill="#FFFFFF" stroke-width="1.000000px" stroke="#000000" />
		<text x="5090" y="3277.5000000000005" text-anchor="middle" dominant-baseline="middle" font-family="Arial" font-size="10" fill="#000000"></text>
	</g>
	<g>
		<rect x="4720" y="3907.5000000000005" width="20" height="20" fill="#FFFFFF" stroke-width="1.000000px" stroke="#000000" />
		<text x="4730" y="3917.5000000000005" text-anchor="middle" dominant-baseline="middle" font-family="Arial" font-size="10" fill="#000000"></text>
	</g>
	<g>
		<rect x="5240" y="3267.5000000000005" width="20" height="20" fill="#FFFFFF" stroke-width="1.000000px" stroke="#000000" />
		<text x="5250" y="3277.5000000000005" text-anchor="middle" dominant-baseline="middle" font-family="Arial" font-size="10" fill="#000000"></text>
	</g>
	<g>
		<rect x="4060" y="4227.5" width="20" height="20" fill="#FFFFFF" stroke-width="1.000000px" stroke="#000000" />
		<text x="4070" y="4237.5" text-anchor="middle" dominant-baseline="middle" font-family="Arial" font-size="10" fill="#000000"></text>
	</g>
	<g>
		<rect x="5200" y="3587.5000000000005" width="20" height="20" fill="#FFFFFF" stroke-width="1.000000px" stroke="#000000" />
		<text x="5210" y="3597.5000000000005" text-anchor="middle" dominant-baseline="middle" font-family="Arial" font-size="10" fill="#000000"></text>
	</g>
	<g>
		<rect x="4400" y="3907.5000000000005" width="20" height="20" fill="#FFFFFF" stroke-width="1.000000px" stroke="#000000" />
		<text x="4410" y="3917.5000000000005" text-anchor="middle" dominant-baseline="middle" font-family="Arial" font-size="10" fill="#000000"></text>
	</g>
	<g>
		<rect x="3180" y="4227.5" width="20" height="20" fill="#FFFFFF" stroke-width="1.000000px" stroke="#000000" />
		<text x="3190" y="4237.5" text-anchor="middle" dominant-baseline="middle" font-family="Arial" font-size="10" fill="#000000"></text>
	</g>
	<g>
		<rect x="3620" y="4547.5" width="20" height="20" fill="#FFFFFF" stroke-width="1.000000px" stroke="#000000" />
		<text x="3630" y="4557.5" text-anchor="middle" dominant-baseline="middle" font-family="Arial" font-size="10" fill="#000000"></text>
	</g>
	<g>
		<rect x="3700" y="4867.5" width="20" height="20" fill="#FFFFFF" stroke-width="1.000000px" stroke="#000000" />
		<text x="3710" y="4877.5" text-anchor="middle" dominant-baseline="middle" font-family="Arial" font-size="10" fill="#000000"></text>
	</g>
	<g>
		<rect x="3700" y="5187.5" width="20" height="20" fill="#FFFFFF" stroke-width="1.000000px" stroke="#000000" />
		<text x="3710" y="5197.5" text-anchor="middle" dominant-baseline="middle" font-family="Arial" font-size="10" fill="#000000"></text>
	</g>
	<g>
		<rect x="3750" y="5294.166666666667" width="20" height="20" fill="#FFFFFF" stroke-width="1.000000px" stroke="#000000" />
		<text x="3760" y="5304.166666666667" text-anchor="middle" dominant-baseline="middle" font-family="Arial" font-size="10" fill="#000000"></text>
	</g>
	<g>
		<rect x="3730" y="5614.166666666667" width="20" height="20" fill="#FFFFFF" stroke-width="1.000000px" stroke="#000000" />
		<text x="3740" y="5624.166666666667" text-anchor="middle" dominant-baseline="middle" font-family="Arial" font-size="10" fill="#000000"></text>
	</g>
	<g>
		<rect x="3750" y="5934.166666666667" width="20" height="20" fill="#FFFFFF" stroke-width="1.000000px" stroke="#000000" />
		<text x="3760" y="5944.166666666667" text-anchor="middle" dominant-baseline="middle" font-family="Arial" font-size="10" fill="#000000"></text>
	</g>
	<g>
		<rect x="2020" y="6254.166666666667" width="20" height="20" fill="#FFFFFF" stroke-width="1.000000px" stroke="#000000" />
		<text x="2030" y="6264.166666666667" text-anchor="middle" dominant-baseline="middle" font-family="Arial" font-size="10" fill="#000000"></text>
	</g>
	<g>
		<rect x="520" y="6574.166666666667" width="20" height="20" fill="#FFFFFF" stroke-width="1.000000px" stroke="#000000" />
		<text x="530" y="6584.166666666667" text-anchor="middle" dominant-baseline="middle" font-family="Arial" font-size="10" fill="#000000"></text>
	</g>
	<g>
		<rect x="500" y="6894.166666666667" width="20" height="20" fill="#FFFFFF" stroke-width="1.000000px" stroke="#000000" />
		<text x="510" y="6904.166666666667" text-anchor="middle" dominant-baseline="middle" font-family="Arial" font-size="10" fill="#000000"></text>
	</g>
	<g>
		<rect x="1020" y="7214.166666666667" width="20" height="20" fill="#FFFFFF" stroke-width="1.000000px" stroke="#000000" />
		<text x="1030" y="7224.166666666667" text-anchor="middle" dominant-baseline="middle" font-family="Arial" font-size="10" fill="#000000"></text>
	</g>
	<g>
		<rect x="1020" y="7500.8333333333339" width="20" height="20" fill="#FFFFFF" stroke-width="1.000000px" stroke="#000000" />
		<text x="1030" y="7510.8333333333339" text-anchor="middle" dominant-baseline="middle" font-family="Arial" font-size="10" fill="#000000"></text>
	</g>
	<g>
		<rect x="1960" y="7820.8333333333339" width="20" height="20" fill="#FFFFFF" stroke-width="1.000000px" stroke="#000000" />
		<text x="1970" y="7830.8333333333339" text-anchor="middle" dominant-baseline="middle" font-family="Arial" font-size="10" fill="#000000"></text>
	</g>
	<g>
		<rect x="540" y="8140.8333333333339" width="20" height="20" fill="#FFFFFF" stroke-width="1.000000px" stroke="#000000" />
		<text x="550" y="8150.8333333333339" text-anchor="middle" dominant-baseline="middle" font-family="Arial" font-size="10" fill="#000000"></text>
	</g>
	<g>
		<rect x="540" y="8190.8333333333339" width="20" height="20" fill="#FFFFFF" stroke-width="1.000000px" stroke="#000000" />
		<text x="550" y="8200.8333333333339" text-anchor="middle" dominant-baseline="middle" font-family="Arial" font-size="10" fill="#000000"></text>
	</g>
	<g>
		<rect x="540" y="8240.8333333333339" width="20" height="20" fill="#FFFFFF" stroke-width="1.000000px" stroke="#000000" />
		<text x="550" y="8250.8333333333339" text-anchor="middle" dominant-baseline="middle" font-family="Arial" font-size="10" fill="#000000"></text>
	</g>
	<g>
		<rect x="520" y="8340.8333333333339" width="20" height="20" fill="#FFFFFF" stroke-width="1.000000px" stroke="#000000" />
		<text x="530" y="8350.8333333333339" text-anchor="middle" dominant-baseline="middle" font-family="Arial" font-size="10" fill="#000000"></text>
	</g>
	<g>
		<rect x="260" y="8574.1666666666679" width="20" height="20" fill="#FFFFFF" stroke-width="1.000000px" stroke="#000000" />
		<text x="270" y="8584.1666666666679" text-anchor="middle" dominant-baseline="middle" font-family="Arial" font-size="10" fill="#000000"></text>
	</g>
	<g>
		<rect x="230" y="8624.1666666666679" width="20" height="20" fill="#FFFFFF" stroke-width="1.000000px" stroke="#000000" />
		<text x="240" y="8634.1666666666679" text-anchor="middle" dominant-baseline="middle" font-family="Arial" font-size="10" fill="#000000"></text>
	</g>
	<g>
		<rect x="230" y="8944.1666666666679" width="20" height="20" fill="#FFFFFF" stroke-width="1.000000px" stroke="#000000" />
		<text x="240" y="8954.1666666666679" text-anchor="middle" dominant-baseline="middle" font-family="Arial" font-size="10" fill="#000000"></text>
	</g>
	<g>
		<rect x="190" y="8994.1666666666679" width="20" height="20" fill="#FFFFFF" stroke-width="1.000000px" stroke="#000000" />
		<text x="200" y="9004.1666666666679" text-anchor="middle" dominant-baseline="middle" font-family="Arial" font-size="10" fill="#000000"></text>
	</g>
	<g>
		<rect x="200" y="9044.1666666666679" width="20" height="20" fill="#FFFFFF" stroke-width="1.000000px" stroke="#000000" />
		<text x="210" y="9054.1666666666679" text-anchor="middle" dominant-baseline="middle" font-family="Arial" font-size="10" fill="#000000"></text>
	</g>
	<g>
		<rect x="220" y="9094.1666666666679" width="20" height="20" fill="#FFFFFF" stroke-width="1.000000px" stroke="#000000" />
		<text x="230" y="9104.1666666666679" text-anchor="middle" dominant-baseline="middle" font-family="Arial" font-size="10" fill="#000000"></text>
	</g>
	<g>
		<rect x="200" y="9194.1666666666679" width="20" height="20" fill="#FFFFFF" stroke-width="1.000000px" stroke="#000000" />
		<text x="210" y="9204.1666666666679" text-anchor="middle" dominant-baseline="middle" font-family="Arial" font-size="10" fill="#000000"></text>
	</g>
	<g>
		<rect x="250" y="9244.1666666666679" width="20" height="20" fill="#FFFFFF" stroke-width="1.000000px" stroke="#000000" />
		<text x="260" y="9254.1666666666679" text-anchor="middle" dominant-baseline="middle" font-family="Arial" font-size="10" fill="#000000"></text>
	</g>
	<g>
		<rect x="6860" y="1813.3333333333335" width="20" height="20" fill="#FFFFFF" stroke-width="1.000000px" stroke="#000000" />
		<text x="6870" y="1823.3333333333335" text-anchor="middle" dominant-baseline="middle" font-family="Arial" font-size="10" fill="#000000"></text>
	</g>
	<g>
		<rect x="7880" y="1813.3333333333335" width="20" height="20" fill="#FFFFFF" stroke-width="1.000000px" stroke="#000000" />
		<text x="7890" y="1823.3333333333335" text-anchor="middle" dominant-baseline="middle" font-family="Arial" font-size="10" fill="#000000"></text>
	</g>
	<g>
		<rect x="6840" y="2133.3333333333335" width="20" height="20" fill="#FFFFFF" stroke-width="1.000000px" stroke="#000000" />
		<text x="6850" y="2143.3333333333335" text-anchor="middle" dominant-baseline="middle" font-family="Arial" font-size="10" fill="#000000"></text>
	</g>
	<g>
		<rect x="6840" y="2394.166666666667" width="20" height="20" fill="#FFFFFF" stroke-width="1.000000px" stroke="#000000" />
		<text x="6850" y="2404.166666666667" text-anchor="middle" dominant-baseline="middle" font-family="Arial" font-size="10" fill="#000000"></text>
	</g>
	<g>
		<rect x="6800" y="2714.166666666667" width="20" height="20" fill="#FFFFFF" stroke-width="1.000000px" stroke="#000000" />
		<text x="6810" y="2724.166666666667" text-anchor="middle" dominant-baseline="middle" font-family="Arial" font-size="10" fill="#000000"></text>
	</g>
	<g>
		<rect x="6880" y="3034.166666666667" width="20" height="20" fill="#FFFFFF" stroke-width="1.000000px" stroke="#000000" />
		<text x="6890" y="3044.166666666667" text-anchor="middle" dominant-baseline="middle" font-family="Arial" font-size="10" fill="#000000"></text>
	</g>
	<g>
		<rect x="6860" y="3267.5000000000005" width="20" height="20" fill="#FFFFFF" stroke-width="1.000000px" stroke="#000000" />
		<text x="6870" y="3277.5000000000005" text-anchor="middle" dominant-baseline="middle" font-family="Arial" font-size="10" fill="#000000"></text>
	</g>
	<g>
		<rect x="6800" y="3587.5000000000005" width="20" height="20" fill="#FFFFFF" stroke-width="1.000000px" stroke="#000000" />
		<text x="6810" y="3597.5000000000005" text-anchor="middle" dominant-baseline="middle" font-family="Arial" font-size="10" fill="#000000"></text>
	</g>
	<g>
		<rect x="4620" y="3907.5000000000005" width="20" height="20" fill="#FFFFFF" stroke-width="1.000000px" stroke="#000000" />
		<text x="4630" y="3917.5000000000005" text-anchor="middle" dominant-baseline="middle" font-family="Arial" font-size="10" fill="#000000"></text>
	</g>
	<g>
		<rect x="3960" y="4227.5" width="20" height="20" fill="#FFFFFF" stroke-width="1.000000px" stroke="#000000" />
		<text x="3970" y="4237.5" text-anchor="middle" dominant-baseline="middle" font-family="Arial" font-size="10" fill="#000000"></text>
	</g>
	<g>
		<rect x="3940" y="4547.5" width="20" height="20" fill="#FFFFFF" stroke-width="1.000000px" stroke="#000000" />
		<text x="3950" y="4557.5" text-anchor="middle" dominant-baseline="middle" font-family="Arial" font-size="10" fill="#000000"></text>
	</g>
	<g>
		<rect x="3910" y="4867.5" width="20" height="20" fill="#FFFFFF" stroke-width="1.000000px" stroke="#000000" />
		<text x="3920" y="4877.5" text-anchor="middle" dominant-baseline="middle" font-family="Arial" font-size="10" fill="#000000"></text>
	</g>
	<g>
		<rect x="3760" y="5187.5" width="20" height="20" fill="#FFFFFF" stroke-width="1.000000px" stroke="#000000" />
		<text x="3770" y="5197.5" text-anchor="middle" dominant-baseline="middle" font-family="Arial" font-size="10" fill="#000000"></text>
	</g>
	<g>
		<rect x="3500" y="5294.166666666667" width="20" height="20" fill="#FFFFFF" stroke-width="1.000000px" stroke="#000000" />
		<text x="3510" y="5304.166666666667" text-anchor="middle" dominant-baseline="middle" font-family="Arial" font-size="10" fill="#000000"></text>
	</g>
	<g>
		<rect x="1950" y="5614.166666666667" width="20" height="20" fill="#FFFFFF" stroke-width="1.000000px" stroke="#000000" />
		<text x="1960" y="5624.166666666667" text-anchor="middle" dominant-baseline="middle" font-family="Arial" font-size="10" fill="#000000"></text>
	</g>
	<g>
		<rect x="1800" y="5934.166666666667" width="20" height="20" fill="#FFFFFF" stroke-width="1.000000px" stroke="#000000" />
		<text x="1810" y="5944.166666666667" text-anchor="middle" dominant-baseline="middle" font-family="Arial" font-size="10" fill="#000000"></text>
	</g>
	<g>
		<rect x="1540" y="6254.166666666667" width="20" height="20" fill="#FFFFFF" stroke-width="1.000000px" stroke="#000000" />
		<text x="1550" y="6264.166666666667" text-anchor="middle" dominant-baseline="middle" font-family="Arial" font-size="10" fill="#000000"></text>
	</g>
	<g>
		<rect x="1520" y="6574.166666666667" width="20" height="20" fill="#FFFFFF" stroke-width="1.000000px" stroke="#000000" />
		<text x="1530" y="6584.166666666667" text-anchor="middle" dominant-baseline="middle" font-family="Arial" font-size="10" fill="#000000"></text>
	</g>
	<g>
		<rect x="2100" y="6894.166666666667" width="20" height="20" fill="#FFFFFF" stroke-width="1.000000px" stroke="#000000" />
		<text x="2110" y="6904.166666666667" text-anchor="middle" dominant-baseline="middle" font-family="Arial" font-size="10" fill="#000000"></text>
	</g>
	<g>
		<rect x="2080" y="7214.166666666667" width="20" height="20" fill="#FFFFFF" stroke-width="1.000000px" stroke="#000000" />
		<text x="2090" y="7224.166666666667" text-anchor="middle" dominant-baseline="middle" font-family="Arial" font-size="10" fill="#000000"></text>
	</g>
	<g>
		<rect x="4580" y="3587.5000000000005" width="20" height="20" fill="#FFFFFF" stroke-width="1.000000px" stroke="#000000" />
		<text x="4590" y="3597.5000000000005" text-anchor="middle" dominant-baseline="middle" font-family="Arial" font-size="10" fill="#000000"></text>
	</g>
	<g>
		<rect x="3380" y="4547.5" width="20" height="20" fill="#FFFFFF" stroke-width="1.000000px" stroke="#000000" />
		<text x="3390" y="4557.5" text-anchor="middle" dominant-baseline="middle" font-family="Arial" font-size="10" fill="#000000"></text>
	</g>
	<g>
		<rect x="3380" y="4867.5" width="20" height="20" fill="#FFFFFF" stroke-width="1.000000px" stroke="#000000" />
		<text x="3390" y="4877.5" text-anchor="middle" dominant-baseline="middle" font-family="Arial" font-size="10" fill="#000000"></text>
	</g>
	<g>
		<rect x="2580" y="5187.5" width="20" height="20" fill="#FFFFFF" stroke-width="1.000000px" stroke="#000000" />
		<text x="2590" y="5197.5" text-anchor="middle" dominant-baseline="middle" font-family="Arial" font-size="10" fill="#000000"></text>
	</g>
	<g>
		<rect x="2620" y="5294.166666666667" width="20" height="20" fill="#FFFFFF" stroke-width="1.000000px" stroke="#000000" />
		<text x="2630" y="5304.166666666667" text-anchor="middle" dominant-baseline="middle" font-family="Arial" font-size="10" fill="#000000"></text>
	</g>
	<g>
		<rect x="2820" y="5614.166666666667" width="20" height="20" fill="#FFFFFF" stroke-width="1.000000px" stroke="#000000" />
		<text x="2830" y="5624.166666666667" text-anchor="middle" dominant-baseline="middle" font-family="Arial" font-size="10" fill="#000000"></text>
	</g>
	<g>
		<rect x="2420" y="5934.166666666667" width="20" height="20" fill="#FFFFFF" stroke-width="1.000000px" stroke="#000000" />
		<text x="2430" y="5944.166666666667" text-anchor="middle" dominant-baseline="middle" font-family="Arial" font-size="10" fill="#000000"></text>
	</g>
	<g>
		<rect x="2400" y="6254.166666666667" width="20" height="20" fill="#FFFFFF" stroke-width="1.000000px" stroke="#000000" />
		<text x="2410" y="6264.166666666667" text-anchor="middle" dominant-baseline="middle" font-family="Arial" font-size="10" fill="#000000"></text>
	</g>
	<g>
		<rect x="1820" y="6574.166666666667" width="20" height="20" fill="#FFFFFF" stroke-width="1.000000px" stroke="#000000" />
		<text x="1830" y="6584.166666666667" text-anchor="middle" dominant-baseline="middle" font-family="Arial" font-size="10" fill="#000000"></text>
	</g>
	<g>
		<rect x="1840" y="6894.166666666667" width="20" height="20" fill="#FFFFFF" stroke-width="1.000000px" stroke="#000000" />
		<text x="1850" y="6904.166666666667" text-anchor="middle" dominant-baseline="middle" font-family="Arial" font-size="10" fill="#000000"></text>
	</g>
	<g>
		<rect x="920" y="7214.166666666667" width="20" height="20" fill="#FFFFFF" stroke-width="1.000000px" stroke="#000000" />
		<text x="930" y="7224.166666666667" text-anchor="middle" dominant-baseline="middle" font-family="Arial" font-size="10" fill="#000000"></text>
	</g>
	<g>
		<rect x="900" y="7500.8333333333339" width="20" height="20" fill="#FFFFFF" stroke-width="1.000000px" stroke="#000000" />
		<text x="910" y="7510.8333333333339" text-anchor="middle" dominant-baseline="middle" font-family="Arial" font-size="10" fill="#000000"></text>
	</g>
	<g>
		<rect x="620" y="7820.8333333333339" width="20" height="20" fill="#FFFFFF" stroke-width="1.000000px" stroke="#000000" />
		<text x="630" y="7830.8333333333339" text-anchor="middle" dominant-baseline="middle" font-family="Arial" font-size="10" fill="#000000"></text>
	</g>
	<g>
		<rect x="860" y="8140.8333333333339" width="20" height="20" fill="#FFFFFF" stroke-width="1.000000px" stroke="#000000" />
		<text x="870" y="8150.8333333333339" text-anchor="middle" dominant-baseline="middle" font-family="Arial" font-size="10" fill="#000000"></text>
	</g>
	<g>
		<rect x="920" y="8190.8333333333339" width="20" height="20" fill="#FFFFFF" stroke-width="1.000000px" stroke="#000000" />
		<text x="930" y="8200.8333333333339" text-anchor="middle" dominant-baseline="middle" font-family="Arial" font-size="10" fill="#000000"></text>
	</g>
	<g>
		<rect x="870" y="8240.8333333333339" width="20" height="20" fill="#FFFFFF" stroke-width="1.000000px" stroke="#000000" />
		<text x="880" y="8250.8333333333339" text-anchor="middle" dominant-baseline="middle" font-family="Arial" font-size="10" fill="#000000"></text>
	</g>
</svg>
